SplineFontDB: 3.0
FontName: ModernAntiqua
FullName: Modern Antiqua
FamilyName: Modern Antiqua
Weight: Book
Copyright: Copyright (c) 2011, wmk69 (wmk69@o2.pl)\nwith Reserved Font Names 'ModernAntiqua' and 'Modern Antiqua'.\n\nThis Font Software is licensed under the SIL Open Font License, Version 1.1.\nThis license is available with a FAQ at:\nhttp://scripts.sil.org/OFL
Version: 2.000
ItalicAngle: 0
UnderlinePosition: -79
UnderlineWidth: 120
Ascent: 1638
Descent: 410
LayerCount: 2
Layer: 0 1 "Warstwa t+AUIA-a"  1
Layer: 1 1 "Plan pierwszy"  0
XUID: [1021 783 23647091 7762759]
FSType: 0
OS2Version: 3
OS2_WeightWidthSlopeOnly: 0
OS2_UseTypoMetrics: 1
CreationTime: 1260698820
ModificationTime: 1317061798
PfmFamily: 17
TTFWeight: 400
TTFWidth: 5
LineGap: 0
VLineGap: 0
Panose: 2 2 5 2 2 2 2 6 2 4
OS2TypoAscent: 1950
OS2TypoAOffset: 0
OS2TypoDescent: -537
OS2TypoDOffset: 0
OS2TypoLinegap: 0
OS2WinAscent: 1950
OS2WinAOffset: 0
OS2WinDescent: 537
OS2WinDOffset: 0
HheadAscent: 1950
HheadAOffset: 0
HheadDescent: -537
HheadDOffset: 0
OS2SubXSize: 1434
OS2SubYSize: 1331
OS2SubXOff: 0
OS2SubYOff: 287
OS2SupXSize: 1434
OS2SupYSize: 1331
OS2SupXOff: 0
OS2SupYOff: 977
OS2StrikeYSize: 102
OS2StrikeYPos: 512
OS2Vendor: '    '
OS2CodePages: 20000093.00000000
OS2UnicodeRanges: 8000002f.4000204b.00000000.00000000
Lookup: 258 0 0 "'kern' Kerning poziomy w tablicy 0"  {"Podtablica 'kern' Kerning poziomy w tablicy 0"  } ['kern' ('DFLT' <'dflt' > 'grek' <'dflt' > 'latn' <'dflt' > ) ]
DEI: 91125
KernClass2: 23 17 "Podtablica 'kern' Kerning poziomy w tablicy 0" 
 79 A Agrave Aacute Acircumflex Atilde Adieresis Aring Amacron Abreve Aogonek Delta
 335 B C D G O Q S Ccedilla Eth Ograve Oacute Ocircumflex Otilde Odieresis Oslash Oslashacute Thorn germandbls Cacute Ccircumflex Cdotaccent Ccaron Dcaron Dcroat Gcircumflex Gbreve Gdotaccent Gcommaaccent Omacron Obreve Ohungarumlaut Racute Rcommaaccent Rcaron Sacute Scircumflex Scedilla Scaron uni01E4 Scommaaccent uni1E02 uni1E0A uni1E60
 9 F uni1E1E

StartChar: .notdef
Encoding: 65536 -1 0
Width: 944
Flags: W
HStem: 0 68<267 676> 1442 68<267 676>
VStem: 200 67<68 1442> 676 68<68 1442>
LayerCount: 2
Fore
SplineSet
200 0 m 1,0,-1
 200 1510 l 1,1,-1
 744 1510 l 1,2,-1
 744 0 l 1,3,-1
 200 0 l 1,0,-1
267 68 m 1,4,-1
 676 68 l 1,5,-1
 676 1442 l 1,6,-1
 267 1442 l 1,7,-1
 267 68 l 1,4,-1
EndSplineSet
Validated: 3073
EndChar

StartChar: exclam
Encoding: 33 33 4
Width: 659
GlyphClass: 2
Flags: W
HStem: -20 264<239.191 420.324> 1510 20G<303 357>
VStem: 200 259<19.7072 204.293 1188.39 1490.29>
LayerCount: 2
Fore
SplineSet
200 112 m 128,-1,1
 200 167 200 167 238 205.5 c 128,-1,2
 276 244 276 244 330 244 c 128,-1,3
 384 244 384 244 421.5 205.5 c 128,-1,4
 459 167 459 167 459 112 c 128,-1,5
 459 57 459 57 421.5 18.5 c 128,-1,6
 384 -20 384 -20 330 -20 c 128,-1,7
 276 -20 276 -20 238 18.5 c 128,-1,0
 200 57 200 57 200 112 c 128,-1,1
280 316 m 1,8,-1
 201 1376 l 2,9,10
 200 1389 200 1389 200 1398 c 0,11,12
 200 1453 200 1453 238 1491.5 c 128,-1,13
 276 1530 276 1530 330 1530 c 128,-1,14
 384 1530 384 1530 421.5 1492 c 128,-1,15
 459 1454 459 1454 459 1398 c 0,16,17
 458 1376 l 2,18,-1
 378 316 l 1,19,-1
 280 316 l 1,8,-1
EndSplineSet
Validated: 3073
EndChar

StartChar: quotedbl
Encoding: 34 34 5
Width: 830
GlyphClass: 2
Flags: W
HStem: 1101 449<230 344 486 600>
VStem: 230 114<1101 1315.56> 486 114<1101 1315.56>
LayerCount: 2
Fore
SplineSet
456 1550 m 1,0,-1
 630 1550 l 1,1,-1
 600 1101 l 1,2,-1
 486 1101 l 1,3,-1
 456 1550 l 1,0,-1
200 1550 m 1,4,-1
 374 1550 l 1,5,-1
 344 1101 l 1,6,-1
 230 1101 l 1,7,-1
 200 1550 l 1,4,-1
EndSplineSet
Validated: 3073
EndChar

StartChar: numbersign
Encoding: 35 35 6
Width: 1354
GlyphClass: 2
Flags: W
HStem: 517 131<200 440 571 783 913 1154> 859 131<200 440 571 783 913 1154>
VStem: 440 131<277 517 648 859 990 1230> 783 130<277 517 648 859 990 1230>
LayerCount: 2
Fore
SplineSet
440 1230 m 1,0,-1
 571 1230 l 1,1,-1
 571 990 l 1,2,-1
 783 990 l 1,3,-1
 783 1230 l 1,4,-1
 913 1230 l 1,5,-1
 913 990 l 1,6,-1
 1154 990 l 1,7,-1
 1154 859 l 1,8,-1
 913 859 l 1,9,-1
 913 648 l 1,10,-1
 1154 648 l 1,11,-1
 1154 517 l 1,12,-1
 913 517 l 1,13,-1
 913 277 l 1,14,-1
 783 277 l 1,15,-1
 783 517 l 1,16,-1
 571 517 l 1,17,-1
 571 277 l 1,18,-1
 440 277 l 1,19,-1
 440 517 l 1,20,-1
 200 517 l 1,21,-1
 200 648 l 1,22,-1
 440 648 l 1,23,-1
 440 859 l 1,24,-1
 200 859 l 1,25,-1
 200 990 l 1,26,-1
 440 990 l 1,27,-1
 440 1230 l 1,0,-1
571 859 m 1,28,-1
 571 648 l 1,29,-1
 783 648 l 1,30,-1
 783 859 l 1,31,-1
 571 859 l 1,28,-1
EndSplineSet
Validated: 3073
EndChar

StartChar: dollar
Encoding: 36 36 7
Width: 1286
GlyphClass: 2
Flags: W
HStem: -18 101<437.478 585 699 816.285> 1510 20G<963 989>
VStem: 120 15<-20 5.62451 543.723 566> 222 174<1103.59 1338.28> 585 114<-300 -13.5942 85 720 1010 1419 1525.11 1810> 974 15<944 965.111 1499.67 1530> 996 190<263.812 561.584>
DStem2: 561 1021 475 823 0.913604 -0.406604<-174.493 26.3992 248.465 545.494>
LayerCount: 2
Fore
SplineSet
120 -20 m 1,0,-1
 120 566 l 1,1,-1
 135 566 l 1,2,3
 203 325 203 325 299 228 c 0,4,5
 424 101 424 101 585 83 c 1,6,-1
 585 773 l 1,7,-1
 475 823 l 2,8,9
 222 939 222 939 222 1174 c 0,10,11
 222 1316 222 1316 338 1430 c 1,12,13
 434 1521 434 1521 585 1529 c 1,14,-1
 585 1810 l 1,15,-1
 700 1810 l 1,16,-1
 700 1520 l 1,17,18
 776 1500 776 1500 839 1445 c 0,19,20
 875 1414 875 1414 901 1414 c 0,21,22
 952 1414 952 1414 974 1530 c 1,23,-1
 989 1530 l 1,24,-1
 989 944 l 1,25,-1
 974 944 l 1,26,27
 903 1172 903 1172 840 1280 c 0,28,29
 779 1385 779 1385 700 1419 c 1,30,-1
 700 959 l 1,31,-1
 925 859 l 2,32,33
 1186 743 1186 743 1186 463 c 0,34,35
 1186 256 1186 256 1020 106 c 0,36,37
 899 -3 899 -3 699 -18 c 1,38,-1
 699 -300 l 1,39,-1
 585 -300 l 1,40,-1
 585 -18 l 1,41,42
 457 -9 457 -9 348 45 c 0,43,44
 281 78 281 78 236 78 c 0,45,46
 157 78 157 78 135 -20 c 1,47,-1
 120 -20 l 1,0,-1
699 720 m 1,48,-1
 699 85 l 1,49,50
 815 105 815 105 912 202 c 0,51,52
 996 286 996 286 996 424 c 0,53,54
 996 584 996 584 815 667 c 2,55,-1
 699 720 l 1,48,-1
585 1010 m 1,56,-1
 585 1432 l 1,57,58
 510 1423 510 1423 459 1376 c 0,59,60
 396 1318 396 1318 396 1216 c 0,61,62
 396 1095 396 1095 561 1021 c 2,63,-1
 585 1010 l 1,56,-1
EndSplineSet
Validated: 3073
EndChar

StartChar: percent
Encoding: 37 37 8
Width: 1671
GlyphClass: 2
Flags: W
HStem: -20 69<1082.25 1243.37> 582 88<1074.74 1250.77> 840 69<419.254 580.373> 1442 88<411.738 587.765>
VStem: 200 153<993.908 1363.48> 651 157<1005.18 1366.21> 863 153<133.908 503.48> 1314 157<145.182 506.401>
DStem2: 317 50 451 -20 0.522656 0.852544<10.3579 1736.34>
LayerCount: 2
Fore
SplineSet
1163 582 m 0,0,1
 1099 582 1099 582 1057.5 515 c 128,-1,2
 1016 448 1016 448 1016 304 c 0,3,4
 1016 195 1016 195 1052 125 c 0,5,6
 1091 49 1091 49 1162 49 c 128,-1,7
 1233 49 1233 49 1270 119 c 0,8,9
 1314 203 1314 203 1314 325 c 0,10,11
 1314 453 1314 453 1267 519 c 0,12,13
 1222 582 1222 582 1163 582 c 0,0,1
1167 -20 m 0,14,15
 1040 -20 1040 -20 945 83 c 0,16,17
 863 171 863 171 863 318 c 0,18,19
 863 461 863 461 947 564 c 0,20,21
 1035 670 1035 670 1167 670 c 0,22,23
 1294 670 1294 670 1388 561 c 0,24,25
 1471 466 1471 466 1471 317 c 0,26,27
 1471 186 1471 186 1384 85 c 0,28,29
 1295 -20 1295 -20 1167 -20 c 0,14,15
1225 1530 m 1,30,-1
 1362 1466 l 1,31,-1
 451 -20 l 1,32,-1
 317 50 l 1,33,-1
 1225 1530 l 1,30,-1
499 909 m 128,-1,35
 570 909 570 909 607 979 c 0,36,37
 651 1063 651 1063 651 1185 c 0,38,39
 651 1313 651 1313 604 1379 c 0,40,41
 559 1442 559 1442 500 1442 c 0,42,43
 436 1442 436 1442 394.5 1375 c 128,-1,44
 353 1308 353 1308 353 1164 c 0,45,46
 353 1055 353 1055 389 985 c 0,47,34
 428 909 428 909 499 909 c 128,-1,35
504 1530 m 0,48,49
 631 1530 631 1530 725 1421 c 0,50,51
 808 1325 808 1325 808 1177 c 0,52,53
 808 1046 808 1046 721 945 c 0,54,55
 632 840 632 840 504 840 c 0,56,57
 377 840 377 840 282 943 c 0,58,59
 200 1031 200 1031 200 1178 c 0,60,61
 200 1321 200 1321 284 1424 c 0,62,63
 372 1530 372 1530 504 1530 c 0,48,49
EndSplineSet
Validated: 3073
EndChar

StartChar: ampersand
Encoding: 38 38 9
Width: 1498
GlyphClass: 2
Flags: W
HStem: -20 110<530.043 895.288> 0 21G<1126.26 1348> 856 15<932 957.43> 1432 98<556.785 824.529>
VStem: 150 225<254.921 632.046> 279 189<1034.11 1344.05> 979 15<1091 1115.81>
DStem2: 744 871 592 797 0.569848 -0.82175<-26.9331 624.424 801.885 941.404>
LayerCount: 2
Fore
SplineSet
1348 0 m 1,0,-1
 1140 0 l 1,1,-1
 1061 115 l 1,2,3
 915 -20 915 -20 692 -20 c 0,4,5
 471 -20 471 -20 316 100 c 0,6,7
 150 228 150 228 150 442 c 0,8,9
 150 627 150 627 284 743 c 0,10,11
 404 847 404 847 582 864 c 1,12,13
 467 894 467 894 384 964 c 0,14,15
 279 1052 279 1052 279 1195 c 0,16,17
 279 1352 279 1352 425 1459 c 0,18,19
 522 1530 522 1530 680 1530 c 0,20,21
 852 1530 852 1530 994 1388 c 1,22,-1
 994 1091 l 1,23,-1
 979 1091 l 1,24,25
 936 1253 936 1253 879 1332 c 0,26,27
 807 1431 807 1431 691 1432 c 0,28,29
 603 1432 603 1432 534 1369 c 0,30,31
 468 1309 468 1309 468 1192 c 0,32,33
 468 1074 468 1074 535 999 c 128,-1,34
 602 924 602 924 744 871 c 1,35,-1
 1100 358 l 1,36,37
 1142 461 1142 461 1142 615 c 0,38,39
 1142 804 1142 804 932 856 c 1,40,-1
 932 871 l 1,41,-1
 1324 871 l 1,42,43
 1298 476 1298 476 1171 256 c 1,44,-1
 1348 0 l 1,0,-1
998 207 m 1,45,-1
 592 797 l 1,46,47
 519 758 519 758 466 702 c 0,48,49
 375 606 375 606 375 438 c 0,50,51
 375 285 375 285 472 182 c 0,52,53
 559 90 559 90 690 90 c 0,54,55
 880 90 880 90 998 207 c 1,45,-1
EndSplineSet
Validated: 3073
EndChar

StartChar: quotesingle
Encoding: 39 39 10
Width: 574
GlyphClass: 2
Flags: W
HStem: 1101 449<230 344>
VStem: 230 114<1101 1315.56>
LayerCount: 2
Fore
SplineSet
200 1550 m 1,0,-1
 374 1550 l 1,1,-1
 344 1101 l 1,2,-1
 230 1101 l 1,3,-1
 200 1550 l 1,0,-1
EndSplineSet
Validated: 3073
EndChar

StartChar: parenleft
Encoding: 40 40 11
Width: 654
GlyphClass: 2
Flags: W
VStem: 200 182<377.392 1132.61>
LayerCount: 2
Fore
SplineSet
545 1810 m 9,0,-1
 604 1771 l 17,1,2
 490 1543 490 1543 438 1311 c 0,3,4
 382 1061 382 1061 382 755 c 128,-1,5
 382 449 382 449 438 199 c 0,6,7
 490 -33 490 -33 604 -261 c 9,8,-1
 545 -300 l 17,9,10
 419 -127 419 -127 308 169 c 0,11,12
 200 457 200 457 200 755 c 128,-1,13
 200 1053 200 1053 308 1341 c 0,14,15
 419 1637 419 1637 545 1810 c 9,0,-1
EndSplineSet
Validated: 3073
EndChar

StartChar: parenright
Encoding: 41 41 12
Width: 654
GlyphClass: 2
Flags: W
VStem: 272 182<377.392 1132.61>
LayerCount: 2
Fore
SplineSet
109 1810 m 17,0,1
 235 1637 235 1637 346 1341 c 0,2,3
 454 1053 454 1053 454 755 c 128,-1,4
 454 457 454 457 346 169 c 0,5,6
 235 -127 235 -127 109 -300 c 9,7,-1
 50 -261 l 17,8,9
 164 -33 164 -33 216 199 c 0,10,11
 272 449 272 449 272 755 c 128,-1,12
 272 1061 272 1061 216 1311 c 0,13,14
 164 1543 164 1543 50 1771 c 9,15,-1
 109 1810 l 17,0,1
EndSplineSet
Validated: 3073
EndChar

StartChar: asterisk
Encoding: 42 42 13
Width: 1389
GlyphClass: 2
Flags: W
HStem: 1530 20G<679.107 704.768>
LayerCount: 2
Fore
SplineSet
685 1550 m 1,0,-1
 699 1550 l 1,1,-1
 791 1231 l 1,2,-1
 939 1300 l 1,3,-1
 870 1159 l 1,4,-1
 1189 1065 l 1,5,-1
 1189 1051 l 1,6,-1
 870 959 l 1,7,-1
 939 811 l 1,8,-1
 798 880 l 1,9,-1
 704 561 l 1,10,-1
 690 561 l 1,11,-1
 598 880 l 1,12,-1
 450 811 l 1,13,-1
 519 952 l 1,14,-1
 200 1046 l 1,15,-1
 200 1060 l 1,16,-1
 519 1152 l 1,17,-1
 450 1300 l 1,18,-1
 591 1231 l 1,19,-1
 685 1550 l 1,0,-1
EndSplineSet
Validated: 3073
EndChar

StartChar: plus
Encoding: 43 43 14
Width: 1233
GlyphClass: 2
Flags: W
HStem: 680 150<200 542 692 1033>
VStem: 542 150<338 680 830 1172>
LayerCount: 2
Fore
SplineSet
542 1172 m 1,0,-1
 692 1172 l 1,1,-1
 692 830 l 1,2,-1
 1033 830 l 1,3,-1
 1033 680 l 1,4,-1
 692 680 l 1,5,-1
 692 338 l 1,6,-1
 542 338 l 1,7,-1
 542 680 l 1,8,-1
 200 680 l 1,9,-1
 200 830 l 1,10,-1
 542 830 l 1,11,-1
 542 1172 l 1,0,-1
EndSplineSet
Validated: 3073
EndChar

StartChar: comma
Encoding: 44 44 15
Width: 705
GlyphClass: 2
Flags: W
HStem: -246 491
VStem: 233 272<17.1919 204.808>
LayerCount: 2
Fore
SplineSet
180 -231 m 1,0,1
 267 -182 267 -182 320 -108 c 0,2,3
 347 -70 347 -70 363 -20 c 1,4,5
 306 -20 306 -20 270 16 c 0,6,7
 233 54 233 54 233 110 c 0,8,9
 233 168 233 168 270 206 c 0,10,11
 308 245 308 245 364 245 c 128,-1,12
 420 245 420 245 458 210 c 0,13,14
 505 167 505 167 505 77 c 0,15,16
 505 -6 505 -6 460 -78 c 0,17,18
 386 -195 386 -195 277 -232 c 0,19,20
 236 -246 236 -246 180 -246 c 1,21,-1
 180 -231 l 1,0,1
EndSplineSet
Validated: 3073
EndChar

StartChar: hyphen
Encoding: 45 45 16
Width: 1233
GlyphClass: 2
Flags: W
HStem: 680 150<200 1033>
LayerCount: 2
Fore
SplineSet
200 830 m 1,0,-1
 1033 830 l 1,1,-1
 1033 680 l 1,2,-1
 200 680 l 1,3,-1
 200 830 l 1,0,-1
EndSplineSet
Validated: 3073
EndChar

StartChar: period
Encoding: 46 46 17
Width: 659
GlyphClass: 2
Flags: W
HStem: -20 264<239.191 420.324>
VStem: 200 259<19.7072 204.293>
LayerCount: 2
Fore
SplineSet
200 112 m 128,-1,1
 200 167 200 167 238 205.5 c 128,-1,2
 276 244 276 244 330 244 c 128,-1,3
 384 244 384 244 421.5 205.5 c 128,-1,4
 459 167 459 167 459 112 c 128,-1,5
 459 57 459 57 421.5 18.5 c 128,-1,6
 384 -20 384 -20 330 -20 c 128,-1,7
 276 -20 276 -20 238 18.5 c 128,-1,0
 200 57 200 57 200 112 c 128,-1,1
EndSplineSet
Validated: 3073
EndChar

StartChar: slash
Encoding: 47 47 18
Width: 1065
GlyphClass: 2
Flags: W
DStem2: 10 -80 144 -150 0.462583 0.886576<0 1962.67>
LayerCount: 2
Fore
SplineSet
918 1660 m 1,0,-1
 1055 1596 l 1,1,-1
 144 -150 l 1,2,-1
 10 -80 l 1,3,-1
 918 1660 l 1,0,-1
EndSplineSet
Validated: 3073
EndChar

StartChar: zero
Encoding: 48 48 19
Width: 1424
GlyphClass: 2
Flags: W
HStem: -20 105<566.807 866.165> 1425 105<566.13 856.651>
VStem: 130 218<428.568 1075.76> 1076 218<430.198 1078.51>
LayerCount: 2
Fore
SplineSet
1076 755 m 0,0,1
 1076 1131 1076 1131 948 1294 c 0,2,3
 845 1425 845 1425 712 1425 c 0,4,5
 574 1425 574 1425 476 1294 c 0,6,7
 348 1120 348 1120 348 755 c 0,8,9
 348 389 348 389 476 216 c 0,10,11
 573 85 573 85 712 85 c 0,12,13
 865 85 865 85 954 215 c 0,14,15
 1076 394 1076 394 1076 755 c 0,0,1
1294 755 m 0,16,17
 1294 353 1294 353 1077 139 c 0,18,19
 916 -20 916 -20 712 -20 c 0,20,21
 502 -20 502 -20 348 134 c 0,22,23
 130 353 130 353 130 755 c 0,24,25
 130 1152 130 1152 348 1376 c 0,26,27
 498 1530 498 1530 712 1530 c 128,-1,28
 926 1530 926 1530 1076 1376 c 0,29,30
 1294 1152 1294 1152 1294 755 c 0,16,17
EndSplineSet
Validated: 3073
EndChar

StartChar: one
Encoding: 49 49 20
Width: 700
GlyphClass: 2
Flags: W
HStem: 0 15<80 100.586 599.414 620> 1530 20G<375.5 450>
VStem: 250 200<96 1149.25>
LayerCount: 2
Fore
SplineSet
80 0 m 1,0,1
 80 9 80 9 80 15 c 1,2,3
 250 60 250 60 250 249 c 2,4,-1
 250 995 l 2,5,6
 250 1186 250 1186 80 1230 c 1,7,8
 80 1237 80 1237 80 1245 c 9,9,10
 316 1338 316 1338 435 1550 c 1,11,-1
 450 1550 l 9,12,-1
 450 249 l 2,13,14
 450 59 450 59 620 15 c 1,15,-1
 620 0 l 1,16,-1
 80 0 l 1,0,1
EndSplineSet
Validated: 1
EndChar

StartChar: two
Encoding: 50 50 21
Width: 1259
GlyphClass: 2
Flags: W
HStem: -20 190<741.99 1018.68> 111 196<330.834 553.492> 1414 116<420.441 722.739>
VStem: 150 15<934 960.523> 859 214<932.962 1270.46> 1144 15<308.895 318>
DStem2: 529 286 463 93 0.947722 -0.319098<-93.0522 406.211>
LayerCount: 2
Fore
SplineSet
120 -20 m 1,0,1
 120 300 120 300 443 578 c 2,2,-1
 709 807 l 2,3,4
 859 936 859 936 859 1102 c 24,5,6
 859 1214 859 1214 796 1299 c 0,7,8
 712 1414 712 1414 572 1414 c 0,9,10
 425 1414 425 1414 314 1274 c 0,11,12
 215 1149 215 1149 165 934 c 1,13,-1
 150 934 l 1,14,-1
 150 1346 l 1,15,16
 354 1530 354 1530 586 1530 c 0,17,18
 782 1530 782 1530 927.5 1406.5 c 128,-1,19
 1073 1283 1073 1283 1073 1084 c 24,20,21
 1073 859 1073 859 885 728 c 2,22,-1
 530 481 l 2,23,24
 357 361 357 361 299 236 c 1,25,26
 376 307 376 307 437 307 c 0,27,28
 465 307 465 307 529 286 c 2,29,-1
 826 186 l 2,30,31
 874 170 874 170 920 170 c 0,32,33
 1033 170 1033 170 1144 318 c 1,34,-1
 1159 318 l 1,35,36
 1098 -20 1098 -20 886 -20 c 0,37,38
 855 -20 855 -20 730 16 c 2,39,-1
 463 93 l 2,40,41
 399 111 399 111 370 111 c 0,42,43
 265 111 265 111 135 -20 c 9,44,-1
 120 -20 l 1,0,1
EndSplineSet
Validated: 3073
EndChar

StartChar: three
Encoding: 51 51 22
Width: 1244
GlyphClass: 2
Flags: W
HStem: -20 110<420.125 737.123> 1432 98<439.471 707.215>
VStem: 150 15<538.891 566> 270 15<1091 1115.95> 796 189<1034.11 1344.05> 902 212<260.637 623.952>
LayerCount: 2
Fore
SplineSet
150 566 m 1,0,-1
 165 566 l 1,1,2
 216 346 216 346 314 226 c 0,3,4
 425 90 425 90 574 90 c 0,5,6
 706 90 706 90 796 180 c 0,7,8
 902 286 902 286 902 437 c 0,9,10
 902 598 902 598 802 703 c 0,11,12
 702 811 702 811 520 856 c 1,13,-1
 520 871 l 1,14,15
 662 924 662 924 729 999 c 128,-1,16
 796 1074 796 1074 796 1192 c 0,17,18
 796 1309 796 1309 730 1369 c 0,19,20
 661 1432 661 1432 573 1432 c 0,21,22
 457 1432 457 1432 385 1332 c 0,23,24
 328 1254 328 1254 285 1091 c 1,25,-1
 270 1091 l 1,26,-1
 270 1388 l 1,27,28
 412 1530 412 1530 584 1530 c 0,29,30
 742 1530 742 1530 839 1459 c 0,31,32
 985 1352 985 1352 985 1195 c 0,33,34
 985 1052 985 1052 880 964 c 0,35,36
 797 894 797 894 682 864 c 1,37,38
 860 847 860 847 980 743 c 0,39,40
 1114 627 1114 627 1114 442 c 0,41,42
 1114 226 1114 226 948 100 c 0,43,44
 790 -20 790 -20 578 -20 c 0,45,46
 344 -20 344 -20 150 154 c 1,47,-1
 150 566 l 1,0,-1
EndSplineSet
Validated: 3073
EndChar

StartChar: four
Encoding: 52 52 23
Width: 1177
GlyphClass: 2
Flags: W
HStem: 0 15<557 577.586 1076.41 1097> 360 122<237 727 927 1026> 1530 20G<896.562 927>
VStem: 727 200<96 360 482 1122>
DStem2: 5 375 237 482 0.611045 0.791596<226.463 1032.5>
LayerCount: 2
Fore
SplineSet
557 0 m 1,0,-1
 557 15 l 1,1,2
 727 60 727 60 727 249 c 2,3,-1
 727 360 l 1,4,-1
 5 360 l 1,5,-1
 5 375 l 1,6,-1
 912 1550 l 1,7,-1
 927 1550 l 1,8,-1
 927 482 l 1,9,-1
 1081 482 l 1,10,-1
 1026 360 l 1,11,-1
 927 360 l 1,12,-1
 927 249 l 2,13,14
 927 59 927 59 1097 15 c 1,15,-1
 1097 0 l 1,16,-1
 557 0 l 1,0,-1
727 482 m 1,17,-1
 727 1122 l 1,18,-1
 237 482 l 1,19,-1
 727 482 l 1,17,-1
EndSplineSet
Validated: 3073
EndChar

StartChar: five
Encoding: 53 53 24
Width: 1264
GlyphClass: 2
Flags: W
HStem: -20 110<420.125 741.22> 813 115<452.996 738.688> 1304 206<518.117 830.719>
VStem: 150 15<538.891 566> 902 212<258.71 642.942>
LayerCount: 2
Fore
SplineSet
150 566 m 1,0,-1
 165 566 l 1,1,2
 216 346 216 346 314 226 c 0,3,4
 425 90 425 90 574 90 c 0,5,6
 709 90 709 90 798 180 c 0,7,8
 902 287 902 287 902 437 c 0,9,10
 902 608 902 608 815 705 c 0,11,12
 717 813 717 813 589 813 c 152,-1,13
 461 813 461 813 366 680 c 9,14,15
 277 801 277 801 200 846 c 9,16,-1
 350 1510 l 17,17,-1
 1044 1510 l 1,18,19
 938 1304 938 1304 735.5 1304 c 128,-1,20
 533 1304 533 1304 422 1418 c 1,21,22
 397 1134 397 1134 372 851 c 1,23,24
 484 928 484 928 638 928 c 0,25,26
 842 928 842 928 993 767 c 0,27,28
 1114 638 1114 638 1114 442 c 0,29,30
 1114 225 1114 225 948 100 c 0,31,32
 790 -20 790 -20 578 -20 c 0,33,34
 344 -20 344 -20 150 154 c 1,35,-1
 150 566 l 1,0,-1
EndSplineSet
Validated: 3073
EndChar

StartChar: six
Encoding: 54 54 25
Width: 1346
GlyphClass: 2
Flags: W
HStem: -20 104<590.404 856.637> 923 112<529.346 832.317> 1422 108<577.051 862.684>
VStem: 150 234<430.985 1077.21> 976 220<281.033 724.213> 1061 15<1072 1082.85>
LayerCount: 2
Fore
SplineSet
384 545 m 0,0,1
 384 355 384 355 496 216 c 0,2,3
 602 84 602 84 739 84 c 0,4,5
 853 84 853 84 920 208 c 0,6,7
 976 312 976 312 976 499 c 0,8,9
 976 699 976 699 906 805 c 0,10,11
 827 923 827 923 678 923 c 0,12,13
 528 923 528 923 438 782 c 0,14,15
 384 697 384 697 384 545 c 0,0,1
1076 1072 m 1,16,-1
 1061 1072 l 1,17,18
 934 1422 934 1422 732 1422 c 0,19,20
 584 1422 584 1422 490 1295 c 0,21,22
 373 1136 373 1136 373 854 c 1,23,24
 497 1035 497 1035 694 1035 c 0,25,26
 894 1035 894 1035 1042 886 c 0,27,28
 1196 731 1196 731 1196 496 c 0,29,30
 1196 279 1196 279 1040 117 c 0,31,32
 908 -20 908 -20 726 -20 c 0,33,34
 518 -20 518 -20 368 134 c 0,35,36
 150 358 150 358 150 755 c 0,37,38
 150 1157 150 1157 367 1371 c 0,39,40
 528 1530 528 1530 731 1530 c 128,-1,41
 934 1530 934 1530 1076 1416 c 1,42,-1
 1076 1072 l 1,16,-1
EndSplineSet
Validated: 3073
EndChar

StartChar: seven
Encoding: 55 55 26
Width: 1019
GlyphClass: 2
Flags: W
HStem: 0 21G<334 700> 1213 186<587.961 810.455> 1350 180<150.799 415.784>
VStem: 264 204<208.526 558.723>
DStem2: 439 1494 600 1234 0.931937 -0.362621<-123.337 331.528>
LayerCount: 2
Fore
SplineSet
404 0 m 1,0,1
 264 128 264 128 264 354 c 0,2,3
 264 541 264 541 405 714 c 0,4,5
 593 945 593 945 701 1080 c 0,6,7
 775 1172 775 1172 830 1274 c 1,8,9
 764 1213 764 1213 692 1213 c 0,10,11
 655 1213 655 1213 600 1234 c 2,12,-1
 343 1334 l 2,13,14
 301 1350 301 1350 249 1350 c 0,15,16
 152 1350 152 1350 25 1192 c 1,17,-1
 10 1192 l 1,18,19
 71 1530 71 1530 283 1530 c 0,20,21
 332 1530 332 1530 439 1494 c 2,22,-1
 666 1417 l 2,23,24
 720 1399 720 1399 759 1399 c 0,25,26
 864 1399 864 1399 994 1530 c 9,27,-1
 1009 1530 l 1,28,29
 1002 1309 1002 1309 790 1008 c 0,30,31
 650 810 650 810 593 732 c 0,32,33
 468 562 468 562 468 374 c 0,34,35
 468 174 468 174 700 15 c 1,36,-1
 700 0 l 1,37,-1
 404 0 l 1,0,1
EndSplineSet
Validated: 3073
EndChar

StartChar: eight
Encoding: 56 56 27
Width: 1271
GlyphClass: 2
Flags: W
HStem: -20 138<431.709 789.759> 1398 132<492.552 777.033>
VStem: 120 134<273.75 580.188> 221 187<1071 1314.01> 870 146<1034.23 1306.98> 957 194<273.807 584.248>
DStem2: 578 981 544 789 0.914157 -0.40536<9.81027 165.781 279.019 476.417>
LayerCount: 2
Fore
SplineSet
701 925 m 1,0,1
 796 978 796 978 837 1052 c 0,2,3
 870 1112 870 1112 870 1186 c 0,4,5
 870 1267 870 1267 802 1334 c 0,6,7
 736 1398 736 1398 634 1398 c 0,8,9
 530 1398 530 1398 468 1333 c 24,10,11
 408 1270 408 1270 408 1186 c 0,12,13
 408 1058 408 1058 578 981 c 2,14,-1
 701 925 l 1,0,1
641 -20 m 0,15,16
 402 -20 402 -20 258 110 c 0,17,18
 120 236 120 236 120 420 c 0,19,20
 120 563 120 563 202 676 c 0,21,22
 282 786 282 786 399 849 c 1,23,24
 221 968 221 968 221 1175 c 0,25,26
 221 1313 221 1313 336 1421 c 0,27,28
 452 1530 452 1530 627 1530 c 0,29,30
 792 1530 792 1530 910 1421 c 0,31,32
 1016 1323 1016 1323 1016 1185 c 0,33,34
 1016 1075 1016 1075 956 980 c 0,35,36
 911 909 911 909 834 870 c 1,37,-1
 905 836 l 2,38,39
 1151 718 1151 718 1151 455 c 0,40,41
 1151 243 1151 243 1000 116 c 0,42,43
 838 -20 838 -20 641 -20 c 0,15,16
544 789 m 1,44,45
 410 728 410 728 336 636 c 0,46,47
 254 533 254 533 254 428 c 0,48,49
 254 288 254 288 361 206 c 0,50,51
 476 118 476 118 618 118 c 0,52,53
 769 118 769 118 877 229 c 0,54,55
 957 311 957 311 957 436 c 0,56,57
 957 594 957 594 822 658 c 2,58,-1
 544 789 l 1,44,45
EndSplineSet
Validated: 3073
EndChar

StartChar: nine
Encoding: 57 57 28
Width: 1346
GlyphClass: 2
Flags: W
HStem: -20 108<483.316 768.949> 475 112<513.683 816.654> 1426 104<489.363 755.596>
VStem: 150 220<785.787 1228.97> 270 15<427.148 438> 962 234<432.793 1079.02>
LayerCount: 2
Fore
SplineSet
962 965 m 0,0,1
 962 1155 962 1155 850 1294 c 0,2,3
 744 1426 744 1426 607 1426 c 0,4,5
 493 1426 493 1426 426 1302 c 0,6,7
 370 1198 370 1198 370 1011 c 0,8,9
 370 811 370 811 440 705 c 0,10,11
 519 587 519 587 668 587 c 0,12,13
 818 587 818 587 908 728 c 0,14,15
 962 813 962 813 962 965 c 0,0,1
270 438 m 1,16,-1
 285 438 l 1,17,18
 412 88 412 88 614 88 c 0,19,20
 762 88 762 88 856 215 c 0,21,22
 973 374 973 374 973 656 c 1,23,24
 849 475 849 475 652 475 c 0,25,26
 452 475 452 475 304 624 c 0,27,28
 150 779 150 779 150 1014 c 0,29,30
 150 1231 150 1231 306 1393 c 0,31,32
 438 1530 438 1530 620 1530 c 0,33,34
 828 1530 828 1530 978 1376 c 0,35,36
 1196 1152 1196 1152 1196 755 c 0,37,38
 1196 353 1196 353 979 139 c 0,39,40
 818 -20 818 -20 615 -20 c 128,-1,41
 412 -20 412 -20 270 94 c 1,42,-1
 270 438 l 1,16,-1
EndSplineSet
Validated: 3073
EndChar

StartChar: colon
Encoding: 58 58 29
Width: 659
GlyphClass: 2
Flags: W
HStem: -20 264<239.191 420.324> 625 264<239.191 420.324>
VStem: 200 259<19.7072 204.293 664.707 849.293>
LayerCount: 2
Fore
SplineSet
200 757 m 128,-1,1
 200 812 200 812 238 850.5 c 128,-1,2
 276 889 276 889 330 889 c 128,-1,3
 384 889 384 889 421.5 850.5 c 128,-1,4
 459 812 459 812 459 757 c 128,-1,5
 459 702 459 702 421.5 663.5 c 128,-1,6
 384 625 384 625 330 625 c 128,-1,7
 276 625 276 625 238 663.5 c 128,-1,0
 200 702 200 702 200 757 c 128,-1,1
200 112 m 128,-1,9
 200 167 200 167 238 205.5 c 128,-1,10
 276 244 276 244 330 244 c 128,-1,11
 384 244 384 244 421.5 205.5 c 128,-1,12
 459 167 459 167 459 112 c 128,-1,13
 459 57 459 57 421.5 18.5 c 128,-1,14
 384 -20 384 -20 330 -20 c 128,-1,15
 276 -20 276 -20 238 18.5 c 128,-1,8
 200 57 200 57 200 112 c 128,-1,9
EndSplineSet
Validated: 3073
EndChar

StartChar: semicolon
Encoding: 59 59 30
Width: 659
GlyphClass: 2
Flags: W
HStem: 625 264<239.191 420.324>
VStem: 199 272<16.1919 203.808 668.377 845.623>
LayerCount: 2
Fore
SplineSet
146 -232 m 1,0,1
 233 -183 233 -183 286 -109 c 0,2,3
 313 -71 313 -71 329 -21 c 1,4,5
 272 -21 272 -21 236 15 c 0,6,7
 199 53 199 53 199 109 c 0,8,9
 199 167 199 167 236 205 c 0,10,11
 274 244 274 244 330 244 c 128,-1,12
 386 244 386 244 424 209 c 0,13,14
 471 166 471 166 471 76 c 0,15,16
 471 -7 471 -7 426 -79 c 0,17,18
 352 -196 352 -196 243 -233 c 0,19,20
 202 -247 202 -247 146 -247 c 1,21,-1
 146 -232 l 1,0,1
200 757 m 128,-1,23
 200 812 200 812 238 850.5 c 128,-1,24
 276 889 276 889 330 889 c 128,-1,25
 384 889 384 889 421.5 850.5 c 128,-1,26
 459 812 459 812 459 757 c 128,-1,27
 459 702 459 702 421.5 663.5 c 128,-1,28
 384 625 384 625 330 625 c 128,-1,29
 276 625 276 625 238 663.5 c 128,-1,22
 200 702 200 702 200 757 c 128,-1,23
EndSplineSet
Validated: 3073
EndChar

StartChar: less
Encoding: 60 60 31
Width: 1356
GlyphClass: 2
Flags: W
DStem2: 150 765 446 793 0.870391 0.492361<271.422 1084.57> 446 793 150 750 0.877896 -0.478852<0 800.162>
LayerCount: 2
Fore
SplineSet
150 765 m 1,0,-1
 1094 1299 l 1,1,-1
 1156 1194 l 1,2,-1
 446 793 l 1,3,-1
 1154 420 l 1,4,-1
 1074 246 l 1,5,-1
 150 750 l 1,6,-1
 150 765 l 1,0,-1
EndSplineSet
Validated: 3073
EndChar

StartChar: equal
Encoding: 61 61 32
Width: 1233
GlyphClass: 2
Flags: W
HStem: 530 150<200 1033> 830 150<200 1033>
LayerCount: 2
Fore
SplineSet
200 980 m 1,0,-1
 1033 980 l 1,1,-1
 1033 830 l 1,2,-1
 200 830 l 1,3,-1
 200 980 l 1,0,-1
200 680 m 1,4,-1
 1033 680 l 1,5,-1
 1033 530 l 1,6,-1
 200 530 l 1,7,-1
 200 680 l 1,4,-1
EndSplineSet
Validated: 3073
EndChar

StartChar: greater
Encoding: 62 62 33
Width: 1356
GlyphClass: 2
Flags: W
DStem2: 200 351 262 246 0.870391 0.492361<2.26634 815.414> 282 1299 202 1125 0.877896 -0.478852<13.0886 813.251>
LayerCount: 2
Fore
SplineSet
1206 780 m 1,0,-1
 262 246 l 1,1,-1
 200 351 l 1,2,-1
 910 752 l 1,3,-1
 202 1125 l 1,4,-1
 282 1299 l 1,5,-1
 1206 795 l 1,6,-1
 1206 780 l 1,0,-1
EndSplineSet
Validated: 3073
EndChar

StartChar: question
Encoding: 63 63 34
Width: 1235
GlyphClass: 2
Flags: W
HStem: -20 264<455.191 636.324> 1414 116<420.671 728.628>
VStem: 150 15<934 960.523> 416 259<19.7072 204.293> 488 93<382 509.261> 870 215<919.04 1269.76>
LayerCount: 2
Fore
SplineSet
488 382 m 1,0,1
 488 540 488 540 610 664 c 2,2,-1
 716 772 l 2,3,4
 870 929 870 929 870 1087 c 24,5,6
 870 1215 870 1215 811 1293 c 0,7,8
 718 1414 718 1414 572 1414 c 0,9,10
 425 1414 425 1414 314 1274 c 0,11,12
 215 1149 215 1149 165 934 c 1,13,-1
 150 934 l 1,14,-1
 150 1346 l 1,15,16
 355 1530 355 1530 586 1530 c 0,17,18
 783 1530 783 1530 932 1404 c 0,19,20
 1085 1275 1085 1275 1085 1084 c 24,21,22
 1085 895 1085 895 886 735 c 2,23,-1
 694 581 l 2,24,25
 581 490 581 490 581 382 c 1,26,-1
 488 382 l 1,0,1
416 112 m 128,-1,28
 416 167 416 167 454 205.5 c 128,-1,29
 492 244 492 244 546 244 c 128,-1,30
 600 244 600 244 637.5 205.5 c 128,-1,31
 675 167 675 167 675 112 c 128,-1,32
 675 57 675 57 637.5 18.5 c 128,-1,33
 600 -20 600 -20 546 -20 c 128,-1,34
 492 -20 492 -20 454 18.5 c 128,-1,27
 416 57 416 57 416 112 c 128,-1,28
EndSplineSet
Validated: 3073
EndChar

StartChar: at
Encoding: 64 64 35
Width: 1369
GlyphClass: 2
Flags: W
HStem: -430 105<612.248 732> -20 102<702.555 891.227> 1017 103<578.564 847.105>
VStem: 150 187<34.3617 662.756> 437 189<158.803 464.307> 919 200<172.5 606 652 946.8>
LayerCount: 2
Fore
SplineSet
838 -20 m 0,0,1
 680 -20 680 -20 583 51 c 0,2,3
 437 158 437 158 437 315 c 0,4,5
 437 468 437 468 542 546 c 0,6,7
 680 649 680 649 919 652 c 1,8,-1
 919 786 l 2,9,10
 919 907 919 907 864 959 c 0,11,12
 801 1017 801 1017 707 1017 c 0,13,14
 570 1017 570 1017 458 836 c 0,15,16
 337 640 337 640 337 334 c 0,17,18
 337 15 337 15 496 -179 c 0,19,20
 604 -311 604 -311 732 -325 c 1,21,-1
 732 -430 l 1,22,23
 522 -430 522 -430 368 -276 c 0,24,25
 150 -57 150 -57 150 345 c 0,26,27
 150 763 150 763 368 966 c 0,28,29
 533 1120 533 1120 735 1120 c 0,30,31
 888 1120 888 1120 988 1048 c 0,32,33
 1119 954 1119 954 1119 785 c 2,34,-1
 1119 257 l 2,35,36
 1119 162 1119 162 1289 109 c 1,37,-1
 1289 95 l 1,38,39
 1041 -20 1041 -20 838 -20 c 0,0,1
919 606 m 1,40,41
 787 559 787 559 709 502 c 0,42,43
 626 441 626 441 626 318 c 0,44,45
 626 201 626 201 685 141.5 c 128,-1,46
 744 82 744 82 815 82 c 0,47,48
 919 82 919 82 919 256 c 2,49,-1
 919 606 l 1,40,41
EndSplineSet
Validated: 3073
EndChar

StartChar: A
Encoding: 65 65 36
Width: 1495
GlyphClass: 2
Flags: W
HStem: 0 15<5 24.1758 458.406 475 938 954.832 1470.95 1490> 541 101<501 906> 1530 20G<732.215 762.8>
DStem2: 234 250 352 248 0.362723 0.931897<-31.5392 354.246 462.151 1030.83> 755 1550 702 1174 0.363345 -0.931655<331.045 900.807 1009.44 1397.92>
LayerCount: 2
Fore
SplineSet
5 0 m 1,0,-1
 5 15 l 1,1,2
 161 62 161 62 234 250 c 2,3,-1
 740 1550 l 1,4,-1
 755 1550 l 1,5,-1
 1262 250 l 2,6,7
 1335 62 1335 62 1490 15 c 1,8,-1
 1490 0 l 1,9,-1
 938 0 l 1,10,-1
 938 15 l 1,11,12
 1077 71 1077 71 1077 174 c 0,13,14
 1076 209 1076 209 1061 248 c 2,15,-1
 946 541 l 1,16,-1
 463 541 l 1,17,-1
 352 248 l 2,18,19
 337 209 337 209 337 175 c 0,20,21
 338 71 338 71 475 15 c 1,22,-1
 475 0 l 1,23,-1
 5 0 l 1,0,-1
501 642 m 1,24,-1
 906 642 l 1,25,-1
 702 1174 l 1,26,-1
 501 642 l 1,24,-1
EndSplineSet
Validated: 1
EndChar

StartChar: B
Encoding: 66 66 37
Width: 1405
GlyphClass: 2
Flags: W
HStem: -20 101<521.878 879.942> 1430 100<518.554 825.463>
VStem: 250 200<170 1341> 924 190<1028.64 1329.97> 1069 206<274.653 627.996>
LayerCount: 2
Fore
SplineSet
450 254 m 10,0,1
 450 177 450 177 521 122 c 0,2,3
 574 81 574 81 682 81 c 0,4,5
 891 81 891 81 996 228 c 0,6,7
 1069 330 1069 330 1069 462 c 0,8,9
 1069 620 1069 620 941 725 c 0,10,11
 839 809 839 809 642 841 c 1,12,13
 760 880 760 880 836 948 c 0,14,15
 924 1028 924 1028 924 1181 c 0,16,17
 924 1285 924 1285 864 1352 c 0,18,19
 794 1430 794 1430 682 1430 c 0,20,21
 578 1430 578 1430 521 1389 c 0,22,23
 450 1338 450 1338 450 1257 c 18,24,-1
 450 254 l 10,0,1
80 92 m 1,25,26
 80 94 80 94 80 106 c 1,27,28
 250 160 250 160 250 254 c 2,29,-1
 250 1257 l 2,30,31
 250 1351 250 1351 80 1405 c 1,32,33
 80 1417 80 1417 80 1419 c 1,34,35
 334 1530 334 1530 630 1530 c 0,36,37
 888 1530 888 1530 1016 1398 c 0,38,39
 1114 1297 1114 1297 1114 1178 c 0,40,41
 1114 1053 1114 1053 1000 946 c 0,42,43
 951 900 951 900 891 865 c 1,44,45
 992 847 992 847 1086 790 c 16,46,47
 1275 677 1275 677 1275 457 c 0,48,49
 1275 258 1275 258 1094 106 c 0,50,51
 943 -20 943 -20 630 -20 c 0,52,53
 336 -20 336 -20 80 92 c 1,25,26
EndSplineSet
Validated: 3073
EndChar

StartChar: C
Encoding: 67 67 38
Width: 1349
GlyphClass: 2
Flags: W
HStem: -20 110<572.387 904.581> 1424 106<565.058 871.439>
VStem: 130 222<428.416 1080.37> 1110 139<317.391 429> 1151 15<944 965.026 1504.38 1530>
LayerCount: 2
Fore
SplineSet
1249 429 m 1,0,1
 1198 256 1198 256 1076 134 c 0,2,3
 924 -20 924 -20 712 -20 c 0,4,5
 502 -20 502 -20 348 134 c 0,6,7
 130 353 130 353 130 755 c 0,8,9
 130 1155 130 1155 348 1376 c 0,10,11
 500 1530 500 1530 694 1530 c 0,12,13
 808 1530 808 1530 938 1465 c 16,14,15
 1004 1432 1004 1432 1050 1432 c 0,16,17
 1129 1432 1129 1432 1151 1530 c 1,18,-1
 1166 1530 l 1,19,-1
 1166 944 l 1,20,-1
 1151 944 l 1,21,22
 1086 1171 1086 1171 987 1282 c 0,23,24
 860 1424 860 1424 717 1424 c 0,25,26
 566 1424 566 1424 470 1288 c 0,27,28
 352 1121 352 1121 352 757 c 0,29,30
 352 380 352 380 464 230 c 0,31,32
 570 90 570 90 748 90 c 0,33,34
 894 90 894 90 996 214 c 0,35,36
 1083 320 1083 320 1110 429 c 1,37,-1
 1249 429 l 1,0,1
EndSplineSet
Validated: 1
EndChar

StartChar: D
Encoding: 68 68 39
Width: 1504
GlyphClass: 2
Flags: W
HStem: -20 100<521.573 854.536> 1430 100<518.554 863.619>
VStem: 250 200<169 1341> 1155 219<454.488 1056.08>
LayerCount: 2
Fore
SplineSet
450 253 m 10,0,1
 450 176 450 176 521 121 c 0,2,3
 574 80 574 80 682 80 c 0,4,5
 899 80 899 80 1057 319 c 24,6,7
 1155 467 1155 467 1155 745.5 c 128,-1,8
 1155 1024 1155 1024 1057 1191 c 0,9,10
 916 1430 916 1430 682 1430 c 0,11,12
 578 1430 578 1430 521 1389 c 0,13,14
 450 1338 450 1338 450 1257 c 18,15,-1
 450 253 l 10,0,1
80 91 m 1,16,17
 80 93 80 93 80 105 c 1,18,19
 250 159 250 159 250 253 c 2,20,-1
 250 1257 l 2,21,22
 250 1351 250 1351 80 1405 c 1,23,24
 80 1417 80 1417 80 1419 c 1,25,26
 334 1530 334 1530 630 1530 c 0,27,28
 997 1530 997 1530 1212 1274 c 0,29,30
 1374 1081 1374 1081 1374 754 c 0,31,32
 1374 430 1374 430 1212 236 c 0,33,34
 997 -20 997 -20 630 -20 c 0,35,36
 334 -20 334 -20 80 91 c 1,16,17
EndSplineSet
Validated: 3073
EndChar

StartChar: E
Encoding: 69 69 40
Width: 1362
GlyphClass: 2
Flags: W
HStem: 0 102<466.365 1051.1> 0 15<80 100.586> 541 101<450 708.479> 1408 102<466.365 921.098> 1495 15<80 100.586>
VStem: 250 200<103.789 541 642 1406.18>
LayerCount: 2
Fore
SplineSet
80 0 m 1,0,-1
 80 15 l 1,1,2
 250 60 250 60 250 249 c 2,3,-1
 250 1260 l 2,4,5
 250 1450 250 1450 80 1495 c 1,6,-1
 80 1510 l 1,7,-1
 1006 1510 l 1,8,-1
 1192 1188 l 1,9,-1
 1177 1188 l 1,10,11
 965 1408 965 1408 698 1408 c 2,12,-1
 488 1408 l 1,13,14
 450 1350 450 1350 450 1260 c 2,15,-1
 450 642 l 1,16,-1
 614 642 l 2,17,18
 834 642 834 642 1017 833 c 1,19,-1
 1032 833 l 1,20,-1
 763 361 l 1,21,-1
 748 361 l 1,22,23
 748 541 748 541 614 541 c 2,24,-1
 450 541 l 1,25,-1
 450 249 l 2,26,27
 450 159 450 159 488 102 c 9,28,-1
 828 102 l 2,29,30
 1095 102 1095 102 1307 322 c 1,31,-1
 1322 322 l 1,32,-1
 1136 0 l 1,33,-1
 80 0 l 1,0,-1
EndSplineSet
Validated: 1
EndChar

StartChar: F
Encoding: 70 70 41
Width: 1232
GlyphClass: 2
Flags: W
HStem: 0 15<80 100.586 599.414 620> 539 101<450 708.479> 1408 102<466.365 921.098> 1495 15<80 100.586>
VStem: 250 200<95.5 539 640 1406.18>
LayerCount: 2
Fore
SplineSet
80 0 m 1,0,-1
 80 15 l 1,1,2
 250 59 250 59 250 249 c 2,3,-1
 250 1260 l 2,4,5
 250 1450 250 1450 80 1495 c 1,6,-1
 80 1510 l 1,7,-1
 1006 1510 l 1,8,-1
 1192 1188 l 1,9,-1
 1177 1188 l 1,10,11
 965 1408 965 1408 698 1408 c 2,12,-1
 488 1408 l 1,13,14
 450 1350 450 1350 450 1260 c 2,15,-1
 450 640 l 1,16,-1
 614 640 l 2,17,18
 834 640 834 640 1017 831 c 1,19,-1
 1032 831 l 1,20,-1
 763 359 l 1,21,-1
 748 359 l 1,22,23
 748 539 748 539 614 539 c 2,24,-1
 450 539 l 1,25,-1
 450 249 l 2,26,27
 450 59 450 59 620 15 c 1,28,-1
 620 0 l 1,29,-1
 80 0 l 1,0,-1
EndSplineSet
Validated: 1
EndChar

StartChar: G
Encoding: 71 71 42
Width: 1349
GlyphClass: 2
Flags: W
HStem: -20 105<567.91 885.942> 633 15<769 809.69> 1424 106<560.781 871.439>
VStem: 130 222<432.874 1077.28> 1040 249<401.712 535.829> 1151 15<944 965.116 1504.38 1530>
LayerCount: 2
Fore
SplineSet
1289 648 m 17,0,1
 1289 364 1289 364 1076 134 c 0,2,3
 932 -20 932 -20 712 -20 c 0,4,5
 500 -20 500 -20 348 134 c 0,6,7
 130 356 130 356 130 755 c 0,8,9
 130 1153 130 1153 348 1376 c 0,10,11
 500 1530 500 1530 694 1530 c 0,12,13
 808 1530 808 1530 938 1465 c 16,14,15
 1004 1432 1004 1432 1050 1432 c 0,16,17
 1129 1432 1129 1432 1151 1530 c 1,18,-1
 1166 1530 l 1,19,-1
 1166 944 l 1,20,-1
 1151 944 l 1,21,22
 1086 1172 1086 1172 987 1282 c 0,23,24
 860 1424 860 1424 717 1424 c 0,25,26
 560 1424 560 1424 470 1288 c 0,27,28
 352 1112 352 1112 352 754 c 0,29,30
 352 380 352 380 464 230 c 0,31,32
 572 85 572 85 712 85 c 0,33,34
 880 85 880 85 970 206 c 0,35,36
 1040 300 1040 300 1040 408 c 0,37,38
 1040 596 1040 596 769 633 c 1,39,40
 769 638 769 638 769 648 c 1,41,-1
 1289 648 l 17,0,1
EndSplineSet
Validated: 1
EndChar

StartChar: H
Encoding: 72 72 43
Width: 1547
GlyphClass: 2
Flags: W
HStem: 0 15<80 100.586 599.414 620 928 948.465 1446.41 1467> 541 101<450 1097> 1495 15<80 100.586 599.414 620 928 948.465 1446.41 1467>
VStem: 250 200<96 541 642 1413.75> 1097 200<95.5 541 642 1413.75>
LayerCount: 2
Fore
SplineSet
80 0 m 1,0,-1
 80 15 l 1,1,2
 250 60 250 60 250 249 c 2,3,-1
 250 1260 l 2,4,5
 250 1451 250 1451 80 1495 c 1,6,-1
 80 1510 l 1,7,-1
 620 1510 l 1,8,-1
 620 1495 l 1,9,10
 450 1450 450 1450 450 1260 c 2,11,-1
 450 642 l 1,12,-1
 1097 642 l 1,13,-1
 1097 1260 l 2,14,15
 1097 1451 1097 1451 928 1495 c 1,16,-1
 928 1510 l 1,17,-1
 1467 1510 l 1,18,-1
 1467 1495 l 1,19,20
 1297 1450 1297 1450 1297 1260 c 2,21,-1
 1297 249 l 2,22,23
 1297 59 1297 59 1467 15 c 1,24,-1
 1467 0 l 1,25,-1
 928 0 l 1,26,-1
 928 15 l 1,27,28
 1097 60 1097 60 1097 249 c 2,29,-1
 1097 541 l 1,30,-1
 450 541 l 1,31,-1
 450 249 l 2,32,33
 450 59 450 59 620 15 c 1,34,-1
 620 0 l 1,35,-1
 80 0 l 1,0,-1
EndSplineSet
Validated: 1
EndChar

StartChar: I
Encoding: 73 73 44
Width: 700
GlyphClass: 2
Flags: W
HStem: 0 15<80 100.586 599.414 620> 1495 15<80 100.586 599.414 620>
VStem: 250 200<96 1413.75>
LayerCount: 2
Fore
SplineSet
80 0 m 1,0,1
 80 9 80 9 80 15 c 1,2,3
 250 60 250 60 250 249 c 2,4,-1
 250 1260 l 2,5,6
 250 1451 250 1451 80 1495 c 1,7,8
 80 1502 80 1502 80 1510 c 1,9,10
 620 1510 l 1,11,-1
 620 1495 l 1,12,13
 450 1450 450 1450 450 1260 c 2,14,-1
 450 249 l 2,15,16
 450 59 450 59 620 15 c 1,17,-1
 620 0 l 1,18,-1
 80 0 l 1,0,1
EndSplineSet
Validated: 1
EndChar

StartChar: J
Encoding: 74 74 45
Width: 700
GlyphClass: 2
Flags: W
HStem: 1495 15<80 100.586 599.414 620>
VStem: 250 200<-15.397 1413.75>
LayerCount: 2
Fore
SplineSet
80 1510 m 1,0,-1
 620 1510 l 1,1,-1
 620 1495 l 1,2,3
 450 1450 450 1450 450 1260 c 2,4,-1
 450 249 l 2,5,6
 450 -210 450 -210 60 -327 c 1,7,-1
 60 -312 l 1,8,9
 250 -111 250 -111 250 249 c 2,10,-1
 250 1260 l 2,11,12
 250 1451 250 1451 80 1495 c 1,13,14
 80 1501 80 1501 80 1510 c 1,0,-1
EndSplineSet
Validated: 1
EndChar

StartChar: K
Encoding: 75 75 46
Width: 1501
GlyphClass: 2
Flags: W
HStem: -123 170<1243.89 1375.7> 0 15<80 100.586 599.414 620> 544 117<629.073 764.988> 1495 15<80 100.586 599.414 620 880 899.519>
VStem: 250 200<96 468.316 590 1413.75> 1486 10<150.6 158>
DStem2: 450 590 450 420 0.612572 0.790415<0 42.4041 148.559 961.458> 1054 460 854 382 0.45109 -0.892479<-190.815 478.789>
LayerCount: 2
Fore
SplineSet
80 0 m 1,0,-1
 80 15 l 1,1,2
 250 60 250 60 250 249 c 2,3,-1
 250 1260 l 2,4,5
 250 1451 250 1451 80 1495 c 1,6,-1
 80 1510 l 1,7,-1
 620 1510 l 1,8,-1
 620 1495 l 1,9,10
 450 1450 450 1450 450 1260 c 2,11,-1
 450 590 l 1,12,-1
 967 1267 l 2,13,14
 1010 1323 1010 1323 1010 1374 c 0,15,16
 1010 1456 1010 1456 880 1495 c 1,17,-1
 880 1510 l 1,18,-1
 1350 1510 l 1,19,-1
 1350 1495 l 1,20,21
 1231 1430 1231 1430 1101 1260 c 2,22,-1
 628 640 l 1,23,24
 677 661 677 661 744 661 c 0,25,26
 956 661 956 661 1054 460 c 2,27,-1
 1211 139 l 2,28,29
 1256 47 1256 47 1342 47 c 0,30,31
 1396 47 1396 47 1440 94 c 0,32,33
 1468 124 1468 124 1486 158 c 1,34,-1
 1496 158 l 1,35,36
 1484 39 1484 39 1414 -42 c 128,-1,37
 1344 -123 1344 -123 1249 -123 c 0,38,39
 1109 -123 1109 -123 1040 14 c 2,40,-1
 854 382 l 2,41,42
 772 544 772 544 655 544 c 0,43,44
 549 544 549 544 450 420 c 1,45,-1
 450 249 l 2,46,47
 450 59 450 59 620 15 c 1,48,-1
 620 0 l 1,49,-1
 80 0 l 1,0,-1
EndSplineSet
Validated: 1
EndChar

StartChar: L
Encoding: 76 76 47
Width: 1246
GlyphClass: 2
Flags: W
HStem: 0 102<466.365 970.098> 0 15<80 100.586> 1495 15<80 100.586 599.414 620>
VStem: 250 200<103.789 1413.75>
LayerCount: 2
Fore
SplineSet
80 0 m 1,0,-1
 80 15 l 1,1,2
 250 60 250 60 250 249 c 2,3,-1
 250 1260 l 2,4,5
 250 1451 250 1451 80 1495 c 1,6,-1
 80 1510 l 1,7,-1
 620 1510 l 1,8,-1
 620 1495 l 1,9,10
 450 1450 450 1450 450 1260 c 2,11,-1
 450 249 l 2,12,13
 450 159 450 159 488 102 c 1,14,-1
 747 102 l 2,15,16
 1014 102 1014 102 1226 322 c 1,17,-1
 1241 322 l 1,18,-1
 1055 0 l 1,19,-1
 80 0 l 1,0,-1
EndSplineSet
Validated: 1
EndChar

StartChar: M
Encoding: 77 77 48
Width: 1902
GlyphClass: 2
Flags: W
HStem: -40 21G<902.386 934.404> 0 15<5 22.5415 479.711 495 1309 1325.75 1879.46 1897> 1530 20G<413 439.564 1462.7 1489>
DStem2: 221 250 331 246 0.14834 0.988936<-24.1173 803.511> 431 1550 451 1028 0.393649 -0.919261<487.727 1341.3> 959 317 926 -40 0.383498 0.923542<0 806.327> 1486 1550 1371 1019 0.14834 -0.988936<508.066 1324.55>
LayerCount: 2
Fore
SplineSet
5 0 m 9,0,-1
 5 15 l 17,1,2
 196 84 196 84 221 250 c 2,3,-1
 416 1550 l 1,4,-1
 431 1550 l 1,5,-1
 959 317 l 1,6,-1
 1471 1550 l 1,7,-1
 1486 1550 l 1,8,-1
 1681 250 l 2,9,10
 1706 84 1706 84 1897 15 c 1,11,12
 1897 9 1897 9 1897 0 c 1,13,-1
 1309 0 l 1,14,-1
 1309 15 l 1,15,16
 1492 74 1492 74 1492 211 c 0,17,18
 1492 228 1492 228 1489 246 c 2,19,-1
 1371 1019 l 1,20,-1
 926 -40 l 1,21,-1
 911 -40 l 1,22,-1
 451 1028 l 1,23,-1
 331 246 l 2,24,25
 328 227 328 227 328 209 c 0,26,27
 328 73 328 73 495 15 c 1,28,-1
 495 0 l 1,29,-1
 5 0 l 9,0,-1
EndSplineSet
Validated: 1
EndChar

StartChar: N
Encoding: 78 78 49
Width: 1565
GlyphClass: 2
Flags: W
HStem: -40 21G<1283.66 1315> 0 15<80 100.586 511.414 532> 1495 15<1033 1053.59 1464.41 1485> 1530 20G<250 282.453>
VStem: 250 112<96 1108> 1203 112<411 1413.75>
DStem2: 266 1550 362 1108 0.632723 -0.774378<403.016 1474.88>
LayerCount: 2
Fore
SplineSet
80 0 m 1,0,1
 80 9 80 9 80 15 c 1,2,3
 250 60 250 60 250 249 c 2,4,-1
 250 1550 l 1,5,-1
 266 1550 l 1,6,-1
 1203 411 l 9,7,-1
 1203 1260 l 2,8,9
 1203 1450 1203 1450 1033 1495 c 1,10,-1
 1033 1510 l 1,11,-1
 1485 1510 l 1,12,13
 1485 1501 1485 1501 1485 1495 c 1,14,15
 1315 1450 1315 1450 1315 1260 c 2,16,-1
 1315 -40 l 1,17,-1
 1300 -40 l 1,18,-1
 362 1108 l 25,19,-1
 362 249 l 2,20,21
 362 59 362 59 532 15 c 1,22,-1
 532 0 l 1,23,-1
 80 0 l 1,0,1
EndSplineSet
Validated: 1
EndChar

StartChar: O
Encoding: 79 79 50
Width: 1424
GlyphClass: 2
Flags: MW
LayerCount: 2
Fore
SplineSet
338 727 m 0,0,1
 338 570 338 570 370 462 c 1,2,3
 419 268 419 268 502 178 c 0,4,5
 593 80 593 80 712 80 c 0,6,7
 714 80 714 80 715 80 c 0,8,9
 717 80 717 80 718 80 c 0,10,11
 821 80 821 80 930 180 c 1,12,13
 1006 274 1006 274 1045 417 c 0,14,15
 1084 559 1084 559 1084 727 c 0,16,17
 1084 741 1084 741 1084 758 c 0,18,19
 1084 945 1084 945 1045 1069 c 1,20,21
 996 1253 996 1253 910 1346 c 0,22,23
 831 1431 831 1431 713 1431 c 0,24,-1
 711 1431 l 0,25,26
 594 1431 594 1431 520 1364 c 1,27,28
 431 1292 431 1292 382 1096 c 0,29,30
 338 918 338 918 338 727 c 0,0,1
130 744 m 128,-1,32
 130 908 130 908 174 1060 c 128,-1,33
 218 1212 218 1212 294 1314 c 0,34,35
 370 1415 370 1415 474 1475.5 c 128,-1,36
 578 1536 578 1536 712 1536 c 128,-1,37
 846 1536 846 1536 950 1475.5 c 128,-1,38
 1054 1415 1054 1415 1130 1314 c 0,39,40
 1206 1212 1206 1212 1250 1060 c 128,-1,41
 1294 908 1294 908 1294 744 c 128,-1,42
 1294 580 1294 580 1250 439.5 c 128,-1,43
 1206 299 1206 299 1130 197 c 0,44,45
 1054 96 1054 96 950 35.5 c 128,-1,46
 846 -25 846 -25 712 -25 c 128,-1,47
 578 -25 578 -25 474 35.5 c 128,-1,48
 370 96 370 96 294 197 c 0,49,50
 218 299 218 299 174 439.5 c 128,-1,31
 130 580 130 580 130 744 c 128,-1,32
EndSplineSet
Validated: 1
EndChar

StartChar: P
Encoding: 80 80 51
Width: 1396
GlyphClass: 2
Flags: W
HStem: 0 15<80 100.586 599.414 620> 458 100<559.371 887.874> 1430 100<518.554 865.338>
VStem: 250 200<96 565 658.967 1341> 1051 215<769.105 1213.6>
LayerCount: 2
Fore
SplineSet
450 717 m 1,0,1
 548 558 548 558 717 558 c 0,2,3
 901 558 901 558 985 704 c 0,4,5
 1051 820 1051 820 1051 999 c 0,6,7
 1051 1176 1051 1176 980 1279 c 0,8,9
 877 1430 877 1430 682 1430 c 0,10,11
 578 1430 578 1430 521 1389 c 0,12,13
 450 1338 450 1338 450 1257 c 18,14,-1
 450 717 l 1,0,1
80 0 m 1,15,-1
 80 15 l 1,16,17
 250 60 250 60 250 249 c 2,18,-1
 250 1257 l 2,19,20
 250 1351 250 1351 80 1405 c 1,21,22
 80 1417 80 1417 80 1419 c 1,23,24
 334 1530 334 1530 630 1530 c 0,25,26
 932 1530 932 1530 1094 1383 c 0,27,28
 1266 1228 1266 1228 1266 1009 c 0,29,30
 1266 791 1266 791 1151 654 c 0,31,32
 985 458 985 458 758 458 c 0,33,34
 585 458 585 458 450 565 c 1,35,-1
 450 249 l 2,36,37
 450 59 450 59 620 15 c 1,38,-1
 620 0 l 1,39,-1
 80 0 l 1,15,-1
EndSplineSet
Validated: 3073
EndChar

StartChar: Q
Encoding: 81 81 52
Width: 1424
GlyphClass: 2
Flags: W
HStem: -121 137<1130.68 1281.62> -20 105<628.401 862.804> 209 137<693.01 875.407> 1425 105<564.897 857.382>
VStem: 130 218<428.319 1078.44> 1076 218<437.191 1077.01> 1352 10<143.327 158>
LayerCount: 2
Fore
SplineSet
1076 755 m 0,0,1
 1076 1126 1076 1126 948 1294 c 0,2,3
 848 1425 848 1425 712 1425 c 0,4,5
 568 1425 568 1425 476 1294 c 0,6,7
 348 1112 348 1112 348 755 c 0,8,9
 348 388 348 388 476 216 c 0,10,11
 528 146 528 146 594 114 c 1,12,13
 618 205 618 205 663 268 c 0,14,15
 719 346 719 346 817 346 c 0,16,17
 899 346 899 346 976 268 c 1,18,19
 1076 446 1076 446 1076 755 c 0,0,1
948 42 m 1,20,21
 860 -20 860 -20 712 -20 c 0,22,23
 501 -19 501 -19 348 134 c 0,24,25
 130 353 130 353 130 755 c 0,26,27
 130 1154 130 1154 348 1376 c 0,28,29
 499 1530 499 1530 712 1530 c 0,30,31
 926 1530 926 1530 1076 1376 c 0,32,33
 1294 1151 1294 1151 1294 755 c 0,34,35
 1294 356 1294 356 1072 136 c 1,36,37
 1149 16 1149 16 1209 16 c 0,38,39
 1266 16 1266 16 1310 77 c 0,40,41
 1343 123 1343 123 1352 158 c 1,42,-1
 1362 158 l 1,43,44
 1362 37 1362 37 1311 -41 c 0,45,46
 1256 -121 1256 -121 1177 -121 c 0,47,48
 1042 -121 1042 -121 948 42 c 1,20,21
627 101 m 1,49,50
 663 85 663 85 712 85 c 0,51,52
 812 85 812 85 890 149 c 1,53,54
 840 209 840 209 769 209 c 0,55,56
 695 209 695 209 642 127 c 0,57,58
 631 110 631 110 627 101 c 1,49,50
EndSplineSet
Validated: 3073
EndChar

StartChar: R
Encoding: 82 82 53
Width: 1501
GlyphClass: 2
Flags: W
HStem: -123 163<1238.49 1375.83> 0 15<80 100.586 599.414 620> 1430 100<518.554 864.843>
VStem: 250 200<96 565 658.967 1341> 1051 215<768.871 1213.15> 1486 10<150.66 158>
DStem2: 1112 324 900 296 0.444671 -0.895694<-143.917 332.428>
LayerCount: 2
Fore
SplineSet
80 0 m 1,0,-1
 80 15 l 1,1,2
 250 60 250 60 250 249 c 2,3,-1
 250 1257 l 2,4,5
 250 1351 250 1351 80 1405 c 1,6,-1
 80 1419 l 1,7,8
 334 1530 334 1530 630 1530 c 0,9,10
 931 1530 931 1530 1094 1383 c 0,11,12
 1266 1227 1266 1227 1266 1009 c 0,13,14
 1266 790 1266 790 1151 654 c 0,15,16
 1037 519 1037 519 894 477 c 1,17,18
 1055 443 1055 443 1112 324 c 2,19,-1
 1202 138 l 2,20,21
 1249 40 1249 40 1332 40 c 0,22,23
 1402 40 1402 40 1439 86 c 0,24,25
 1469 124 1469 124 1486 158 c 1,26,-1
 1496 158 l 1,27,28
 1484 40 1484 40 1414 -42 c 0,29,30
 1345 -123 1345 -123 1249 -123 c 0,31,32
 1108 -123 1108 -123 1040 14 c 2,33,-1
 900 296 l 2,34,35
 828 441 828 441 724 459 c 1,36,37
 572 469 572 469 450 565 c 1,38,-1
 450 249 l 2,39,40
 450 59 450 59 620 15 c 1,41,-1
 620 0 l 1,42,-1
 80 0 l 1,0,-1
450 717 m 1,43,44
 548 558 548 558 717 558 c 0,45,46
 901 558 901 558 985 704 c 0,47,48
 1051 820 1051 820 1051 999 c 0,49,50
 1051 1175 1051 1175 980 1279 c 0,51,52
 876 1430 876 1430 682 1430 c 0,53,54
 578 1430 578 1430 521 1389 c 0,55,56
 450 1338 450 1338 450 1257 c 2,57,-1
 450 717 l 1,43,44
EndSplineSet
Validated: 3073
EndChar

StartChar: S
Encoding: 83 83 54
Width: 1286
GlyphClass: 2
Flags: W
HStem: -20 100<440.575 809.819> 1434 96<476.168 748.478>
VStem: 120 15<-20 5.62451 543.812 566> 222 174<1103.59 1338.28> 974 15<944 965.201 1499.67 1530> 996 190<263.812 561.432>
DStem2: 561 1021 475 823 0.913604 -0.406604<-174.493 545.659>
LayerCount: 2
Fore
SplineSet
120 -20 m 1,0,-1
 120 566 l 1,1,-1
 135 566 l 1,2,3
 203 326 203 326 299 228 c 0,4,5
 444 80 444 80 638 80 c 0,6,7
 791 80 791 80 912 202 c 0,8,9
 996 286 996 286 996 424 c 0,10,11
 996 584 996 584 815 667 c 2,12,-1
 475 823 l 2,13,14
 222 939 222 939 222 1174 c 0,15,16
 222 1316 222 1316 338 1430 c 0,17,18
 443 1530 443 1530 614 1530 c 0,19,20
 743 1530 743 1530 839 1445 c 16,21,22
 874 1414 874 1414 901 1414 c 0,23,24
 952 1414 952 1414 974 1530 c 1,25,-1
 989 1530 l 1,26,-1
 989 944 l 1,27,-1
 974 944 l 1,28,29
 902 1173 902 1173 840 1280 c 0,30,31
 752 1434 752 1434 622 1434 c 0,32,33
 522 1434 522 1434 459 1376 c 128,-1,34
 396 1318 396 1318 396 1216 c 0,35,36
 396 1095 396 1095 561 1021 c 10,37,-1
 925 859 l 18,38,39
 1186 742 1186 742 1186 463 c 0,40,41
 1186 256 1186 256 1020 106 c 24,42,43
 881 -20 881 -20 636 -20 c 0,44,45
 478 -20 478 -20 348 45 c 16,46,47
 282 78 282 78 236 78 c 0,48,49
 157 78 157 78 135 -20 c 1,50,-1
 120 -20 l 1,0,-1
EndSplineSet
Validated: 1
EndChar

StartChar: T
Encoding: 84 84 55
Width: 1365
GlyphClass: 2
Flags: W
HStem: 0 15<413 433.586 932.414 953> 1408 102<275.41 566.635 799.365 1089.41>
VStem: 583 200<96 1406.18>
LayerCount: 2
Fore
SplineSet
413 0 m 1,0,-1
 413 15 l 1,1,2
 583 60 583 60 583 249 c 2,3,-1
 583 1260 l 2,4,5
 583 1350 583 1350 545 1408 c 1,6,-1
 499 1408 l 2,7,8
 231 1408 231 1408 20 1188 c 1,9,-1
 5 1188 l 1,10,-1
 191 1510 l 1,11,-1
 1175 1510 l 1,12,-1
 1360 1188 l 1,13,-1
 1345 1188 l 1,14,15
 1133 1408 1133 1408 867 1408 c 2,16,-1
 821 1408 l 1,17,18
 783 1350 783 1350 783 1260 c 2,19,-1
 783 249 l 2,20,21
 783 59 783 59 953 15 c 1,22,-1
 953 0 l 1,23,-1
 413 0 l 1,0,-1
EndSplineSet
Validated: 1
EndChar

StartChar: U
Encoding: 85 85 56
Width: 1547
GlyphClass: 2
Flags: W
HStem: -20 143<629.265 990.754> 1495 15<80 100.586 599.414 620 1015 1035.71 1446.41 1467>
VStem: 250 200<303.464 1413.75> 1186 111<318.25 1413.75>
LayerCount: 2
Fore
SplineSet
80 1510 m 1,0,-1
 620 1510 l 1,1,-1
 620 1495 l 1,2,3
 450 1450 450 1450 450 1260 c 2,4,-1
 450 495 l 2,5,6
 450 322 450 322 550 227 c 0,7,8
 659 123 659 123 805 123 c 0,9,10
 972 124 972 124 1078 232 c 0,11,12
 1186 342 1186 342 1186 495 c 2,13,-1
 1186 1260 l 2,14,15
 1186 1451 1186 1451 1015 1495 c 1,16,17
 1015 1502 1015 1502 1015 1510 c 1,18,-1
 1467 1510 l 1,19,-1
 1467 1495 l 1,20,21
 1297 1450 1297 1450 1297 1260 c 2,22,-1
 1297 495 l 2,23,24
 1297 279 1297 279 1145 127 c 24,25,26
 998 -20 998 -20 780 -20 c 0,27,28
 558 -20 558 -20 404 126.5 c 128,-1,29
 250 273 250 273 250 495 c 2,30,-1
 250 1260 l 2,31,32
 250 1451 250 1451 80 1495 c 1,33,34
 80 1501 80 1501 80 1510 c 1,0,-1
EndSplineSet
Validated: 1
EndChar

StartChar: V
Encoding: 86 86 57
Width: 1495
GlyphClass: 2
Flags: W
HStem: -40 21G<732.2 762.785> 1495 15<5 24.1719 540.168 557 1020 1036.71 1470.71 1490>
DStem2: 799 357 233 1260 0.363345 -0.931655<-1049.53 0> 799 357 755 -40 0.362723 0.931897<0 1040.62>
LayerCount: 2
Fore
SplineSet
5 1510 m 1,0,-1
 557 1510 l 1,1,-1
 557 1495 l 1,2,3
 418 1439 418 1439 418 1336 c 0,4,5
 418 1302 418 1302 434 1262 c 2,6,-1
 799 357 l 1,7,-1
 1143 1262 l 2,8,9
 1158 1301 1158 1301 1158 1335 c 0,10,11
 1158 1440 1158 1440 1020 1495 c 1,12,-1
 1020 1510 l 1,13,-1
 1490 1510 l 1,14,15
 1490 1501 1490 1501 1490 1495 c 1,16,17
 1333 1446 1333 1446 1261 1260 c 2,18,-1
 755 -40 l 1,19,-1
 740 -40 l 1,20,-1
 233 1260 l 2,21,22
 161 1446 161 1446 5 1495 c 1,23,24
 5 1501 5 1501 5 1510 c 1,0,-1
EndSplineSet
Validated: 3073
EndChar

StartChar: W
Encoding: 87 87 58
Width: 2026
GlyphClass: 2
Flags: W
HStem: -40 21G<732.2 762.771 1263.23 1293.78> 1495 15<5 24.0547 540.168 557 1551 1567.71 2001.82 2021>
VStem: 668 190<1320 1510> 1238 118<1392 1510>
DStem2: 794 339 233 1260 0.363345 -0.931655<-1064.51 0> 858 1510 668 1510 0.362562 -0.93196<0 531.864 689.528 727.408 881.913 1275.81> 794 339 1013 624 0.361517 0.932365<0 344.896 721.895 1252.31> 1318 320 1286 -40 0.362723 0.931897<0 1079.45>
LayerCount: 2
Fore
SplineSet
5 1510 m 1,0,-1
 557 1510 l 1,1,-1
 557 1495 l 1,2,3
 418 1439 418 1439 418 1336 c 0,4,5
 418 1303 418 1303 434 1262 c 2,6,-1
 794 339 l 1,7,-1
 957 768 l 1,8,-1
 668 1510 l 1,9,-1
 858 1510 l 1,10,-1
 1050 1014 l 1,11,-1
 1238 1510 l 1,12,-1
 1356 1510 l 1,13,-1
 1107 867 l 1,14,-1
 1318 320 l 1,15,-1
 1674 1262 l 2,16,17
 1689 1301 1689 1301 1689 1335 c 0,18,19
 1689 1439 1689 1439 1551 1495 c 1,20,-1
 1551 1510 l 1,21,-1
 2021 1510 l 1,22,-1
 2021 1495 l 1,23,24
 1865 1448 1865 1448 1792 1260 c 2,25,-1
 1286 -40 l 1,26,-1
 1271 -40 l 1,27,-1
 1013 624 l 1,28,-1
 755 -40 l 1,29,-1
 740 -40 l 1,30,-1
 233 1260 l 2,31,32
 160 1448 160 1448 5 1495 c 1,33,-1
 5 1510 l 1,0,-1
EndSplineSet
Validated: 1
EndChar

StartChar: X
Encoding: 88 88 59
Width: 1383
GlyphClass: 2
Flags: W
HStem: 0 15<5 21.7146 519.23 538 754 772.285 1360.12 1378> 1495 15<5 27.2148 610.836 629 845 863.891 1357.89 1378>
DStem2: 717 886 292 1260 0.500092 -0.865972<-520.585 0 201.246 722.491> 292 249 415 248 0.555079 0.831798<-23.2781 517.582 765.764 1309.95>
LayerCount: 2
Fore
SplineSet
5 0 m 1,0,-1
 5 15 l 1,1,2
 185 89 185 89 292 249 c 2,3,-1
 602 714 l 2,4,-1
 292 1260 l 2,5,6
 185 1448 185 1448 5 1495 c 1,7,-1
 5 1510 l 1,8,-1
 629 1510 l 1,9,-1
 629 1495 l 1,10,11
 479 1445 479 1445 479 1351 c 0,12,13
 479 1310 479 1310 506 1262 c 2,14,-1
 717 886 l 2,15,-1
 968 1262 l 2,16,17
 1001 1311 1001 1311 1001 1352 c 0,18,19
 1001 1442 1001 1442 845 1495 c 1,20,-1
 845 1510 l 1,21,-1
 1378 1510 l 1,22,-1
 1378 1495 l 1,23,24
 1216 1446 1216 1446 1091 1260 c 2,25,-1
 780 796 l 2,26,-1
 1091 249 l 2,27,28
 1185 83 1185 83 1378 15 c 1,29,-1
 1378 0 l 1,30,-1
 754 0 l 1,31,-1
 754 15 l 1,32,33
 905 65 905 65 905 159 c 0,34,35
 905 199 905 199 877 248 c 2,36,-1
 664 623 l 2,37,-1
 415 248 l 2,38,39
 383 200 383 200 383 159 c 0,40,41
 383 69 383 69 538 15 c 1,42,-1
 538 0 l 1,43,-1
 5 0 l 1,0,-1
EndSplineSet
Validated: 1
EndChar

StartChar: Y
Encoding: 89 89 60
Width: 1385
GlyphClass: 2
Flags: W
HStem: 0 15<423 443.465 941.535 962> 1495 15<5 22.4141 549.562 567 910 927.559 1362.23 1380>
VStem: 592 201<95.5 507>
DStem2: 736 620 233 1260 0.431285 -0.902216<-789.8 0> 736 620 793 507 0.429375 0.903126<0 793.342>
LayerCount: 2
Fore
SplineSet
423 0 m 1,0,1
 423 9 423 9 423 15 c 1,2,3
 592 60 592 60 592 249 c 2,4,-1
 592 509 l 1,5,-1
 233 1260 l 2,6,7
 146 1443 146 1443 5 1495 c 1,8,-1
 5 1510 l 1,9,-1
 567 1510 l 1,10,-1
 567 1495 l 1,11,12
 423 1447 423 1447 423 1347 c 0,13,14
 423 1308 423 1308 444 1262 c 2,15,-1
 736 620 l 1,16,-1
 1033 1262 l 2,17,18
 1055 1309 1055 1309 1055 1348 c 0,19,20
 1055 1447 1055 1447 910 1495 c 1,21,-1
 910 1510 l 1,22,-1
 1380 1510 l 1,23,-1
 1380 1495 l 1,24,25
 1236 1440 1236 1440 1151 1260 c 2,26,-1
 793 507 l 1,27,-1
 793 249 l 2,28,29
 793 59 793 59 962 15 c 1,30,-1
 962 0 l 1,31,-1
 423 0 l 1,0,1
EndSplineSet
Validated: 1
EndChar

StartChar: Z
Encoding: 90 90 61
Width: 1346
GlyphClass: 2
Flags: W
HStem: 0 102<344 1025.59> 1408 102<376.711 888>
DStem2: 50 0 344 102 0.511441 0.859318<238.014 1638.51>
LayerCount: 2
Fore
SplineSet
50 0 m 1,0,-1
 888 1408 l 1,1,-1
 600 1408 l 2,2,3
 333 1408 333 1408 120 1188 c 1,4,-1
 106 1188 l 1,5,-1
 292 1510 l 1,6,-1
 1178 1510 l 1,7,-1
 344 102 l 1,8,-1
 802 102 l 2,9,10
 1070 102 1070 102 1281 322 c 1,11,-1
 1296 322 l 1,12,-1
 1110 0 l 1,13,-1
 50 0 l 1,0,-1
EndSplineSet
Validated: 1
EndChar

StartChar: bracketleft
Encoding: 91 91 62
Width: 815
GlyphClass: 2
Flags: W
HStem: -300 115<437 765> 1690 120<437 765>
VStem: 250 187<-185 1690>
LayerCount: 2
Fore
SplineSet
250 -300 m 9,0,-1
 250 1810 l 17,1,-1
 765 1810 l 1,2,-1
 765 1690 l 1,3,-1
 437 1690 l 1,4,-1
 437 -185 l 1,5,-1
 765 -185 l 1,6,-1
 765 -300 l 1,7,-1
 250 -300 l 9,0,-1
EndSplineSet
Validated: 3073
EndChar

StartChar: backslash
Encoding: 92 92 63
Width: 1065
GlyphClass: 2
Flags: W
DStem2: 147 1660 10 1596 0.462583 -0.886576<0 1962.67>
LayerCount: 2
Fore
SplineSet
147 1660 m 1,0,-1
 1055 -80 l 1,1,-1
 921 -150 l 1,2,-1
 10 1596 l 1,3,-1
 147 1660 l 1,0,-1
EndSplineSet
Validated: 3073
EndChar

StartChar: bracketright
Encoding: 93 93 64
Width: 815
GlyphClass: 2
Flags: W
HStem: -300 115<50 378> 1690 120<50 378>
VStem: 378 187<-185 1690>
LayerCount: 2
Fore
SplineSet
50 -300 m 1,0,-1
 50 -185 l 1,1,-1
 378 -185 l 1,2,-1
 378 1690 l 1,3,-1
 50 1690 l 1,4,-1
 50 1810 l 1,5,-1
 565 1810 l 9,6,-1
 565 -300 l 17,7,-1
 50 -300 l 1,0,-1
EndSplineSet
Validated: 3073
EndChar

StartChar: asciicircum
Encoding: 94 94 65
Width: 1269
GlyphClass: 2
Flags: W
HStem: 1049 501
DStem2: 208 1144 302 1051 0.74831 0.663349<8.64968 437.912> 666 1550 623 1336 0.726146 -0.687541<115.909 528.899>
LayerCount: 2
Fore
SplineSet
208 1144 m 1,0,-1
 666 1550 l 1,1,-1
 1061 1176 l 1,2,-1
 920 1049 l 1,3,-1
 623 1336 l 1,4,-1
 302 1051 l 1,5,-1
 208 1144 l 1,0,-1
EndSplineSet
Validated: 3073
EndChar

StartChar: underscore
Encoding: 95 95 66
Width: 1233
GlyphClass: 2
Flags: W
HStem: -200 150<200 1033>
LayerCount: 2
Fore
SplineSet
200 -50 m 1,0,-1
 1033 -50 l 1,1,-1
 1033 -200 l 1,2,-1
 200 -200 l 1,3,-1
 200 -50 l 1,0,-1
EndSplineSet
Validated: 3073
EndChar

StartChar: grave
Encoding: 96 96 67
Width: 810
GlyphClass: 2
Flags: W
HStem: 1153 397
VStem: 200 410
LayerCount: 2
Fore
SplineSet
590 1153 m 1,0,-1
 246 1350 l 17,1,2
 200 1373 200 1373 200 1435 c 0,3,4
 200 1482 200 1482 232 1517 c 0,5,6
 265 1550 265 1550 316 1550 c 0,7,8
 377 1550 377 1550 408 1501 c 9,9,-1
 610 1175 l 1,10,-1
 590 1153 l 1,0,-1
EndSplineSet
Validated: 3073
EndChar

StartChar: a
Encoding: 97 97 68
Width: 1200
GlyphClass: 2
Flags: W
HStem: -20 100<479.652 744.347> 1020 100<482.019 744.347>
VStem: 110 220<309.397 792.546> 780 200<172.5 927.5>
LayerCount: 2
Fore
SplineSet
780 256 m 2,0,1
 780 844 l 2,2,3
 780 1020 780 1020 639 1020 c 0,4,5
 465 1020 465 1020 384 866 c 0,6,7
 330 763 330 763 330 550 c 0,8,9
 330 338 330 338 384 234 c 0,10,11
 464 80 464 80 639 80 c 0,12,13
 780 80 780 80 780 256 c 2,0,1
699 -20 m 0,14,15
 424 -20 424 -20 259 151 c 0,16,17
 110 305 110 305 110 550 c 0,18,19
 110 800 110 800 262 959 c 0,20,21
 417 1120 417 1120 699 1120 c 0,22,23
 902 1120 902 1120 1150 1005 c 1,24,-1
 1150 991 l 1,25,26
 980 938 980 938 980 843 c 2,27,-1
 980 257 l 2,28,29
 980 162 980 162 1150 109 c 1,30,-1
 1150 95 l 1,31,32
 902 -20 902 -20 699 -20 c 0,14,15
EndSplineSet
Validated: 3073
EndChar

StartChar: b
Encoding: 98 98 69
Width: 1200
GlyphClass: 2
Flags: W
HStem: -20 100<455.458 719.856> 1020 100<454.715 707.711> 1510 20G<334.5 420>
VStem: 220 200<172.5 986.312 1116 1341.5> 870 220<309.579 809.029>
LayerCount: 2
Fore
SplineSet
501 -20 m 0,0,1
 296 -20 296 -20 50 95 c 1,2,-1
 50 109 l 1,3,4
 220 162 220 162 220 257 c 2,5,-1
 220 1257 l 2,6,7
 220 1352 220 1352 50 1405 c 1,8,-1
 50 1419 l 1,9,10
 249 1513 249 1513 420 1530 c 1,11,-1
 420 1116 l 1,12,13
 464 1120 464 1120 500 1120 c 0,14,15
 776 1120 776 1120 946 959 c 0,16,17
 1090 822 1090 822 1090 550 c 0,18,19
 1090 304 1090 304 941 151 c 0,20,21
 774 -20 774 -20 501 -20 c 0,0,1
420 256 m 2,22,23
 420 80 420 80 561 80 c 0,24,25
 736 80 736 80 816 234 c 0,26,27
 870 340 870 340 870 550 c 0,28,29
 870 782 870 782 815 866 c 0,30,31
 714 1020 714 1020 560 1020 c 0,32,33
 420 1020 420 1020 420 844 c 2,34,-1
 420 256 l 2,22,23
EndSplineSet
Validated: 3073
EndChar

StartChar: c
Encoding: 99 99 70
Width: 1125
GlyphClass: 2
Flags: W
HStem: -20 110<458.753 744.027> 1014 106<458.699 729.171>
VStem: 110 220<298.969 799.702> 874 141<217 358> 951 15<534 571.573 1085.72 1120>
LayerCount: 2
Fore
SplineSet
1015 358 m 17,0,1
 978 206 978 206 904 119 c 0,2,3
 785 -20 785 -20 615 -20 c 0,4,5
 400 -20 400 -20 270 116 c 0,6,7
 110 284 110 284 110 550 c 0,8,9
 110 817 110 817 270 984 c 0,10,11
 400 1120 400 1120 599 1120 c 0,12,13
 712 1120 712 1120 825 1026 c 0,14,15
 855 1001 855 1001 878 1001 c 0,16,17
 930 1001 930 1001 951 1120 c 1,18,-1
 966 1120 l 1,19,-1
 966 534 l 1,20,-1
 951 534 l 1,21,22
 913 779 913 779 798 908 c 0,23,24
 703 1014 703 1014 600 1014 c 0,25,26
 459 1014 459 1014 390 890 c 0,27,28
 330 781 330 781 330 550 c 0,29,30
 330 312 330 312 390 210 c 0,31,32
 460 90 460 90 614 90 c 0,33,34
 720 90 720 90 797 187 c 0,35,36
 847 249 847 249 874 358 c 9,37,-1
 1015 358 l 17,0,1
EndSplineSet
Validated: 3073
EndChar

StartChar: d
Encoding: 100 100 71
Width: 1200
GlyphClass: 2
Flags: W
HStem: -20 100<479.154 744.445> 1020 100<477.092 745.285> 1510 20G<894.5 980>
VStem: 110 220<309.827 807.982> 780 200<172.5 986.312 1116 1341.5>
LayerCount: 2
Fore
SplineSet
699 -20 m 0,0,1
 424 -20 424 -20 259 151 c 0,2,3
 110 305 110 305 110 550 c 0,4,5
 110 822 110 822 254 959 c 0,6,7
 424 1120 424 1120 700 1120 c 0,8,9
 736 1120 736 1120 780 1116 c 1,10,-1
 780 1257 l 2,11,12
 780 1352 780 1352 610 1405 c 1,13,-1
 610 1419 l 1,14,15
 809 1513 809 1513 980 1530 c 9,16,-1
 980 257 l 2,17,18
 980 162 980 162 1150 109 c 1,19,-1
 1150 95 l 1,20,21
 903 -20 903 -20 699 -20 c 0,0,1
780 256 m 2,22,23
 780 844 l 2,24,25
 780 1020 780 1020 640 1020 c 0,26,27
 454 1020 454 1020 385 866 c 0,28,29
 330 743 330 743 330 550 c 0,30,31
 330 340 330 340 384 234 c 0,32,33
 462 80 462 80 639 80 c 0,34,35
 780 80 780 80 780 256 c 2,22,23
EndSplineSet
Validated: 3073
EndChar

StartChar: e
Encoding: 101 101 72
Width: 1125
GlyphClass: 2
Flags: W
HStem: -20 110<458.277 741.927> 339 71<345 529.518> 1014 106<458.692 713.555>
VStem: 110 220<357.065 802.295> 771 195<609.418 940.719> 874 141<217 358>
LayerCount: 2
Fore
SplineSet
1015 358 m 1,0,1
 978 206 978 206 904 119 c 0,2,3
 786 -20 786 -20 615 -20 c 0,4,5
 398 -20 398 -20 270 116 c 0,6,7
 110 286 110 286 110 550 c 0,8,9
 110 818 110 818 270 984 c 0,10,11
 401 1120 401 1120 599 1120 c 0,12,13
 754 1120 754 1120 862 1016 c 0,14,15
 966 916 966 916 966 768 c 0,16,17
 966 618 966 618 863 506 c 0,18,19
 709 341 709 341 345 339 c 1,20,21
 361 260 361 260 390 210 c 0,22,23
 460 90 460 90 614 90 c 0,24,25
 720 90 720 90 797 187 c 0,26,27
 847 249 847 249 874 358 c 1,28,-1
 1015 358 l 1,0,1
335 410 m 1,29,30
 580 418 580 418 691 557 c 0,31,32
 771 657 771 657 771 766 c 128,-1,33
 771 875 771 875 739 935 c 0,34,35
 696 1014 696 1014 600 1014 c 0,36,37
 458 1014 458 1014 390 890 c 0,38,39
 330 781 330 781 330 550 c 0,40,41
 330 454 330 454 335 410 c 1,29,30
EndSplineSet
Validated: 3073
EndChar

StartChar: f
Encoding: 102 102 73
Width: 988
GlyphClass: 2
Flags: W
HStem: 0 15<50 70.5859 569.414 590> 647 102<420 614.151> 1430 100<457.086 703.347>
VStem: 220 200<96.5 647 749 1339.08> 923 15<1028 1063.84>
LayerCount: 2
Fore
SplineSet
50 0 m 1,0,-1
 50 15 l 1,1,2
 220 61 220 61 220 249 c 2,3,-1
 220 1256 l 2,4,5
 220 1351 220 1351 50 1404 c 1,6,-1
 50 1418 l 1,7,8
 283 1530 283 1530 500 1530 c 0,9,10
 772 1530 772 1530 938 1372 c 1,11,-1
 938 1028 l 1,12,-1
 923 1028 l 1,13,14
 902 1156 902 1156 815 1276 c 0,15,16
 703 1430 703 1430 560 1430 c 0,17,18
 420 1430 420 1430 420 1254 c 2,19,-1
 420 749 l 1,20,-1
 618 749 l 2,21,22
 714 749 714 749 803 836 c 1,23,-1
 818 836 l 1,24,-1
 639 542 l 1,25,-1
 624 542 l 1,26,27
 620 647 620 647 562 647 c 2,28,-1
 420 647 l 1,29,-1
 420 249 l 2,30,31
 420 59 420 59 590 15 c 1,32,-1
 590 0 l 1,33,-1
 50 0 l 1,0,-1
EndSplineSet
Validated: 3073
EndChar

StartChar: h
Encoding: 104 104 74
Width: 1270
GlyphClass: 2
Flags: W
HStem: -20 21G<890 975.5> 0 15<50 70.5859 569.414 590> 1020 100<454.715 701.569> 1510 20G<334.5 420>
VStem: 220 200<96.5 986.312 1116 1341.5> 890 200<168.5 807.125>
LayerCount: 2
Fore
SplineSet
50 0 m 1,0,-1
 50 15 l 1,1,2
 220 61 220 61 220 249 c 2,3,-1
 220 1257 l 2,4,5
 220 1352 220 1352 50 1405 c 1,6,-1
 50 1419 l 1,7,8
 249 1513 249 1513 420 1530 c 1,9,-1
 420 1116 l 1,10,11
 464 1120 464 1120 500 1120 c 0,12,13
 776 1120 776 1120 946 959 c 0,14,15
 1090 822 1090 822 1090 550 c 2,16,-1
 1090 253 l 2,17,18
 1090 158 1090 158 1260 105 c 1,19,-1
 1260 91 l 1,20,21
 1061 -3 1061 -3 890 -20 c 9,22,-1
 890 552 l 18,23,24
 890 762 890 762 815 866 c 0,25,26
 704 1020 704 1020 560 1020 c 0,27,28
 420 1020 420 1020 420 844 c 2,29,-1
 420 249 l 2,30,31
 420 59 420 59 590 15 c 1,32,-1
 590 0 l 1,33,-1
 50 0 l 1,0,-1
EndSplineSet
Validated: 3073
EndChar

StartChar: i
Encoding: 105 105 75
Width: 640
GlyphClass: 2
Flags: W
HStem: 0 15<50 70.5859 569.414 590> 1100 20G<338.5 420> 1266 264<229.191 410.809>
VStem: 190 260<1305.71 1490.81> 220 200<96.5 929.25>
LayerCount: 2
Fore
SplineSet
50 0 m 1,0,-1
 50 15 l 1,1,2
 220 61 220 61 220 249 c 2,3,-1
 220 847 l 2,4,5
 220 939 220 939 50 992 c 1,6,-1
 50 1006 l 1,7,8
 257 1100 257 1100 420 1120 c 9,9,-1
 420 249 l 2,10,11
 420 59 420 59 590 15 c 1,12,-1
 590 0 l 1,13,-1
 50 0 l 1,0,-1
190 1398.5 m 128,-1,15
 190 1454 190 1454 228 1492 c 128,-1,16
 266 1530 266 1530 320 1530 c 128,-1,17
 374 1530 374 1530 412 1492 c 128,-1,18
 450 1454 450 1454 450 1398.5 c 128,-1,19
 450 1343 450 1343 412 1304.5 c 128,-1,20
 374 1266 374 1266 320 1266 c 128,-1,21
 266 1266 266 1266 228 1304.5 c 128,-1,14
 190 1343 190 1343 190 1398.5 c 128,-1,15
EndSplineSet
Validated: 3073
EndChar

StartChar: j
Encoding: 106 106 76
Width: 650
GlyphClass: 2
Flags: W
HStem: -410 21G<40 235> 1100 20G<348.5 430> 1266 264<239.191 420.809>
VStem: 200 260<1305.71 1490.81> 230 200<-98.397 929.25>
LayerCount: 2
Fore
SplineSet
40 -410 m 1,0,-1
 40 -395 l 1,1,2
 230 -195 230 -195 230 166 c 2,3,-1
 230 847 l 2,4,5
 230 939 230 939 60 992 c 1,6,-1
 60 1006 l 1,7,8
 267 1100 267 1100 430 1120 c 9,9,-1
 430 166 l 2,10,11
 430 -293 430 -293 40 -410 c 1,0,-1
200 1398.5 m 128,-1,13
 200 1454 200 1454 238 1492 c 128,-1,14
 276 1530 276 1530 330 1530 c 128,-1,15
 384 1530 384 1530 422 1492 c 128,-1,16
 460 1454 460 1454 460 1398.5 c 128,-1,17
 460 1343 460 1343 422 1304.5 c 128,-1,18
 384 1266 384 1266 330 1266 c 128,-1,19
 276 1266 276 1266 238 1304.5 c 128,-1,12
 200 1343 200 1343 200 1398.5 c 128,-1,13
EndSplineSet
Validated: 3073
EndChar

StartChar: l
Encoding: 108 108 77
Width: 640
GlyphClass: 2
Flags: W
HStem: 0 15<50 70.5859 569.414 590> 1510 20G<334.5 420>
VStem: 220 200<96 1341.5>
LayerCount: 2
Fore
SplineSet
50 0 m 1,0,-1
 50 15 l 1,1,2
 220 60 220 60 220 249 c 2,3,-1
 220 1257 l 2,4,5
 220 1352 220 1352 50 1405 c 1,6,-1
 50 1419 l 1,7,8
 249 1513 249 1513 420 1530 c 9,9,-1
 420 249 l 2,10,11
 420 59 420 59 590 15 c 1,12,-1
 590 0 l 1,13,-1
 50 0 l 1,0,-1
EndSplineSet
Validated: 3073
EndChar

StartChar: m
Encoding: 109 109 78
Width: 1940
GlyphClass: 2
Flags: W
HStem: -20 21G<1560 1645.5> 0 15<50 70.5859 569.414 590 720 740.586 1239.41 1260> 1020 100<456.661 702.219 1125.28 1374.4>
VStem: 220 200<96.5 927.5> 890 200<97 811.427> 1560 200<168.5 808.116>
CounterMasks: 1 1c
LayerCount: 2
Fore
SplineSet
50 0 m 1,0,-1
 50 15 l 1,1,2
 220 61 220 61 220 249 c 2,3,-1
 220 843 l 2,4,5
 220 938 220 938 50 991 c 1,6,-1
 50 1005 l 1,7,8
 278 1119 278 1119 500 1120 c 0,9,10
 768 1120 768 1120 933 971 c 1,11,12
 1040 1120 1040 1120 1222 1120 c 0,13,14
 1444 1120 1444 1120 1616 959 c 0,15,16
 1760 824 1760 824 1760 550 c 2,17,-1
 1760 253 l 2,18,19
 1760 158 1760 158 1930 105 c 1,20,-1
 1930 91 l 1,21,22
 1731 -3 1731 -3 1560 -20 c 9,23,-1
 1560 552 l 18,24,25
 1560 762 1560 762 1485 866 c 0,26,27
 1374 1020 1374 1020 1230 1020 c 0,28,29
 1090 1020 1090 1020 1090 844 c 2,30,-1
 1090 249 l 2,31,32
 1090 59 1090 59 1260 15 c 1,33,-1
 1260 0 l 1,34,-1
 720 0 l 1,35,-1
 720 15 l 1,36,37
 890 62 890 62 890 249 c 2,38,-1
 890 552 l 2,39,40
 890 762 890 762 815 866 c 0,41,42
 704 1020 704 1020 560 1020 c 0,43,44
 420 1020 420 1020 420 844 c 2,45,-1
 420 249 l 2,46,47
 420 59 420 59 590 15 c 1,48,-1
 590 0 l 1,49,-1
 50 0 l 1,0,-1
EndSplineSet
Validated: 3073
EndChar

StartChar: n
Encoding: 110 110 79
Width: 1270
GlyphClass: 2
Flags: W
HStem: -20 21G<890 975.5> 0 15<50 70.5859 569.414 590> 1020 100<457.681 702.045>
VStem: 220 200<96.5 927.5> 890 200<168.5 807.125>
LayerCount: 2
Fore
SplineSet
50 0 m 1,0,-1
 50 15 l 1,1,2
 220 61 220 61 220 249 c 2,3,-1
 220 843 l 2,4,5
 220 938 220 938 50 991 c 1,6,-1
 50 1005 l 1,7,8
 290 1120 290 1120 500 1120 c 0,9,10
 778 1120 778 1120 946 959 c 0,11,12
 1090 822 1090 822 1090 550 c 2,13,-1
 1090 253 l 2,14,15
 1090 158 1090 158 1260 105 c 1,16,-1
 1260 91 l 1,17,18
 1061 -3 1061 -3 890 -20 c 9,19,-1
 890 552 l 18,20,21
 890 762 890 762 815 866 c 0,22,23
 704 1020 704 1020 560 1020 c 0,24,25
 420 1020 420 1020 420 844 c 2,26,-1
 420 249 l 2,27,28
 420 59 420 59 590 15 c 1,29,-1
 590 0 l 1,30,-1
 50 0 l 1,0,-1
EndSplineSet
Validated: 3073
EndChar

StartChar: o
Encoding: 111 111 80
Width: 1148
GlyphClass: 2
Flags: W
HStem: -20 114<449.124 698.884> 1006 114<449.116 698.408>
VStem: 110 220<300.145 803.044> 818 220<300.298 800.354>
LayerCount: 2
Fore
SplineSet
574 -20 m 0,0,1
 398 -20 398 -20 270 116 c 0,2,3
 110 286 110 286 110 550 c 0,4,5
 110 821 110 821 270 984 c 0,6,7
 400 1120 400 1120 574 1120 c 128,-1,8
 748 1120 748 1120 878 984 c 0,9,10
 1038 816 1038 816 1038 550 c 0,11,12
 1038 283 1038 283 878 116 c 0,13,14
 748 -20 748 -20 574 -20 c 0,0,1
818 550 m 0,15,16
 818 785 818 785 758 890 c 0,17,18
 692 1006 692 1006 574 1006 c 0,19,20
 454 1006 454 1006 390 890 c 0,21,22
 330 781 330 781 330 550 c 0,23,24
 330 315 330 315 390 210 c 0,25,26
 456 94 456 94 574 94 c 0,27,28
 694 94 694 94 758 210 c 0,29,30
 818 319 818 319 818 550 c 0,15,16
EndSplineSet
Validated: 3073
EndChar

StartChar: p
Encoding: 112 112 81
Width: 1200
GlyphClass: 2
Flags: W
HStem: -410 15<50 70.5859 569.414 590> -20 100<454.715 722.908> 1020 100<455.458 720.6>
VStem: 220 200<-314 -16 113.688 927.5> 870 220<292.018 790.173>
LayerCount: 2
Fore
SplineSet
50 -410 m 1,0,-1
 50 -395 l 1,1,2
 220 -350 220 -350 220 -161 c 10,3,-1
 220 843 l 2,4,5
 220 938 220 938 50 991 c 1,6,-1
 50 1005 l 1,7,8
 296 1120 296 1120 501 1120 c 0,9,10
 775 1120 775 1120 941 949 c 0,11,12
 1090 795 1090 795 1090 550 c 0,13,14
 1090 278 1090 278 946 141 c 0,15,16
 776 -20 776 -20 500 -20 c 0,17,18
 464 -20 464 -20 420 -16 c 1,19,-1
 420 -161 l 2,20,21
 420 -351 420 -351 590 -395 c 1,22,23
 590 -410 l 1,24,-1
 50 -410 l 1,0,-1
420 844 m 2,25,-1
 420 256 l 2,26,27
 420 80 420 80 560 80 c 0,28,29
 746 80 746 80 815 234 c 0,30,31
 870 357 870 357 870 550 c 0,32,33
 870 760 870 760 816 866 c 0,34,35
 738 1020 738 1020 561 1020 c 0,36,37
 420 1020 420 1020 420 844 c 2,25,-1
EndSplineSet
Validated: 3073
EndChar

StartChar: q
Encoding: 113 113 82
Width: 1200
GlyphClass: 2
Flags: W
HStem: -410 15<610 630.586 1129.41 1150> -20 100<477.092 745.285> 1020 100<479.646 744.347>
VStem: 110 220<292.018 790.603> 780 200<-314 -16 113.688 927.5>
LayerCount: 2
Fore
SplineSet
1150 -410 m 1,0,-1
 610 -410 l 1,1,-1
 610 -395 l 1,2,3
 780 -351 780 -351 780 -161 c 2,4,-1
 780 -16 l 1,5,6
 736 -20 736 -20 700 -20 c 0,7,8
 424 -20 424 -20 254 141 c 0,9,10
 110 278 110 278 110 550 c 0,11,12
 110 795 110 795 259 949 c 0,13,14
 426 1120 426 1120 699 1120 c 0,15,16
 902 1120 902 1120 1150 1005 c 1,17,-1
 1150 991 l 1,18,19
 980 938 980 938 980 843 c 2,20,-1
 980 -161 l 18,21,22
 980 -350 980 -350 1150 -395 c 1,23,-1
 1150 -410 l 1,0,-1
780 844 m 2,24,25
 780 1020 780 1020 639 1020 c 0,26,27
 462 1020 462 1020 384 866 c 0,28,29
 331 762 331 762 330 550 c 0,30,31
 330 357 330 357 385 234 c 0,32,33
 454 80 454 80 640 80 c 0,34,35
 780 80 780 80 780 256 c 2,36,-1
 780 844 l 2,24,25
EndSplineSet
Validated: 3073
EndChar

StartChar: r
Encoding: 114 114 83
Width: 988
GlyphClass: 2
Flags: W
HStem: 0 15<50 70.5859 569.414 590> 1020 100<454.741 703.347>
VStem: 220 200<96.5 927.5> 923 15<618 653.842>
LayerCount: 2
Fore
SplineSet
50 0 m 1,0,-1
 50 15 l 1,1,2
 220 61 220 61 220 249 c 2,3,-1
 220 843 l 2,4,5
 220 938 220 938 50 991 c 1,6,-1
 50 1005 l 1,7,8
 294 1120 294 1120 500 1120 c 0,9,10
 772 1120 772 1120 938 962 c 1,11,-1
 938 618 l 1,12,-1
 923 618 l 1,13,14
 902 746 902 746 815 866 c 24,15,16
 703 1020 703 1020 560 1020 c 0,17,18
 420 1020 420 1020 420 844 c 2,19,-1
 420 249 l 2,20,21
 420 59 420 59 590 15 c 1,22,-1
 590 0 l 1,23,-1
 50 0 l 1,0,-1
EndSplineSet
Validated: 3073
EndChar

StartChar: s
Encoding: 115 115 84
Width: 1046
GlyphClass: 2
Flags: W
HStem: -20 97<348.957 666.419> 1018 102<416.165 664.326>
VStem: 100 15<-20 13.9941 523.291 566> 178 184<744.713 963.288> 756 190<164.065 398.98> 826 15<678 716.875 1094.51 1120>
DStem2: 488 701 397 528 0.948683 -0.316228<-130.73 339.184>
LayerCount: 2
Fore
SplineSet
100 -20 m 1,0,-1
 100 566 l 1,1,-1
 115 566 l 1,2,3
 151 334 151 334 268 192 c 24,4,5
 363 77 363 77 515 77 c 0,6,7
 618 77 618 77 682 133 c 0,8,9
 756 198 756 198 756 283 c 0,10,11
 756 408 756 408 619 454 c 2,12,-1
 397 528 l 2,13,14
 178 601 178 601 178 807 c 24,15,16
 178 939 178 939 283 1036 c 0,17,18
 373 1120 373 1120 520 1120 c 0,19,20
 614 1120 614 1120 695 1069 c 0,21,22
 733 1045 733 1045 761 1045 c 0,23,24
 810 1045 810 1045 826 1120 c 1,25,-1
 841 1120 l 1,26,-1
 841 678 l 1,27,-1
 826 678 l 1,28,29
 800 838 800 838 718 926 c 0,30,31
 633 1018 633 1018 544 1018 c 0,32,33
 464 1018 464 1018 417 976 c 0,34,35
 362 927 362 927 362 839 c 0,36,37
 362 742 362 742 488 701 c 2,38,-1
 673 641 l 2,39,40
 946 552 946 552 946 316 c 0,41,42
 946 167 946 167 815 66 c 0,43,44
 705 -20 705 -20 513 -20 c 0,45,46
 358 -20 358 -20 241 74 c 16,47,48
 211 98 211 98 188 98 c 0,49,50
 136 98 136 98 115 -20 c 1,51,-1
 100 -20 l 1,0,-1
EndSplineSet
Validated: 3073
EndChar

StartChar: t
Encoding: 116 116 85
Width: 1011
GlyphClass: 2
Flags: W
HStem: 0 15<234 254.586 753.414 774> 924 102<213.849 404 604 797.151> 1093 20G<941 1001> 1510 20G<518.5 604>
VStem: 404 200<96 924 1026 1341.5>
LayerCount: 2
Fore
SplineSet
234 0 m 1,0,-1
 234 15 l 1,1,2
 404 60 404 60 404 249 c 2,3,-1
 404 924 l 1,4,-1
 210 924 l 2,5,6
 114 924 114 924 25 837 c 1,7,-1
 10 837 l 1,8,-1
 189 1131 l 1,9,-1
 204 1131 l 1,10,11
 208 1026 208 1026 266 1026 c 2,12,-1
 404 1026 l 1,13,-1
 404 1257 l 2,14,15
 404 1352 404 1352 234 1405 c 1,16,-1
 234 1419 l 1,17,18
 433 1513 433 1513 604 1530 c 1,19,-1
 604 1026 l 1,20,-1
 801 1026 l 2,21,22
 896 1026 896 1026 986 1113 c 1,23,-1
 1001 1113 l 1,24,-1
 822 819 l 1,25,-1
 807 819 l 1,26,27
 803 924 803 924 745 924 c 2,28,-1
 604 924 l 1,29,-1
 604 249 l 2,30,31
 604 59 604 59 774 15 c 1,32,-1
 774 0 l 1,33,-1
 234 0 l 1,0,-1
EndSplineSet
Validated: 3073
EndChar

StartChar: u
Encoding: 117 117 86
Width: 1290
GlyphClass: 2
Flags: W
HStem: -20 100<587.955 834.966> 1100 20G<318.5 400 988.5 1070>
VStem: 200 200<292.875 929.25> 870 200<172.5 929.25>
LayerCount: 2
Fore
SplineSet
790 -20 m 0,0,1
 512 -20 512 -20 344 141 c 0,2,3
 200 278 200 278 200 550 c 2,4,-1
 200 847 l 2,5,6
 200 939 200 939 30 992 c 1,7,-1
 30 1006 l 1,8,9
 237 1100 237 1100 400 1120 c 9,10,-1
 400 548 l 18,11,12
 400 338 400 338 475 234 c 0,13,14
 586 80 586 80 730 80 c 0,15,16
 870 80 870 80 870 256 c 2,17,-1
 870 847 l 2,18,19
 870 939 870 939 700 992 c 1,20,-1
 700 1006 l 1,21,22
 907 1100 907 1100 1070 1120 c 9,23,-1
 1070 257 l 2,24,25
 1070 162 1070 162 1240 109 c 1,26,-1
 1240 95 l 1,27,28
 993 -20 993 -20 790 -20 c 0,0,1
EndSplineSet
Validated: 3073
EndChar

StartChar: braceleft
Encoding: 123 123 87
Width: 776
GlyphClass: 2
Flags: W
HStem: -300 82<532.659 726> 1728 82<531.956 726>
VStem: 50 217<646.5 863.5> 250 190<-88.0693 635.192 874.808 1597.52>
LayerCount: 2
Fore
SplineSet
50 755 m 1,0,1
 250 832 250 832 250 1028 c 2,2,-1
 250 1396 l 2,3,4
 250 1585 250 1585 374 1709 c 0,5,6
 475 1810 475 1810 658 1810 c 24,7,8
 688 1810 688 1810 726 1801 c 1,9,-1
 726 1718 l 1,10,11
 692 1728 692 1728 660 1728 c 0,12,13
 575 1728 575 1728 514 1674 c 0,14,15
 440 1610 440 1610 440 1401 c 2,16,-1
 440 1027 l 2,17,18
 440 856 440 856 267 755 c 1,19,20
 440 654 440 654 440 483 c 2,21,-1
 440 109 l 2,22,23
 440 -100 440 -100 514 -164 c 0,24,25
 575 -218 575 -218 660 -218 c 0,26,27
 692 -218 692 -218 726 -208 c 1,28,-1
 726 -291 l 1,29,30
 688 -300 688 -300 658 -300 c 24,31,32
 478 -300 478 -300 374 -199 c 0,33,34
 250 -78 250 -78 250 114 c 2,35,-1
 250 482 l 2,36,37
 250 678 250 678 50 755 c 1,0,1
EndSplineSet
Validated: 3073
EndChar

StartChar: bar
Encoding: 124 124 88
Width: 655
GlyphClass: 2
Flags: W
VStem: 250 155<-150 1660>
LayerCount: 2
Fore
SplineSet
250 -150 m 1,0,-1
 250 1660 l 1,1,-1
 405 1660 l 1,2,-1
 405 -150 l 1,3,-1
 250 -150 l 1,0,-1
EndSplineSet
Validated: 3073
EndChar

StartChar: braceright
Encoding: 125 125 89
Width: 776
GlyphClass: 2
Flags: W
HStem: -300 82<50 243.341> 1728 82<50 244.044>
VStem: 336 190<-88.0693 635.192 874.808 1597.52> 509 217<646.5 863.5>
LayerCount: 2
Fore
SplineSet
726 755 m 1,0,1
 526 678 526 678 526 482 c 2,2,-1
 526 114 l 2,3,4
 526 -78 526 -78 402 -199 c 0,5,6
 298 -300 298 -300 118 -300 c 24,7,8
 88 -300 88 -300 50 -291 c 1,9,-1
 50 -208 l 1,10,11
 84 -218 84 -218 116 -218 c 0,12,13
 201 -218 201 -218 262 -164 c 0,14,15
 336 -100 336 -100 336 109 c 2,16,-1
 336 483 l 2,17,18
 336 654 336 654 509 755 c 1,19,20
 336 856 336 856 336 1027 c 2,21,-1
 336 1401 l 2,22,23
 336 1610 336 1610 262 1674 c 0,24,25
 201 1728 201 1728 116 1728 c 0,26,27
 84 1728 84 1728 50 1718 c 1,28,-1
 50 1801 l 1,29,30
 88 1810 88 1810 118 1810 c 24,31,32
 301 1810 301 1810 402 1709 c 0,33,34
 526 1585 526 1585 526 1396 c 2,35,-1
 526 1028 l 2,36,37
 526 832 526 832 726 755 c 1,0,1
EndSplineSet
Validated: 3073
EndChar

StartChar: asciitilde
Encoding: 126 126 90
Width: 1430
GlyphClass: 2
Flags: W
HStem: 538 172<844.416 1065.54> 748 173<363.129 584.701>
DStem2: 640 884 790 574 0.845145 -0.534536<-74.7264 366.438>
LayerCount: 2
Fore
SplineSet
200 614 m 1,0,1
 290 920 290 920 508 921 c 0,2,3
 582 921 582 921 640 884 c 1,4,-1
 874 736 l 17,5,6
 918 710 918 710 965 710 c 0,7,8
 1067 710 1067 710 1230 844 c 1,9,10
 1140 538 1140 538 916 538 c 0,11,12
 843 538 843 538 790 574 c 1,13,-1
 556 722 l 17,14,15
 514 748 514 748 464 748 c 0,16,17
 363 748 363 748 200 614 c 1,0,1
EndSplineSet
Validated: 3073
EndChar

StartChar: exclamdown
Encoding: 161 161 92
Width: 659
GlyphClass: 2
Flags: W
HStem: -20 21G<302 356> 1266 264<238.676 419.809>
VStem: 200 259<19.7072 321.607 1305.71 1490.29>
LayerCount: 2
Fore
SplineSet
459 1398 m 128,-1,1
 459 1343 459 1343 421 1304.5 c 128,-1,2
 383 1266 383 1266 329 1266 c 128,-1,3
 275 1266 275 1266 237.5 1304.5 c 128,-1,4
 200 1343 200 1343 200 1398 c 128,-1,5
 200 1453 200 1453 237.5 1491.5 c 128,-1,6
 275 1530 275 1530 329 1530 c 128,-1,7
 383 1530 383 1530 421 1491.5 c 128,-1,0
 459 1453 459 1453 459 1398 c 128,-1,1
379 1194 m 1,8,-1
 458 134 l 2,9,10
 459 121 459 121 459 112 c 0,11,12
 459 57 459 57 421 18.5 c 128,-1,13
 383 -20 383 -20 329 -20 c 128,-1,14
 275 -20 275 -20 237.5 18 c 128,-1,15
 200 56 200 56 200 112 c 0,16,17
 201 134 l 2,18,-1
 281 1194 l 1,19,-1
 379 1194 l 1,8,-1
EndSplineSet
Validated: 3073
EndChar

StartChar: cent
Encoding: 162 162 93
Width: 1125
GlyphClass: 2
Flags: W
HStem: -17 112<452.402 555> 1011 107<455.142 555>
VStem: 110 220<298.945 799.903> 555 114<-300 -11.585 97 1002 1113.06 1400> 874 141<217 358> 951 15<534 571.429 1085.72 1120>
LayerCount: 2
Fore
SplineSet
1015 358 m 1,0,1
 978 204 978 204 904 119 c 0,2,3
 804 3 804 3 669 -16 c 1,4,-1
 669 -300 l 1,5,-1
 555 -300 l 1,6,-1
 555 -17 l 1,7,8
 381 -0 381 -0 270 116 c 0,9,10
 110 283 110 283 110 550 c 0,11,12
 110 816 110 816 270 984 c 0,13,14
 385 1105 385 1105 555 1118 c 1,15,-1
 555 1400 l 1,16,-1
 670 1400 l 1,17,-1
 670 1111 l 1,18,19
 747 1091 747 1091 825 1026 c 0,20,21
 855 1001 855 1001 878 1001 c 0,22,23
 930 1001 930 1001 951 1120 c 1,24,-1
 966 1120 l 1,25,-1
 966 534 l 1,26,-1
 951 534 l 1,27,28
 913 778 913 778 798 908 c 0,29,30
 736 978 736 978 670 1002 c 1,31,-1
 669 97 l 1,32,33
 740 116 740 116 797 187 c 0,34,35
 847 249 847 249 874 358 c 1,36,-1
 1015 358 l 1,0,1
555 95 m 1,37,-1
 555 1011 l 1,38,39
 448 993 448 993 390 890 c 0,40,41
 330 783 330 783 330 550 c 0,42,43
 330 313 330 313 390 210 c 0,44,45
 446 114 446 114 555 95 c 1,37,-1
EndSplineSet
Validated: 3073
EndChar

StartChar: sterling
Encoding: 163 163 94
Width: 1256
GlyphClass: 2
Flags: W
HStem: 0 102<486.365 885.098> 0 15<100 120.586> 584 150<150 270 470 833> 1431 99<541.658 800.844>
VStem: 270 200<103.789 584 734 1336.36> 742 266<1194.22 1379.47>
LayerCount: 2
Fore
SplineSet
100 0 m 1,0,-1
 100 15 l 1,1,2
 270 60 270 60 270 249 c 2,3,-1
 270 584 l 1,4,-1
 150 584 l 1,5,-1
 150 734 l 1,6,-1
 270 734 l 1,7,-1
 270 1158 l 2,8,9
 270 1317 270 1317 384 1426 c 0,10,11
 493 1530 493 1530 658 1530 c 128,-1,12
 823 1530 823 1530 935 1424 c 0,13,14
 972 1389 972 1389 992 1352 c 0,15,16
 1008 1322 1008 1322 1008 1288 c 0,17,18
 1008 1232 1008 1232 969 1193 c 0,19,20
 930 1155 930 1155 877 1155 c 0,21,22
 823 1155 823 1155 784 1186 c 0,23,24
 742 1219 742 1219 742 1280 c 0,25,26
 742 1354 742 1354 802 1391 c 1,27,28
 759 1431 759 1431 676 1431 c 0,29,30
 605 1431 605 1431 551 1395 c 0,31,32
 470 1341 470 1341 470 1158 c 2,33,-1
 470 734 l 1,34,-1
 833 734 l 1,35,-1
 833 584 l 1,36,-1
 470 584 l 1,37,-1
 470 249 l 2,38,39
 470 159 470 159 508 102 c 1,40,-1
 662 102 l 2,41,42
 929 102 929 102 1141 322 c 1,43,-1
 1156 322 l 1,44,-1
 970 0 l 1,45,-1
 100 0 l 1,0,-1
EndSplineSet
Validated: 3073
EndChar

StartChar: currency
Encoding: 164 164 95
Width: 1555
GlyphClass: 2
Flags: W
HStem: 226 123<616.314 927.711> 1151 135<607.982 936.222>
VStem: 259 199<539.057 973.794> 1085 211<538 973.661>
DStem2: 339 1315 200 1176 0.707107 -0.707107<0 193.57 1211.13 1436.84> 200 299 339 160 0.707107 0.707107<0 225.977 1243.13 1436.84>
LayerCount: 2
Fore
SplineSet
774 1151 m 0,0,1
 615 1151 615 1151 536 1038 c 0,2,3
 458 925 458 925 458 757 c 0,4,5
 458 577 458 577 545 460 c 0,6,7
 628 349 628 349 771 349 c 0,8,9
 915 349 915 349 998 459 c 0,10,11
 1085 576 1085 576 1085 756 c 0,12,13
 1085 927 1085 927 1007 1037 c 0,14,15
 927 1151 927 1151 774 1151 c 0,0,1
1296 749 m 24,16,17
 1296 584 1296 584 1202 452 c 1,18,-1
 1355 299 l 1,19,-1
 1216 160 l 1,20,-1
 1063 313 l 1,21,22
 937 226 937 226 776 226 c 0,23,24
 617 226 617 226 493 313 c 1,25,-1
 339 160 l 1,26,-1
 200 299 l 1,27,-1
 353 452 l 1,28,29
 259 585 259 585 259 756 c 0,30,31
 259 913 259 913 338 1038 c 1,32,-1
 200 1176 l 1,33,-1
 339 1315 l 1,34,-1
 471 1183 l 1,35,36
 604 1286 604 1286 778 1286 c 0,37,38
 950 1286 950 1286 1084 1183 c 1,39,-1
 1216 1315 l 1,40,-1
 1355 1176 l 1,41,-1
 1217 1038 l 1,42,43
 1296 913 1296 913 1296 749 c 24,16,17
EndSplineSet
Validated: 3073
EndChar

StartChar: yen
Encoding: 165 165 96
Width: 1385
GlyphClass: 2
Flags: W
HStem: 0 15<423 443.465 941.535 962> 430 150<276 558 828 1109> 730 150<276 415 686 787 970 1109> 1495 15<5 22.2969 549.562 567 910 927.559 1362.35 1380>
VStem: 592 201<95.5 430>
DStem2: 618 880 233 1260 0.431221 -0.902246<-504.334 -87.5378 164.66 244.801> 736 620 828 580 0.429057 0.903278<3.34213 121.242 335.251 793.378>
LayerCount: 2
Fore
SplineSet
423 0 m 1,0,-1
 423 15 l 1,1,2
 592 60 592 60 592 249 c 2,3,-1
 592 430 l 1,4,-1
 276 430 l 1,5,-1
 276 580 l 1,6,-1
 558 580 l 1,7,-1
 486 730 l 1,8,-1
 276 730 l 1,9,-1
 276 880 l 1,10,-1
 415 880 l 1,11,-1
 233 1260 l 2,12,13
 145 1443 145 1443 5 1495 c 1,14,-1
 5 1510 l 1,15,-1
 567 1510 l 1,16,-1
 567 1495 l 1,17,18
 423 1447 423 1447 423 1347 c 0,19,20
 423 1308 423 1308 444 1262 c 2,21,-1
 618 880 l 1,22,-1
 856 880 l 1,23,-1
 1033 1262 l 2,24,25
 1055 1310 1055 1310 1055 1348 c 0,26,27
 1055 1447 1055 1447 910 1495 c 1,28,-1
 910 1510 l 1,29,-1
 1380 1510 l 1,30,-1
 1380 1495 l 1,31,32
 1237 1440 1237 1440 1151 1260 c 2,33,-1
 970 880 l 1,34,-1
 1109 880 l 1,35,-1
 1109 730 l 1,36,-1
 899 730 l 1,37,-1
 828 580 l 1,38,-1
 1109 580 l 1,39,-1
 1109 430 l 1,40,-1
 793 430 l 1,41,-1
 793 249 l 2,42,43
 793 59 793 59 962 15 c 1,44,-1
 962 0 l 1,45,-1
 423 0 l 1,0,-1
787 730 m 1,46,-1
 686 730 l 1,47,-1
 736 620 l 1,48,-1
 787 730 l 1,46,-1
EndSplineSet
Validated: 3073
EndChar

StartChar: brokenbar
Encoding: 166 166 97
Width: 654
GlyphClass: 2
Flags: W
VStem: 250 154<-150 661 850 1660>
LayerCount: 2
Fore
SplineSet
250 -150 m 1,0,-1
 250 661 l 9,1,-1
 404 661 l 17,2,-1
 404 -150 l 1,3,-1
 250 -150 l 1,0,-1
250 1660 m 1,4,-1
 404 1660 l 1,5,-1
 404 850 l 9,6,-1
 250 850 l 17,7,-1
 250 1660 l 1,4,-1
EndSplineSet
Validated: 3073
EndChar

StartChar: section
Encoding: 167 167 98
Width: 1162
GlyphClass: 2
Flags: W
HStem: -20 102<439.605 679.789> 1428 102<482.211 722.395>
VStem: 150 176<681.803 904.778> 234 259<130.774 323.778> 244 184<1155.22 1372.78> 669 259<1186.22 1379.23> 734 184<137.221 354.782> 836 176<605.222 828.197>
DStem2: 462 629 423 459 0.948683 -0.316228<-134.997 345.558> 554 1111 478 955 0.948683 -0.316228<-134.318 346.237>
LayerCount: 2
Fore
SplineSet
213 967 m 9,0,-1
 353 885 l 17,1,2
 326 853 326 853 326 791 c 0,3,4
 326 674 326 674 462 629 c 2,5,-1
 684 555 l 2,6,7
 918 477 918 477 918 293 c 24,8,9
 918 161 918 161 813 64 c 0,10,11
 723 -20 723 -20 576 -20 c 0,12,13
 472 -20 472 -20 398 22 c 0,14,15
 336 57 336 57 302 90 c 0,16,17
 273 119 273 119 254 152 c 0,18,19
 234 187 234 187 234 232 c 0,20,21
 234 286 234 286 272 325 c 128,-1,22
 310 364 310 364 364 364 c 128,-1,23
 418 364 418 364 455.5 325 c 128,-1,24
 493 286 493 286 493 232 c 0,25,26
 493 173 493 173 456 138 c 2,27,-1
 438 121 l 1,28,29
 495 82 495 82 552 82 c 0,30,31
 629 82 629 82 679 124 c 0,32,33
 734 170 734 170 734 261 c 0,34,35
 734 358 734 358 608 399 c 2,36,-1
 423 459 l 2,37,38
 150 548 150 548 150 784 c 0,39,40
 150 887 150 887 213 967 c 9,0,-1
949 543 m 9,41,-1
 809 625 l 17,42,43
 836 657 836 657 836 719 c 0,44,45
 836 836 836 836 700 881 c 2,46,-1
 478 955 l 2,47,48
 244 1033 244 1033 244 1217 c 24,49,50
 244 1349 244 1349 349 1446 c 0,51,52
 439 1530 439 1530 586 1530 c 0,53,54
 690 1530 690 1530 764 1488 c 0,55,56
 826 1453 826 1453 860 1420 c 0,57,58
 889 1391 889 1391 908 1358 c 0,59,60
 928 1323 928 1323 928 1278 c 0,61,62
 928 1224 928 1224 890 1185 c 128,-1,63
 852 1146 852 1146 798 1146 c 128,-1,64
 744 1146 744 1146 706.5 1185 c 128,-1,65
 669 1224 669 1224 669 1278 c 0,66,67
 669 1337 669 1337 706 1372 c 2,68,-1
 724 1389 l 1,69,70
 667 1428 667 1428 610 1428 c 0,71,72
 533 1428 533 1428 483 1386 c 0,73,74
 428 1340 428 1340 428 1249 c 0,75,76
 428 1152 428 1152 554 1111 c 2,77,-1
 739 1051 l 2,78,79
 1012 962 1012 962 1012 726 c 0,80,81
 1012 623 1012 623 949 543 c 9,41,-1
EndSplineSet
Validated: 3073
EndChar

StartChar: dieresis
Encoding: 168 168 99
Width: 997
GlyphClass: 2
Flags: W
HStem: 1266 264<239.191 420.324 576.191 757.809>
VStem: 200 259<1305.71 1490.81> 537 260<1305.71 1490.81>
LayerCount: 2
Fore
SplineSet
537 1398.5 m 128,-1,1
 537 1454 537 1454 575 1492 c 128,-1,2
 613 1530 613 1530 667 1530 c 128,-1,3
 721 1530 721 1530 759 1492 c 128,-1,4
 797 1454 797 1454 797 1398.5 c 128,-1,5
 797 1343 797 1343 759 1304.5 c 128,-1,6
 721 1266 721 1266 667 1266 c 128,-1,7
 613 1266 613 1266 575 1304.5 c 128,-1,0
 537 1343 537 1343 537 1398.5 c 128,-1,1
200 1398.5 m 128,-1,9
 200 1454 200 1454 238 1492 c 128,-1,10
 276 1530 276 1530 330 1530 c 128,-1,11
 384 1530 384 1530 421.5 1492 c 128,-1,12
 459 1454 459 1454 459 1398.5 c 128,-1,13
 459 1343 459 1343 421.5 1304.5 c 128,-1,14
 384 1266 384 1266 330 1266 c 128,-1,15
 276 1266 276 1266 238 1304.5 c 128,-1,8
 200 1343 200 1343 200 1398.5 c 128,-1,9
EndSplineSet
Validated: 3073
EndChar

StartChar: copyright
Encoding: 169 169 100
Width: 1401
GlyphClass: 2
Flags: W
HStem: 187 73<514.363 878.202> 348 94<609.488 817.541> 1070 92<608.53 803.282> 1254 77<516.855 884.866>
VStem: 150 74<569.815 952.314> 390 151<530.125 978.642> 905 43<830 888.938 1123.41 1162> 1176 75<558.376 959.426>
LayerCount: 2
Fore
SplineSet
996 612 m 1,0,1
 962 493 962 493 897 430 c 0,2,3
 813 348 813 348 701 348 c 0,4,5
 587 348 587 348 505 430 c 0,6,7
 390 545 390 545 390 755 c 0,8,9
 390 962 390 962 505 1080 c 0,10,11
 585 1162 585 1162 692 1162 c 0,12,13
 750 1162 750 1162 823 1128 c 0,14,15
 853 1114 853 1114 870 1116 c 0,16,17
 889 1118 889 1118 904 1162 c 1,18,-1
 948 1162 l 1,19,-1
 948 830 l 1,20,-1
 905 830 l 1,21,22
 863 958 863 958 823 1005 c 0,23,24
 768 1070 768 1070 703 1070 c 0,25,26
 635 1070 635 1070 596 1010 c 0,27,28
 541 925 541 925 541 756 c 0,29,30
 541 579 541 579 593 505 c 0,31,32
 640 442 640 442 719 442 c 0,33,34
 782 442 782 442 827 497 c 0,35,36
 863 541 863 541 884 612 c 1,37,-1
 996 612 l 1,0,1
701 1331 m 0,38,39
 943 1331 943 1331 1099 1158 c 24,40,41
 1251 989 1251 989 1251 754 c 0,42,43
 1251 502 1251 502 1090 350 c 0,44,45
 919 187 919 187 699 187 c 0,46,47
 476 187 476 187 311 350 c 0,48,49
 150 509 150 509 150 754 c 0,50,51
 150 998 150 998 308 1163 c 0,52,53
 469 1331 469 1331 701 1331 c 0,38,39
699 1254 m 0,54,55
 509 1254 509 1254 367 1113 c 0,56,57
 224 971 224 971 224 754 c 0,58,59
 224 561 224 561 364 406 c 0,60,61
 495 260 495 260 701 260 c 0,62,63
 892 260 892 260 1037 406 c 0,64,65
 1176 546 1176 546 1176 754 c 0,66,67
 1176 975 1176 975 1039 1110 c 0,68,69
 893 1254 893 1254 699 1254 c 0,54,55
EndSplineSet
Validated: 3073
EndChar

StartChar: ordfeminine
Encoding: 170 170 101
Width: 1050
GlyphClass: 2
Flags: W
HStem: 680 150<200 850> 940 90<432.028 568.693> 1460 90<430.754 574.416>
VStem: 242 150<1076.52 1414.21> 577 140<1053.37 1437.27>
LayerCount: 2
Fore
SplineSet
577 1098 m 2,0,1
 577 1392 l 2,2,3
 577 1460 577 1460 526 1460 c 0,4,5
 451 1460 451 1460 417 1394 c 0,6,7
 392 1346 392 1346 392 1245 c 0,8,9
 392 1145 392 1145 417 1096 c 0,10,11
 451 1030 451 1030 526 1030 c 0,12,13
 551 1030 551 1030 564 1045 c 128,-1,14
 577 1060 577 1060 577 1098 c 2,0,1
802 1485 m 1,15,-1
 802 1451 l 1,16,17
 717 1429 717 1429 717 1392 c 2,18,-1
 717 1098 l 2,19,20
 717 1063 717 1063 802 1039 c 1,21,-1
 802 1005 l 1,22,23
 648 940 648 940 556 940 c 0,24,25
 412 940 412 940 322 1032 c 0,26,27
 242 1114 242 1114 242 1245 c 128,-1,28
 242 1376 242 1376 324 1463 c 128,-1,29
 406 1550 406 1550 556 1550 c 0,30,31
 647 1550 647 1550 802 1485 c 1,15,-1
200 830 m 1,32,-1
 850 830 l 1,33,-1
 850 680 l 1,34,-1
 200 680 l 1,35,-1
 200 830 l 1,32,-1
EndSplineSet
Validated: 3073
EndChar

StartChar: guillemotleft
Encoding: 171 171 102
Width: 1223
GlyphClass: 2
Flags: W
DStem2: 326 801 150 751 0.577331 -0.81651<0 511.235> 150 751 326 801 0.5547 0.83205<139.23 606.565> 723 801 547 751 0.577331 -0.81651<0 511.235> 547 751 723 801 0.5547 0.83205<139.23 606.565>
LayerCount: 2
Fore
SplineSet
897 1276 m 1,0,-1
 985 1188 l 1,1,-1
 723 801 l 1,2,-1
 1023 387 l 1,3,-1
 897 256 l 1,4,-1
 547 751 l 1,5,-1
 897 1276 l 1,0,-1
500 1276 m 1,6,-1
 588 1188 l 1,7,-1
 326 801 l 1,8,-1
 626 387 l 1,9,-1
 500 256 l 1,10,-1
 150 751 l 1,11,-1
 500 1276 l 1,6,-1
EndSplineSet
Validated: 3073
EndChar

StartChar: logicalnot
Encoding: 172 172 103
Width: 1233
GlyphClass: 2
Flags: W
HStem: 680 150<200 879>
VStem: 879 154<380 680>
LayerCount: 2
Fore
SplineSet
200 830 m 1,0,-1
 1033 830 l 9,1,-1
 1033 380 l 17,2,-1
 879 380 l 1,3,-1
 879 680 l 1,4,-1
 200 680 l 1,5,-1
 200 830 l 1,0,-1
EndSplineSet
Validated: 3073
EndChar

StartChar: uni00AD
Encoding: 173 173 104
Width: 1233
GlyphClass: 2
Flags: W
HStem: 680 150<200 1033>
LayerCount: 2
Fore
SplineSet
200 830 m 1,0,-1
 1033 830 l 1,1,-1
 1033 680 l 1,2,-1
 200 680 l 1,3,-1
 200 830 l 1,0,-1
EndSplineSet
Validated: 3073
EndChar

StartChar: registered
Encoding: 174 174 105
Width: 1401
GlyphClass: 2
Flags: W
HStem: 187 73<515.841 877.013> 366 43<610.37 657> 1081 90<588.237 782.127> 1254 77<515.732 884.866>
VStem: 150 74<568.898 953.541> 432 140<426.288 630 704.44 1058.63> 832 148<727.599 1030.93> 1058 39<478.087 485> 1176 75<557.873 959.426>
DStem2: 901 556 829 384 0.444671 -0.895694<-92.9157 163.335>
LayerCount: 2
Fore
SplineSet
701 1331 m 0,0,1
 943 1331 943 1331 1099 1158 c 0,2,3
 1251 989 1251 989 1251 754 c 0,4,5
 1251 503 1251 503 1090 350 c 0,6,7
 918 187 918 187 699 187 c 0,8,9
 476 187 476 187 311 350 c 0,10,11
 150 509 150 509 150 754 c 0,12,13
 150 998 150 998 308 1163 c 0,14,15
 469 1331 469 1331 701 1331 c 0,0,1
572 750 m 1,16,17
 614 685 614 685 686 685 c 0,18,19
 765 685 765 685 802 748 c 0,20,21
 832 799 832 799 832 885 c 0,22,23
 832 967 832 967 801 1014 c 0,24,25
 754 1081 754 1081 668 1081 c 0,26,27
 622 1081 622 1081 599 1064 c 0,28,29
 572 1045 572 1045 572 1014 c 2,30,-1
 572 750 l 1,16,17
1058 485 m 1,31,-1
 1097 485 l 1,32,33
 1097 481 1097 481 1097 478 c 1,34,35
 1176 597 1176 597 1176 754 c 0,36,37
 1176 975 1176 975 1039 1110 c 0,38,39
 893 1254 893 1254 699 1254 c 0,40,41
 512 1254 512 1254 372 1118 c 1,42,43
 513 1171 513 1171 642 1171 c 0,44,45
 800 1171 800 1171 887 1092 c 0,46,47
 980 1008 980 1008 980 891 c 0,48,49
 980 775 980 775 918 700 c 0,50,51
 879 653 879 653 830 626 c 1,52,53
 879 602 879 602 901 556 c 2,54,-1
 946 463 l 2,55,56
 963 427 963 427 993 426 c 0,57,58
 1016 425 1016 425 1031 441 c 1,59,60
 1050 460 1050 460 1058 485 c 1,31,-1
347 1092 m 1,61,62
 224 955 224 955 224 754 c 0,63,64
 224 565 224 565 359 412 c 1,65,66
 432 433 432 433 432 510 c 2,67,-1
 432 1014 l 2,68,69
 432 1049 432 1049 347 1073 c 1,70,-1
 347 1092 l 1,61,62
405 366 m 1,71,72
 526 260 526 260 701 260 c 0,73,74
 813 260 813 260 909 310 c 1,75,76
 858 326 858 326 829 384 c 2,77,-1
 759 525 l 2,78,79
 728 588 728 588 687 595 c 1,80,81
 625 599 625 599 572 630 c 1,82,-1
 572 510 l 2,83,84
 572 432 572 432 657 409 c 1,85,-1
 657 366 l 1,86,-1
 405 366 l 1,71,72
EndSplineSet
Validated: 3073
EndChar

StartChar: macron
Encoding: 175 175 106
Width: 1233
GlyphClass: 2
Flags: W
HStem: 1400 150<200 1033>
LayerCount: 2
Fore
SplineSet
200 1550 m 1,0,-1
 1033 1550 l 1,1,-1
 1033 1400 l 1,2,-1
 200 1400 l 1,3,-1
 200 1550 l 1,0,-1
EndSplineSet
Validated: 3073
EndChar

StartChar: degree
Encoding: 176 176 107
Width: 1008
GlyphClass: 2
Flags: W
HStem: 840 69<419.254 580.373> 1442 88<411.738 587.765>
VStem: 200 153<993.908 1363.48> 651 157<1005.18 1366.21>
LayerCount: 2
Fore
SplineSet
499 909 m 128,-1,1
 570 909 570 909 607 979 c 0,2,3
 651 1063 651 1063 651 1185 c 0,4,5
 651 1313 651 1313 604 1379 c 0,6,7
 559 1442 559 1442 500 1442 c 0,8,9
 436 1442 436 1442 394.5 1375 c 128,-1,10
 353 1308 353 1308 353 1164 c 0,11,12
 353 1055 353 1055 389 985 c 0,13,0
 428 909 428 909 499 909 c 128,-1,1
504 1530 m 0,14,15
 631 1530 631 1530 725 1421 c 0,16,17
 808 1325 808 1325 808 1177 c 0,18,19
 808 1046 808 1046 721 945 c 0,20,21
 632 840 632 840 504 840 c 0,22,23
 377 840 377 840 282 943 c 0,24,25
 200 1031 200 1031 200 1178 c 0,26,27
 200 1321 200 1321 284 1424 c 0,28,29
 372 1530 372 1530 504 1530 c 0,14,15
EndSplineSet
Validated: 3073
EndChar

StartChar: plusminus
Encoding: 177 177 108
Width: 1233
GlyphClass: 2
Flags: W
HStem: 256 150<200 1033> 808 150<200 542 692 1033>
VStem: 542 150<466 808 958 1300>
LayerCount: 2
Fore
SplineSet
200 406 m 1,0,-1
 1033 406 l 1,1,-1
 1033 256 l 1,2,-1
 200 256 l 1,3,-1
 200 406 l 1,0,-1
542 1300 m 1,4,-1
 692 1300 l 1,5,-1
 692 958 l 1,6,-1
 1033 958 l 1,7,-1
 1033 808 l 1,8,-1
 692 808 l 1,9,-1
 692 466 l 1,10,-1
 542 466 l 1,11,-1
 542 808 l 1,12,-1
 200 808 l 1,13,-1
 200 958 l 1,14,-1
 542 958 l 1,15,-1
 542 1300 l 1,4,-1
EndSplineSet
Validated: 3073
EndChar

StartChar: uni00B2
Encoding: 178 178 109
Width: 963
GlyphClass: 2
Flags: W
HStem: 725 135<467.523 694.088> 790 138<375 514.25> 1442 98<349.237 538.592>
VStem: 215 43<1202 1270.71> 570 146<1199.1 1401.9>
DStem2: 431 917 386 782 0.947395 -0.320066<-40.4386 196.709>
LayerCount: 2
Fore
SplineSet
200 725 m 1,0,1
 200 914 200 914 368 1059 c 2,2,-1
 501 1174 l 2,3,4
 570 1234 570 1234 570 1306 c 0,5,6
 570 1355 570 1355 542 1393 c 0,7,8
 506 1442 506 1442 447 1442 c 0,9,10
 383 1442 383 1442 333 1380 c 0,11,12
 292 1329 292 1329 258 1202 c 1,13,-1
 215 1202 l 1,14,-1
 215 1437 l 1,15,16
 334 1540 334 1540 455 1540 c 0,17,18
 560 1540 560 1540 637 1474 c 0,19,20
 716 1406 716 1406 716 1297 c 0,21,22
 716 1174 716 1174 614 1103 c 2,23,-1
 436 979 l 2,24,25
 403 956 403 956 375 928 c 1,26,27
 398 928 398 928 431 917 c 2,28,-1
 579 867 l 2,29,30
 600 860 600 860 620 860 c 0,31,32
 661 860 661 860 722 934 c 1,33,-1
 763 934 l 1,34,35
 725 725 725 725 603 725 c 0,36,37
 586 725 586 725 519 744 c 2,38,-1
 386 782 l 2,39,40
 358 790 358 790 345 790 c 0,41,42
 303 790 303 790 236 725 c 1,43,-1
 200 725 l 1,0,1
EndSplineSet
Validated: 3073
EndChar

StartChar: uni00B3
Encoding: 179 179 110
Width: 922
GlyphClass: 2
Flags: W
HStem: 725 95<334.583 527.304> 1451 89<353.207 503.218>
VStem: 200 43<984.749 1058> 260 43<1280 1351.09> 523 135<1260.75 1431.08> 570 152<860.575 1092.84>
LayerCount: 2
Fore
SplineSet
200 1058 m 1,0,-1
 243 1058 l 1,1,2
 268 948 268 948 318 883 c 0,3,4
 367 820 367 820 428 820 c 152,-1,5
 489 820 489 820 527 860 c 0,6,7
 570 905 570 905 570 974 c 0,8,9
 570 1049 570 1049 529 1092 c 0,10,11
 481 1142 481 1142 385 1168 c 1,12,-1
 385 1204 l 1,13,14
 461 1230 461 1230 494 1267 c 0,15,16
 523 1299 523 1299 523 1351 c 0,17,18
 523 1402 523 1402 497 1425 c 0,19,20
 467 1451 467 1451 432 1451 c 0,21,22
 386 1451 386 1451 354 1409 c 0,23,24
 324 1370 324 1370 303 1280 c 1,25,-1
 260 1280 l 1,26,-1
 260 1457 l 1,27,28
 349 1540 349 1540 437 1540 c 0,29,30
 523 1540 523 1540 576 1501 c 0,31,32
 658 1440 658 1440 658 1352 c 0,33,34
 658 1270 658 1270 598 1222 c 0,35,36
 578 1206 578 1206 556 1193 c 1,37,38
 609 1177 609 1177 648 1142 c 0,39,40
 722 1076 722 1076 722 976 c 0,41,42
 722 860 722 860 631 789 c 0,43,44
 550 725 550 725 434 725 c 0,45,46
 310 725 310 725 200 823 c 1,47,-1
 200 1058 l 1,0,-1
EndSplineSet
Validated: 3073
EndChar

StartChar: acute
Encoding: 180 180 111
Width: 810
GlyphClass: 2
Flags: W
HStem: 1153 397
VStem: 200 410
LayerCount: 2
Fore
SplineSet
220 1153 m 1,0,-1
 200 1175 l 1,1,-1
 402 1501 l 17,2,3
 433 1550 433 1550 494 1550 c 0,4,5
 545 1550 545 1550 578 1517 c 0,6,7
 610 1482 610 1482 610 1435 c 0,8,9
 610 1373 610 1373 564 1350 c 9,10,-1
 220 1153 l 1,0,-1
EndSplineSet
Validated: 3073
EndChar

StartChar: uni00B5
Encoding: 181 181 112
Width: 1310
GlyphClass: 2
Flags: W
HStem: -430 21G<220 301.5> -20 100<607.039 854.966> 1100 20G<338 420 1008.5 1090>
VStem: 220 200<-240.25 94 288.573 929.25> 890 200<172.5 929.25>
LayerCount: 2
Fore
SplineSet
50 1006 m 1,0,1
 256 1100 256 1100 420 1120 c 1,2,-1
 420 548 l 2,3,4
 420 338 420 338 495 234 c 0,5,6
 606 80 606 80 750 80 c 0,7,8
 890 80 890 80 890 256 c 2,9,-1
 890 847 l 2,10,11
 890 939 890 939 720 992 c 1,12,-1
 720 1006 l 1,13,14
 927 1100 927 1100 1090 1120 c 1,15,-1
 1090 257 l 2,16,17
 1090 162 1090 162 1260 109 c 1,18,-1
 1260 95 l 1,19,20
 1013 -20 1013 -20 810 -20 c 0,21,22
 576 -20 576 -20 420 94 c 1,23,-1
 420 -161 l 2,24,25
 420 -249 420 -249 590 -302 c 1,26,-1
 590 -316 l 1,27,28
 383 -410 383 -410 220 -430 c 1,29,-1
 220 847 l 2,30,31
 220 939 220 939 50 992 c 1,32,-1
 50 1006 l 1,0,1
EndSplineSet
Validated: 3073
EndChar

StartChar: paragraph
Encoding: 182 182 113
Width: 1082
GlyphClass: 2
Flags: W
HStem: 0 15<462 482.586 981.414 1002>
VStem: 150 553<948.501 1280.87> 632 71<106.79 764> 763 69<111.188 1281.66>
LayerCount: 2
Fore
SplineSet
462 0 m 1,0,-1
 462 15 l 1,1,2
 632 59 632 59 632 249 c 2,3,-1
 632 764 l 1,4,5
 588 760 588 760 552 760 c 0,6,7
 393 760 393 760 296 831 c 0,8,9
 150 938 150 938 150 1145 c 128,-1,10
 150 1352 150 1352 296 1459 c 0,11,12
 393 1530 393 1530 551 1530 c 0,13,14
 756 1530 756 1530 1002 1415 c 1,15,-1
 1002 1401 l 1,16,17
 832 1348 832 1348 832 1253 c 2,18,-1
 832 249 l 18,19,20
 832 60 832 60 1002 15 c 1,21,-1
 1002 0 l 1,22,-1
 763 0 l 1,23,-1
 763 1283 l 1,24,-1
 703 1283 l 1,25,-1
 703 0 l 1,26,-1
 462 0 l 1,0,-1
EndSplineSet
Validated: 3073
EndChar

StartChar: periodcentered
Encoding: 183 183 114
Width: 659
GlyphClass: 2
Flags: W
HStem: 625 264<239.191 420.324>
VStem: 200 259<664.707 849.293>
LayerCount: 2
Fore
SplineSet
200 757 m 128,-1,1
 200 812 200 812 238 850.5 c 128,-1,2
 276 889 276 889 330 889 c 128,-1,3
 384 889 384 889 421.5 850.5 c 128,-1,4
 459 812 459 812 459 757 c 128,-1,5
 459 702 459 702 421.5 663.5 c 128,-1,6
 384 625 384 625 330 625 c 128,-1,7
 276 625 276 625 238 663.5 c 128,-1,0
 200 702 200 702 200 757 c 128,-1,1
EndSplineSet
Validated: 3073
EndChar

StartChar: cedilla
Encoding: 184 184 115
Width: 730
GlyphClass: 2
Flags: W
HStem: -430 172<275.165 335.159>
VStem: 379 151<-224.338 -33.1113>
LayerCount: 2
Fore
SplineSet
209 92 m 1,0,1
 338 92 338 92 428 24 c 0,2,3
 530 -53 530 -53 530 -166 c 0,4,5
 530 -273 530 -273 466 -337 c 0,6,7
 390 -412 390 -412 282 -430 c 1,8,-1
 200 -258 l 1,9,10
 294 -258 294 -258 336.5 -224 c 128,-1,11
 379 -190 379 -190 379 -140 c 0,12,13
 379 -78 379 -78 338 -18 c 128,-1,14
 297 42 297 42 209 77 c 1,15,-1
 209 92 l 1,0,1
EndSplineSet
Validated: 3073
EndChar

StartChar: uni00B9
Encoding: 185 185 116
Width: 710
GlyphClass: 2
Flags: W
HStem: 735 43<200 250.116 461.606 510> 1530 20G<354.5 425>
VStem: 200 225<1336.78 1409.69> 285 140<794.504 1339.17>
LayerCount: 2
Fore
SplineSet
386 1550 m 1,0,-1
 425 1550 l 1,1,-1
 425 880 l 2,2,3
 425 798 425 798 510 778 c 1,4,-1
 510 735 l 1,5,-1
 200 735 l 1,6,-1
 200 778 l 1,7,8
 285 796 285 796 285 880 c 2,9,-1
 285 1252 l 2,10,11
 285 1336 285 1336 200 1355 c 1,12,-1
 200 1391 l 1,13,14
 323 1434 323 1434 386 1550 c 1,0,-1
EndSplineSet
Validated: 3073
EndChar

StartChar: ordmasculine
Encoding: 186 186 117
Width: 1050
GlyphClass: 2
Flags: W
HStem: 680 150<200 850> 940 97<451.316 595.455> 1453 97<451.193 597.229>
VStem: 272 150<1077.76 1413> 626 150<1077.4 1412.44>
LayerCount: 2
Fore
SplineSet
524 1550 m 0,0,1
 619 1550 619 1550 690 1476 c 0,2,3
 776 1386 776 1386 776 1245 c 0,4,5
 776 1103 776 1103 690 1014 c 0,6,7
 619 940 619 940 524 940 c 0,8,9
 426 940 426 940 357 1014 c 0,10,11
 272 1105 272 1105 272 1245 c 0,12,13
 272 1389 272 1389 358 1476 c 0,14,15
 431 1550 431 1550 524 1550 c 0,0,1
524 1037 m 0,16,17
 572 1037 572 1037 598 1085 c 0,18,19
 626 1134 626 1134 626 1245 c 0,20,21
 626 1359 626 1359 599 1405 c 0,22,23
 571 1453 571 1453 524 1453 c 0,24,25
 475 1453 475 1453 449 1405 c 0,26,27
 422 1356 422 1356 422 1245 c 0,28,29
 422 1131 422 1131 449 1085 c 0,30,31
 477 1037 477 1037 524 1037 c 0,16,17
200 830 m 1,32,-1
 850 830 l 1,33,-1
 850 680 l 1,34,-1
 200 680 l 1,35,-1
 200 830 l 1,32,-1
EndSplineSet
Validated: 3073
EndChar

StartChar: guillemotright
Encoding: 187 187 118
Width: 1223
GlyphClass: 2
Flags: W
DStem2: 326 1276 200 1145 0.577331 -0.81651<34.2192 545.454> 238 344 326 256 0.5547 0.83205<0 467.335> 723 1276 597 1145 0.577331 -0.81651<34.2192 545.454> 635 344 723 256 0.5547 0.83205<0 467.335>
LayerCount: 2
Fore
SplineSet
326 1276 m 1,0,-1
 676 781 l 1,1,-1
 326 256 l 1,2,-1
 238 344 l 1,3,-1
 500 731 l 1,4,-1
 200 1145 l 1,5,-1
 326 1276 l 1,0,-1
723 1276 m 1,6,-1
 1073 781 l 1,7,-1
 723 256 l 1,8,-1
 635 344 l 1,9,-1
 897 731 l 1,10,-1
 597 1145 l 1,11,-1
 723 1276 l 1,6,-1
EndSplineSet
Validated: 3073
EndChar

StartChar: onequarter
Encoding: 188 188 119
Width: 1545
GlyphClass: 2
Flags: W
HStem: -20 21G<312.714 363.261> 0 43<1032 1080.39 1293.61 1342> 180 101<933 1117 1257 1299> 735 43<200 250.116 461.606 510> 1510 40G<354.5 425 1112.73 1167.81>
VStem: 200 225<1336.78 1409.69> 285 140<794.504 1339.17> 1117 140<58.6709 180 281 522>
DStem2: 217 50 351 -20 0.522656 0.852544<10.3579 1736.34> 756 214 933 281 0.61111 0.791546<161.2 464.407>
LayerCount: 2
Fore
SplineSet
1032 0 m 1,0,-1
 1032 43 l 1,1,2
 1117 62 1117 62 1117 144 c 2,3,-1
 1117 180 l 1,4,-1
 756 180 l 1,5,-1
 756 214 l 1,6,-1
 1220 815 l 1,7,-1
 1257 815 l 1,8,-1
 1257 281 l 1,9,-1
 1345 281 l 1,10,-1
 1299 180 l 1,11,-1
 1257 180 l 1,12,-1
 1257 144 l 2,13,14
 1257 62 1257 62 1342 43 c 1,15,-1
 1342 0 l 1,16,-1
 1032 0 l 1,0,-1
1117 281 m 1,17,-1
 1117 522 l 1,18,-1
 933 281 l 1,19,-1
 1117 281 l 1,17,-1
1125 1530 m 1,20,-1
 1262 1466 l 1,21,-1
 351 -20 l 1,22,-1
 217 50 l 1,23,-1
 1125 1530 l 1,20,-1
386 1550 m 1,24,-1
 425 1550 l 1,25,-1
 425 880 l 2,26,27
 425 798 425 798 510 778 c 1,28,-1
 510 735 l 1,29,-1
 200 735 l 1,30,-1
 200 778 l 1,31,32
 285 796 285 796 285 880 c 2,33,-1
 285 1252 l 2,34,35
 285 1336 285 1336 200 1355 c 1,36,-1
 200 1391 l 1,37,38
 323 1434 323 1434 386 1550 c 1,24,-1
EndSplineSet
Validated: 3073
EndChar

StartChar: onehalf
Encoding: 189 189 120
Width: 1703
GlyphClass: 2
Flags: W
HStem: -10 135<1207.52 1434.09> 55 138<1115 1254.25> 707 98<1089.24 1278.59> 735 43<200 250.116 461.606 510> 1510 40G<354.5 425 1112.73 1167.81>
VStem: 200 225<1336.78 1409.69> 285 140<794.504 1339.17> 955 43<467 535.708> 1310 146<464.099 666.897>
DStem2: 217 50 351 -20 0.522656 0.852544<10.3579 1736.34> 1171 182 1126 47 0.947395 -0.320066<-40.4386 196.709>
LayerCount: 2
Fore
SplineSet
940 -10 m 1,0,1
 940 179 940 179 1108 324 c 2,2,-1
 1241 439 l 2,3,4
 1310 499 1310 499 1310 571 c 0,5,6
 1310 620 1310 620 1282 658 c 0,7,8
 1246 707 1246 707 1187 707 c 0,9,10
 1123 707 1123 707 1073 645 c 0,11,12
 1032 594 1032 594 998 467 c 1,13,-1
 955 467 l 1,14,-1
 955 702 l 1,15,16
 1074 805 1074 805 1195 805 c 0,17,18
 1300 805 1300 805 1377 739 c 0,19,20
 1456 671 1456 671 1456 562 c 0,21,22
 1456 439 1456 439 1354 368 c 2,23,-1
 1176 244 l 2,24,25
 1143 221 1143 221 1115 193 c 1,26,27
 1138 193 1138 193 1171 182 c 2,28,-1
 1319 132 l 2,29,30
 1340 125 1340 125 1360 125 c 0,31,32
 1401 125 1401 125 1462 199 c 1,33,-1
 1503 199 l 1,34,35
 1465 -10 1465 -10 1343 -10 c 0,36,37
 1326 -10 1326 -10 1259 9 c 2,38,-1
 1126 47 l 2,39,40
 1098 55 1098 55 1085 55 c 0,41,42
 1043 55 1043 55 976 -10 c 1,43,-1
 940 -10 l 1,0,1
1125 1530 m 1,44,-1
 1262 1466 l 1,45,-1
 351 -20 l 1,46,-1
 217 50 l 1,47,-1
 1125 1530 l 1,44,-1
386 1550 m 1,48,-1
 425 1550 l 1,49,-1
 425 880 l 2,50,51
 425 798 425 798 510 778 c 1,52,-1
 510 735 l 1,53,-1
 200 735 l 1,54,-1
 200 778 l 1,55,56
 285 796 285 796 285 880 c 2,57,-1
 285 1252 l 2,58,59
 285 1336 285 1336 200 1355 c 1,60,-1
 200 1391 l 1,61,62
 323 1434 323 1434 386 1550 c 1,48,-1
EndSplineSet
Validated: 3073
EndChar

StartChar: threequarters
Encoding: 190 190 121
Width: 1745
GlyphClass: 2
Flags: W
HStem: -20 21G<512.714 563.261> 0 43<1232 1280.39 1493.61 1542> 180 101<1133 1317 1457 1499> 725 95<334.583 527.304> 1451 89<353.207 503.218>
VStem: 200 43<984.749 1058> 260 43<1280 1351.09> 523 135<1260.75 1431.08> 570 152<860.575 1092.84> 1317 140<58.6709 180 281 522>
DStem2: 417 50 551 -20 0.522656 0.852544<10.3579 1736.34> 956 214 1133 281 0.61111 0.791546<161.2 464.407>
LayerCount: 2
Fore
SplineSet
200 1058 m 1,0,-1
 243 1058 l 1,1,2
 268 948 268 948 318 883 c 0,3,4
 367 820 367 820 428 820 c 152,-1,5
 489 820 489 820 527 860 c 0,6,7
 570 905 570 905 570 974 c 0,8,9
 570 1049 570 1049 529 1092 c 0,10,11
 481 1142 481 1142 385 1168 c 1,12,-1
 385 1204 l 1,13,14
 461 1230 461 1230 494 1267 c 0,15,16
 523 1299 523 1299 523 1351 c 0,17,18
 523 1402 523 1402 497 1425 c 0,19,20
 467 1451 467 1451 432 1451 c 0,21,22
 386 1451 386 1451 354 1409 c 0,23,24
 324 1370 324 1370 303 1280 c 1,25,-1
 260 1280 l 1,26,-1
 260 1457 l 1,27,28
 349 1540 349 1540 437 1540 c 0,29,30
 523 1540 523 1540 576 1501 c 0,31,32
 658 1440 658 1440 658 1352 c 0,33,34
 658 1270 658 1270 598 1222 c 0,35,36
 578 1206 578 1206 556 1193 c 1,37,38
 609 1177 609 1177 648 1142 c 0,39,40
 722 1076 722 1076 722 976 c 0,41,42
 722 860 722 860 631 789 c 0,43,44
 550 725 550 725 434 725 c 0,45,46
 310 725 310 725 200 823 c 1,47,-1
 200 1058 l 1,0,-1
1232 0 m 1,48,-1
 1232 43 l 1,49,50
 1317 62 1317 62 1317 144 c 2,51,-1
 1317 180 l 1,52,-1
 956 180 l 1,53,-1
 956 214 l 1,54,-1
 1420 815 l 1,55,-1
 1457 815 l 1,56,-1
 1457 281 l 1,57,-1
 1545 281 l 1,58,-1
 1499 180 l 1,59,-1
 1457 180 l 1,60,-1
 1457 144 l 2,61,62
 1457 62 1457 62 1542 43 c 1,63,-1
 1542 0 l 1,64,-1
 1232 0 l 1,48,-1
1317 281 m 1,65,-1
 1317 522 l 1,66,-1
 1133 281 l 1,67,-1
 1317 281 l 1,65,-1
1325 1530 m 1,68,-1
 1462 1466 l 1,69,-1
 551 -20 l 1,70,-1
 417 50 l 1,71,-1
 1325 1530 l 1,68,-1
EndSplineSet
Validated: 3073
EndChar

StartChar: questiondown
Encoding: 191 191 122
Width: 1235
GlyphClass: 2
Flags: W
HStem: -20 116<506.372 814.329> 1266 264<598.676 779.809>
VStem: 150 215<240.243 590.96> 560 259<1305.71 1490.29> 654 93<1000.74 1128> 1070 15<549.477 576>
LayerCount: 2
Fore
SplineSet
747 1128 m 1,0,1
 747 970 747 970 625 846 c 2,2,-1
 519 738 l 2,3,4
 365 581 365 581 365 423 c 24,5,6
 365 295 365 295 424 217 c 0,7,8
 517 96 517 96 663 96 c 0,9,10
 810 96 810 96 921 236 c 0,11,12
 1020 361 1020 361 1070 576 c 1,13,-1
 1085 576 l 1,14,-1
 1085 164 l 1,15,16
 880 -20 880 -20 649 -20 c 0,17,18
 452 -20 452 -20 303 106 c 0,19,20
 150 235 150 235 150 426 c 24,21,22
 150 615 150 615 349 775 c 2,23,-1
 541 929 l 2,24,25
 654 1020 654 1020 654 1128 c 1,26,-1
 747 1128 l 1,0,1
819 1398 m 128,-1,28
 819 1343 819 1343 781 1304.5 c 128,-1,29
 743 1266 743 1266 689 1266 c 128,-1,30
 635 1266 635 1266 597.5 1304.5 c 128,-1,31
 560 1343 560 1343 560 1398 c 128,-1,32
 560 1453 560 1453 597.5 1491.5 c 128,-1,33
 635 1530 635 1530 689 1530 c 128,-1,34
 743 1530 743 1530 781 1491.5 c 128,-1,27
 819 1453 819 1453 819 1398 c 128,-1,28
EndSplineSet
Validated: 3073
EndChar

StartChar: Delta
Encoding: 916 916 123
Width: 1418
GlyphClass: 2
Flags: W
HStem: 0 126<207 1140> 1530 20G<705.839 738.813>
DStem2: 5 0 207 126 0.416453 0.909157<198.677 1357.81> 730 1550 685 1182 0.403233 -0.915097<318.61 1468.42>
LayerCount: 2
Fore
SplineSet
1140 126 m 25,0,-1
 685 1182 l 1,1,-1
 207 126 l 25,2,-1
 1140 126 l 25,0,-1
5 0 m 25,3,-1
 715 1550 l 1,4,-1
 730 1550 l 1,5,-1
 1413 0 l 25,6,-1
 5 0 l 25,3,-1
EndSplineSet
Validated: 3073
EndChar

StartChar: Pi
Encoding: 928 928 124
Width: 1548
GlyphClass: 2
Flags: W
HStem: 0 15<80 100.586 599.414 620 928 948.586 1447.41 1468> 1408 102<466.365 1081.63> 1495 15<80 100.586 1447.41 1468>
VStem: 250 200<95.5 1406.18> 1098 200<95.5 1406.18>
LayerCount: 2
Fore
SplineSet
80 0 m 1,0,-1
 80 15 l 1,1,2
 250 59 250 59 250 249 c 2,3,-1
 250 1260 l 2,4,5
 250 1450 250 1450 80 1495 c 1,6,-1
 80 1510 l 1,7,-1
 1468 1510 l 1,8,-1
 1468 1495 l 1,9,10
 1298 1450 1298 1450 1298 1260 c 2,11,-1
 1298 249 l 2,12,13
 1298 59 1298 59 1468 15 c 1,14,-1
 1468 0 l 1,15,-1
 928 0 l 1,16,-1
 928 15 l 1,17,18
 1098 58 1098 58 1098 249 c 2,19,-1
 1098 1260 l 2,20,21
 1098 1350 1098 1350 1060 1408 c 1,22,-1
 488 1408 l 17,23,24
 450 1350 450 1350 450 1260 c 2,25,-1
 450 249 l 2,26,27
 450 58 450 58 620 15 c 1,28,-1
 620 0 l 1,29,-1
 80 0 l 1,0,-1
EndSplineSet
Validated: 3073
EndChar

StartChar: Sigma
Encoding: 931 931 125
Width: 1362
GlyphClass: 2
Flags: W
HStem: 0 102<463.391 1051.1> 1408 102<466.03 921.098>
DStem2: 80 15 470 249 0.591605 0.806228<366.737 899.249> 832 740 612 740 0.576003 -0.817448<-682.382 -126.721>
LayerCount: 2
Fore
SplineSet
80 0 m 1,0,-1
 80 15 l 9,1,-1
 612 740 l 1,2,-1
 80 1495 l 17,3,-1
 80 1510 l 1,4,-1
 1006 1510 l 1,5,-1
 1192 1188 l 1,6,-1
 1177 1188 l 1,7,8
 965 1408 965 1408 698 1408 c 2,9,-1
 488 1408 l 1,10,11
 455 1352 455 1352 455 1310 c 0,12,13
 455 1282 455 1282 470 1260 c 2,14,-1
 832 740 l 1,15,-1
 470 249 l 2,16,17
 452 225 452 225 452 196 c 0,18,19
 452 154 452 154 488 102 c 9,20,-1
 828 102 l 2,21,22
 1095 102 1095 102 1307 322 c 1,23,-1
 1322 322 l 1,24,-1
 1136 0 l 1,25,-1
 80 0 l 1,0,-1
EndSplineSet
Validated: 3073
EndChar

StartChar: Omega
Encoding: 937 937 126
Width: 1424
GlyphClass: 2
Flags: W
HStem: 1425 105<565.642 856.651>
VStem: 130 218<533.45 1093.29> 510 86<118 190.75> 828 86<118 190.984> 1076 218<522.419 1092.23>
LayerCount: 2
Fore
SplineSet
288 0 m 1,0,-1
 102 342 l 1,1,-1
 117 342 l 1,2,3
 306 158 306 158 510 118 c 1,4,-1
 510 172 l 1,5,6
 423 205 423 205 348 274 c 0,7,8
 130 476 130 476 130 805 c 0,9,10
 130 1152 130 1152 348 1376 c 0,11,12
 498 1530 498 1530 712 1530 c 128,-1,13
 926 1530 926 1530 1076 1376 c 0,14,15
 1294 1152 1294 1152 1294 805 c 0,16,17
 1294 450 1294 450 1076 274 c 24,18,19
 983 199 983 199 914 172 c 1,20,-1
 914 118 l 1,21,22
 1118 148 1118 148 1307 342 c 1,23,-1
 1322 342 l 1,24,-1
 1136 0 l 1,25,-1
 828 0 l 1,26,-1
 828 262 l 1,27,28
 906 288 906 288 954 355 c 0,29,30
 1076 525 1076 525 1076 805 c 0,31,32
 1076 1131 1076 1131 948 1294 c 0,33,34
 845 1425 845 1425 712 1425 c 0,35,36
 572 1425 572 1425 476 1294 c 0,37,38
 348 1120 348 1120 348 805 c 0,39,40
 348 543 348 543 476 356 c 0,41,42
 524 286 524 286 596 262 c 1,43,-1
 596 0 l 1,44,-1
 288 0 l 1,0,-1
EndSplineSet
Validated: 3073
EndChar

StartChar: mu
Encoding: 956 956 127
Width: 1310
GlyphClass: 2
Flags: W
HStem: -430 21G<220 301.5> -20 100<607.039 854.966> 1100 20G<338 420 1008.5 1090>
VStem: 220 200<-240.25 94 288.573 929.25> 890 200<172.5 929.25>
LayerCount: 2
Fore
SplineSet
50 1006 m 1,0,1
 256 1100 256 1100 420 1120 c 1,2,-1
 420 548 l 2,3,4
 420 338 420 338 495 234 c 0,5,6
 606 80 606 80 750 80 c 0,7,8
 890 80 890 80 890 256 c 2,9,-1
 890 847 l 2,10,11
 890 939 890 939 720 992 c 1,12,-1
 720 1006 l 1,13,14
 927 1100 927 1100 1090 1120 c 1,15,-1
 1090 257 l 2,16,17
 1090 162 1090 162 1260 109 c 1,18,-1
 1260 95 l 1,19,20
 1013 -20 1013 -20 810 -20 c 0,21,22
 576 -20 576 -20 420 94 c 1,23,-1
 420 -161 l 2,24,25
 420 -249 420 -249 590 -302 c 1,26,-1
 590 -316 l 1,27,28
 383 -410 383 -410 220 -430 c 1,29,-1
 220 847 l 2,30,31
 220 939 220 939 50 992 c 1,32,-1
 50 1006 l 1,0,1
EndSplineSet
Validated: 3073
EndChar

StartChar: pi
Encoding: 960 960 128
Width: 1340
GlyphClass: 2
Flags: W
HStem: 0 15<80 100.586 599.414 620 720 740.586 1239.41 1260> 998 102<466.365 873.635> 1085 15<80 100.586 1239.41 1260>
VStem: 250 200<95.5 996.18> 890 200<95.5 996.18>
LayerCount: 2
Fore
SplineSet
80 0 m 1,0,-1
 80 15 l 1,1,2
 250 59 250 59 250 249 c 2,3,-1
 250 850 l 2,4,5
 250 1040 250 1040 80 1085 c 1,6,-1
 80 1100 l 1,7,-1
 1260 1100 l 1,8,-1
 1260 1085 l 1,9,10
 1090 1040 1090 1040 1090 850 c 2,11,-1
 1090 249 l 2,12,13
 1090 59 1090 59 1260 15 c 1,14,-1
 1260 0 l 1,15,-1
 720 0 l 1,16,-1
 720 15 l 1,17,18
 890 58 890 58 890 249 c 2,19,-1
 890 850 l 2,20,21
 890 940 890 940 852 998 c 1,22,-1
 488 998 l 17,23,24
 450 940 450 940 450 850 c 2,25,-1
 450 249 l 2,26,27
 450 58 450 58 620 15 c 1,28,-1
 620 0 l 1,29,-1
 80 0 l 1,0,-1
EndSplineSet
Validated: 3073
EndChar

StartChar: uni2010
Encoding: 8208 8208 129
Width: 933
GlyphClass: 2
Flags: W
HStem: 680 150<200 733>
VStem: 200 533<680 830>
LayerCount: 2
Fore
SplineSet
200 830 m 1,0,-1
 733 830 l 1,1,-1
 733 680 l 1,2,-1
 200 680 l 1,3,-1
 200 830 l 1,0,-1
EndSplineSet
Validated: 3073
EndChar

StartChar: uni2011
Encoding: 8209 8209 130
Width: 933
GlyphClass: 2
Flags: W
HStem: 680 150<200 733>
VStem: 200 533<680 830>
LayerCount: 2
Fore
SplineSet
200 830 m 1,0,-1
 733 830 l 1,1,-1
 733 680 l 1,2,-1
 200 680 l 1,3,-1
 200 830 l 1,0,-1
EndSplineSet
Validated: 3073
EndChar

StartChar: figuredash
Encoding: 8210 8210 131
Width: 1233
GlyphClass: 2
Flags: W
HStem: 680 150<200 1033>
LayerCount: 2
Fore
SplineSet
200 830 m 1,0,-1
 1033 830 l 1,1,-1
 1033 680 l 1,2,-1
 200 680 l 1,3,-1
 200 830 l 1,0,-1
EndSplineSet
Validated: 3073
EndChar

StartChar: endash
Encoding: 8211 8211 132
Width: 1233
GlyphClass: 2
Flags: W
HStem: 680 150<200 1033>
LayerCount: 2
Fore
SplineSet
200 830 m 1,0,-1
 1033 830 l 1,1,-1
 1033 680 l 1,2,-1
 200 680 l 1,3,-1
 200 830 l 1,0,-1
EndSplineSet
Validated: 3073
EndChar

StartChar: emdash
Encoding: 8212 8212 133
Width: 1533
GlyphClass: 2
Flags: W
HStem: 680 150<200 1333>
LayerCount: 2
Fore
SplineSet
200 830 m 1,0,-1
 1333 830 l 1,1,-1
 1333 680 l 1,2,-1
 200 680 l 1,3,-1
 200 830 l 1,0,-1
EndSplineSet
Validated: 3073
EndChar

StartChar: afii00208
Encoding: 8213 8213 134
Width: 1533
GlyphClass: 2
Flags: W
HStem: 680 150<200 1333>
LayerCount: 2
Fore
SplineSet
200 830 m 1,0,-1
 1333 830 l 1,1,-1
 1333 680 l 1,2,-1
 200 680 l 1,3,-1
 200 830 l 1,0,-1
EndSplineSet
Validated: 3073
EndChar

StartChar: underscoredbl
Encoding: 8215 8215 135
Width: 1233
GlyphClass: 2
Flags: W
HStem: -410 150<200 1033> -200 150<200 1033>
LayerCount: 2
Fore
SplineSet
200 -260 m 1,0,-1
 1033 -260 l 1,1,-1
 1033 -410 l 1,2,-1
 200 -410 l 1,3,-1
 200 -260 l 1,0,-1
200 -50 m 1,4,-1
 1033 -50 l 1,5,-1
 1033 -200 l 1,6,-1
 200 -200 l 1,7,-1
 200 -50 l 1,4,-1
EndSplineSet
Validated: 3073
EndChar

StartChar: quoteleft
Encoding: 8216 8216 136
Width: 705
GlyphClass: 2
Flags: W
HStem: 1059 491
VStem: 200 272<1099.19 1286.81>
LayerCount: 2
Fore
SplineSet
525 1550 m 1,0,-1
 525 1535 l 1,1,2
 438 1486 438 1486 385 1412 c 0,3,4
 358 1374 358 1374 342 1324 c 1,5,6
 399 1324 399 1324 435 1288 c 0,7,8
 472 1250 472 1250 472 1194 c 0,9,10
 472 1136 472 1136 435 1098 c 0,11,12
 397 1059 397 1059 341 1059 c 128,-1,13
 285 1059 285 1059 247 1094 c 0,14,15
 200 1137 200 1137 200 1227 c 0,16,17
 200 1310 200 1310 245 1382 c 0,18,19
 319 1499 319 1499 428 1536 c 0,20,21
 469 1550 469 1550 525 1550 c 1,0,-1
EndSplineSet
Validated: 3073
EndChar

StartChar: quoteright
Encoding: 8217 8217 137
Width: 705
GlyphClass: 2
Flags: W
HStem: 1059 491
VStem: 233 272<1322.19 1509.81>
LayerCount: 2
Fore
SplineSet
180 1074 m 1,0,1
 267 1123 267 1123 320 1197 c 0,2,3
 347 1235 347 1235 363 1285 c 1,4,5
 306 1285 306 1285 270 1321 c 0,6,7
 233 1359 233 1359 233 1415 c 0,8,9
 233 1473 233 1473 270 1511 c 0,10,11
 308 1550 308 1550 364 1550 c 128,-1,12
 420 1550 420 1550 458 1515 c 0,13,14
 505 1472 505 1472 505 1382 c 0,15,16
 505 1299 505 1299 460 1227 c 0,17,18
 386 1110 386 1110 277 1073 c 0,19,20
 236 1059 236 1059 180 1059 c 1,21,-1
 180 1074 l 1,0,1
EndSplineSet
Validated: 3073
EndChar

StartChar: quotesinglbase
Encoding: 8218 8218 138
Width: 705
GlyphClass: 2
Flags: W
HStem: -246 491
VStem: 233 272<17.1919 204.808>
LayerCount: 2
Fore
SplineSet
180 -231 m 1,0,1
 267 -182 267 -182 320 -108 c 0,2,3
 347 -70 347 -70 363 -20 c 1,4,5
 306 -20 306 -20 270 16 c 0,6,7
 233 54 233 54 233 110 c 0,8,9
 233 168 233 168 270 206 c 0,10,11
 308 245 308 245 364 245 c 128,-1,12
 420 245 420 245 458 210 c 0,13,14
 505 167 505 167 505 77 c 0,15,16
 505 -6 505 -6 460 -78 c 0,17,18
 386 -195 386 -195 277 -232 c 0,19,20
 236 -246 236 -246 180 -246 c 1,21,-1
 180 -231 l 1,0,1
EndSplineSet
Validated: 3073
EndChar

StartChar: quotereversed
Encoding: 8219 8219 139
Width: 705
GlyphClass: 2
Flags: W
HStem: 1059 491
VStem: 200 272<1322.19 1509.81>
LayerCount: 2
Fore
SplineSet
525 1074 m 1,0,1
 525 1059 l 1,2,3
 469 1059 469 1059 428 1073 c 0,4,5
 319 1110 319 1110 245 1227 c 0,6,7
 200 1299 200 1299 200 1382 c 0,8,9
 200 1472 200 1472 247 1515 c 0,10,11
 285 1550 285 1550 341 1550 c 128,-1,12
 397 1550 397 1550 435 1511 c 0,13,14
 472 1473 472 1473 472 1415 c 0,15,16
 472 1359 472 1359 435 1321 c 0,17,18
 399 1285 399 1285 342 1285 c 1,19,20
 358 1235 358 1235 385 1197 c 0,21,22
 438 1123 438 1123 525 1074 c 1,0,1
EndSplineSet
Validated: 3073
EndChar

StartChar: quotedblleft
Encoding: 8220 8220 140
Width: 1055
GlyphClass: 2
Flags: W
HStem: 1059 265<342 433.808 692 783.808> 1530 20G<497 525 847 875>
VStem: 200 272<1099.19 1286.81> 550 272<1099.19 1286.81>
LayerCount: 2
Fore
SplineSet
525 1535 m 1,0,1
 438 1486 438 1486 385 1412 c 0,2,3
 358 1374 358 1374 342 1324 c 1,4,5
 399 1324 399 1324 435 1288 c 0,6,7
 472 1250 472 1250 472 1194 c 0,8,9
 472 1136 472 1136 435 1098 c 0,10,11
 397 1059 397 1059 341 1059 c 128,-1,12
 285 1059 285 1059 247 1094 c 0,13,14
 200 1137 200 1137 200 1227 c 0,15,16
 200 1310 200 1310 245 1382 c 0,17,18
 319 1499 319 1499 428 1536 c 0,19,20
 469 1550 469 1550 525 1550 c 1,21,-1
 525 1535 l 1,0,1
875 1535 m 1,22,23
 788 1486 788 1486 735 1412 c 0,24,25
 708 1374 708 1374 692 1324 c 1,26,27
 749 1324 749 1324 785 1288 c 0,28,29
 822 1250 822 1250 822 1194 c 0,30,31
 822 1136 822 1136 785 1098 c 0,32,33
 747 1059 747 1059 691 1059 c 128,-1,34
 635 1059 635 1059 597 1094 c 0,35,36
 550 1137 550 1137 550 1227 c 0,37,38
 550 1310 550 1310 595 1382 c 0,39,40
 669 1499 669 1499 778 1536 c 0,41,42
 819 1550 819 1550 875 1550 c 1,43,-1
 875 1535 l 1,22,23
EndSplineSet
Validated: 3073
EndChar

StartChar: quotedblright
Encoding: 8221 8221 141
Width: 1055
GlyphClass: 2
Flags: W
HStem: 1285 265<271.192 363 621.192 713>
VStem: 233 272<1322.19 1509.81> 583 272<1322.19 1509.81>
LayerCount: 2
Fore
SplineSet
530 1074 m 1,0,1
 617 1123 617 1123 670 1197 c 0,2,3
 697 1235 697 1235 713 1285 c 1,4,5
 656 1285 656 1285 620 1321 c 0,6,7
 583 1359 583 1359 583 1415 c 0,8,9
 583 1473 583 1473 620 1511 c 0,10,11
 658 1550 658 1550 714 1550 c 128,-1,12
 770 1550 770 1550 808 1515 c 0,13,14
 855 1472 855 1472 855 1382 c 0,15,16
 855 1299 855 1299 810 1227 c 0,17,18
 736 1110 736 1110 627 1073 c 0,19,20
 586 1059 586 1059 530 1059 c 1,21,-1
 530 1074 l 1,0,1
180 1074 m 1,22,23
 267 1123 267 1123 320 1197 c 0,24,25
 347 1235 347 1235 363 1285 c 1,26,27
 306 1285 306 1285 270 1321 c 0,28,29
 233 1359 233 1359 233 1415 c 0,30,31
 233 1473 233 1473 270 1511 c 0,32,33
 308 1550 308 1550 364 1550 c 128,-1,34
 420 1550 420 1550 458 1515 c 0,35,36
 505 1472 505 1472 505 1382 c 0,37,38
 505 1299 505 1299 460 1227 c 0,39,40
 386 1110 386 1110 277 1073 c 0,41,42
 236 1059 236 1059 180 1059 c 1,43,-1
 180 1074 l 1,22,23
EndSplineSet
Validated: 3073
EndChar

StartChar: quotedblbase
Encoding: 8222 8222 142
Width: 1055
GlyphClass: 2
Flags: W
HStem: -20 265<271.192 363 621.192 713>
VStem: 233 272<17.1919 204.808> 583 272<17.1919 204.808>
LayerCount: 2
Fore
SplineSet
530 -231 m 1,0,1
 617 -182 617 -182 670 -108 c 0,2,3
 697 -70 697 -70 713 -20 c 1,4,5
 656 -20 656 -20 620 16 c 0,6,7
 583 54 583 54 583 110 c 0,8,9
 583 168 583 168 620 206 c 0,10,11
 658 245 658 245 714 245 c 128,-1,12
 770 245 770 245 808 210 c 0,13,14
 855 167 855 167 855 77 c 0,15,16
 855 -6 855 -6 810 -78 c 0,17,18
 736 -195 736 -195 627 -232 c 0,19,20
 586 -246 586 -246 530 -246 c 1,21,-1
 530 -231 l 1,0,1
180 -231 m 1,22,23
 267 -182 267 -182 320 -108 c 0,24,25
 347 -70 347 -70 363 -20 c 1,26,27
 306 -20 306 -20 270 16 c 0,28,29
 233 54 233 54 233 110 c 0,30,31
 233 168 233 168 270 206 c 0,32,33
 308 245 308 245 364 245 c 128,-1,34
 420 245 420 245 458 210 c 0,35,36
 505 167 505 167 505 77 c 0,37,38
 505 -6 505 -6 460 -78 c 0,39,40
 386 -195 386 -195 277 -232 c 0,41,42
 236 -246 236 -246 180 -246 c 1,43,-1
 180 -231 l 1,22,23
EndSplineSet
Validated: 3073
EndChar

StartChar: uni201F
Encoding: 8223 8223 143
Width: 1055
GlyphClass: 2
Flags: W
HStem: 1285 265<342 433.808 692 783.808>
VStem: 200 272<1322.19 1509.81> 550 272<1322.19 1509.81>
LayerCount: 2
Fore
SplineSet
525 1074 m 1,0,1
 525 1059 l 1,2,3
 469 1059 469 1059 428 1073 c 0,4,5
 319 1110 319 1110 245 1227 c 0,6,7
 200 1299 200 1299 200 1382 c 0,8,9
 200 1472 200 1472 247 1515 c 0,10,11
 285 1550 285 1550 341 1550 c 128,-1,12
 397 1550 397 1550 435 1511 c 0,13,14
 472 1473 472 1473 472 1415 c 0,15,16
 472 1359 472 1359 435 1321 c 0,17,18
 399 1285 399 1285 342 1285 c 1,19,20
 358 1235 358 1235 385 1197 c 0,21,22
 438 1123 438 1123 525 1074 c 1,0,1
875 1074 m 1,23,-1
 875 1059 l 1,24,25
 819 1059 819 1059 778 1073 c 0,26,27
 669 1110 669 1110 595 1227 c 0,28,29
 550 1299 550 1299 550 1382 c 0,30,31
 550 1472 550 1472 597 1515 c 0,32,33
 635 1550 635 1550 691 1550 c 128,-1,34
 747 1550 747 1550 785 1511 c 0,35,36
 822 1473 822 1473 822 1415 c 0,37,38
 822 1359 822 1359 785 1321 c 0,39,40
 749 1285 749 1285 692 1285 c 1,41,42
 708 1235 708 1235 735 1197 c 0,43,44
 788 1123 788 1123 875 1074 c 1,23,-1
EndSplineSet
Validated: 3073
EndChar

StartChar: dagger
Encoding: 8224 8224 144
Width: 1233
GlyphClass: 2
Flags: W
HStem: 0 21G<518 715> 996 157<200 518 715 1033> 1490 20G<518 715>
VStem: 518 197<0 996 1153 1510>
LayerCount: 2
Fore
SplineSet
518 0 m 1,0,-1
 518 996 l 1,1,-1
 200 996 l 1,2,-1
 200 1153 l 1,3,-1
 518 1153 l 1,4,-1
 518 1510 l 1,5,-1
 715 1510 l 1,6,-1
 715 1153 l 1,7,-1
 1033 1153 l 1,8,-1
 1033 996 l 1,9,-1
 715 996 l 1,10,-1
 715 0 l 1,11,-1
 518 0 l 1,0,-1
EndSplineSet
Validated: 3073
EndChar

StartChar: daggerdbl
Encoding: 8225 8225 145
Width: 1233
GlyphClass: 2
Flags: W
HStem: 0 21G<518 715> 358 157<200 518 715 1033> 996 157<200 518 715 1033> 1490 20G<518 715>
VStem: 518 197<0 358 515 996 1153 1510>
LayerCount: 2
Fore
SplineSet
518 0 m 1,0,-1
 518 358 l 1,1,-1
 200 358 l 1,2,-1
 200 515 l 1,3,-1
 518 515 l 1,4,-1
 518 996 l 1,5,-1
 200 996 l 1,6,-1
 200 1153 l 1,7,-1
 518 1153 l 1,8,-1
 518 1510 l 1,9,-1
 715 1510 l 1,10,-1
 715 1153 l 1,11,-1
 1033 1153 l 1,12,-1
 1033 996 l 1,13,-1
 715 996 l 1,14,-1
 715 515 l 1,15,-1
 1033 515 l 1,16,-1
 1033 358 l 1,17,-1
 715 358 l 1,18,-1
 715 0 l 1,19,-1
 518 0 l 1,0,-1
EndSplineSet
Validated: 3073
EndChar

StartChar: bullet
Encoding: 8226 8226 146
Width: 980
GlyphClass: 2
Flags: W
HStem: 470 572<335.581 644.419>
VStem: 200 580<603.979 908.763>
LayerCount: 2
Fore
SplineSet
200 756.5 m 128,-1,1
 200 875 200 875 285 958.5 c 128,-1,2
 370 1042 370 1042 490 1042 c 128,-1,3
 610 1042 610 1042 695 958.5 c 128,-1,4
 780 875 780 875 780 756.5 c 128,-1,5
 780 638 780 638 695 554 c 128,-1,6
 610 470 610 470 490 470 c 128,-1,7
 370 470 370 470 285 554 c 128,-1,0
 200 638 200 638 200 756.5 c 128,-1,1
EndSplineSet
Validated: 3073
EndChar

StartChar: uni2023
Encoding: 8227 8227 147
Width: 978
GlyphClass: 2
Flags: W
VStem: 200 628
LayerCount: 2
Fore
SplineSet
200 354 m 1,0,-1
 200 1133 l 1,1,-1
 828 758 l 1,2,-1
 200 354 l 1,0,-1
EndSplineSet
Validated: 3073
EndChar

StartChar: onedotenleader
Encoding: 8228 8228 148
Width: 659
GlyphClass: 2
Flags: W
HStem: -20 264<239.191 420.324>
VStem: 200 259<19.7072 204.293>
LayerCount: 2
Fore
SplineSet
200 112 m 128,-1,1
 200 167 200 167 238 205.5 c 128,-1,2
 276 244 276 244 330 244 c 128,-1,3
 384 244 384 244 421.5 205.5 c 128,-1,4
 459 167 459 167 459 112 c 128,-1,5
 459 57 459 57 421.5 18.5 c 128,-1,6
 384 -20 384 -20 330 -20 c 128,-1,7
 276 -20 276 -20 238 18.5 c 128,-1,0
 200 57 200 57 200 112 c 128,-1,1
EndSplineSet
Validated: 3073
EndChar

StartChar: twodotenleader
Encoding: 8229 8229 149
Width: 1042
GlyphClass: 2
Flags: W
HStem: -20 264<239.191 420.324 622.191 803.324>
VStem: 200 259<19.7072 204.293> 583 259<19.7072 204.293>
LayerCount: 2
Fore
SplineSet
583 112 m 128,-1,1
 583 167 583 167 621 205.5 c 128,-1,2
 659 244 659 244 713 244 c 128,-1,3
 767 244 767 244 804.5 205.5 c 128,-1,4
 842 167 842 167 842 112 c 128,-1,5
 842 57 842 57 804.5 18.5 c 128,-1,6
 767 -20 767 -20 713 -20 c 128,-1,7
 659 -20 659 -20 621 18.5 c 128,-1,0
 583 57 583 57 583 112 c 128,-1,1
200 112 m 128,-1,9
 200 167 200 167 238 205.5 c 128,-1,10
 276 244 276 244 330 244 c 128,-1,11
 384 244 384 244 421.5 205.5 c 128,-1,12
 459 167 459 167 459 112 c 128,-1,13
 459 57 459 57 421.5 18.5 c 128,-1,14
 384 -20 384 -20 330 -20 c 128,-1,15
 276 -20 276 -20 238 18.5 c 128,-1,8
 200 57 200 57 200 112 c 128,-1,9
EndSplineSet
Validated: 3073
EndChar

StartChar: ellipsis
Encoding: 8230 8230 150
Width: 1425
GlyphClass: 2
Flags: W
HStem: -20 264<239.191 420.324 622.191 803.324 1005.19 1186.32>
VStem: 200 259<19.7072 204.293> 583 259<19.7072 204.293> 966 259<19.7072 204.293>
CounterMasks: 1 70
LayerCount: 2
Fore
SplineSet
966 112 m 128,-1,1
 966 167 966 167 1004 205.5 c 128,-1,2
 1042 244 1042 244 1096 244 c 128,-1,3
 1150 244 1150 244 1187.5 205.5 c 128,-1,4
 1225 167 1225 167 1225 112 c 128,-1,5
 1225 57 1225 57 1187.5 18.5 c 128,-1,6
 1150 -20 1150 -20 1096 -20 c 128,-1,7
 1042 -20 1042 -20 1004 18.5 c 128,-1,0
 966 57 966 57 966 112 c 128,-1,1
583 112 m 128,-1,9
 583 167 583 167 621 205.5 c 128,-1,10
 659 244 659 244 713 244 c 128,-1,11
 767 244 767 244 804.5 205.5 c 128,-1,12
 842 167 842 167 842 112 c 128,-1,13
 842 57 842 57 804.5 18.5 c 128,-1,14
 767 -20 767 -20 713 -20 c 128,-1,15
 659 -20 659 -20 621 18.5 c 128,-1,8
 583 57 583 57 583 112 c 128,-1,9
200 112 m 128,-1,17
 200 167 200 167 238 205.5 c 128,-1,18
 276 244 276 244 330 244 c 128,-1,19
 384 244 384 244 421.5 205.5 c 128,-1,20
 459 167 459 167 459 112 c 128,-1,21
 459 57 459 57 421.5 18.5 c 128,-1,22
 384 -20 384 -20 330 -20 c 128,-1,23
 276 -20 276 -20 238 18.5 c 128,-1,16
 200 57 200 57 200 112 c 128,-1,17
EndSplineSet
Validated: 3073
EndChar

StartChar: uni2027
Encoding: 8231 8231 151
Width: 659
GlyphClass: 2
Flags: W
HStem: 625 264<239.191 420.324>
VStem: 200 259<664.707 849.293>
LayerCount: 2
Fore
SplineSet
200 757 m 128,-1,1
 200 812 200 812 238 850.5 c 128,-1,2
 276 889 276 889 330 889 c 128,-1,3
 384 889 384 889 421.5 850.5 c 128,-1,4
 459 812 459 812 459 757 c 128,-1,5
 459 702 459 702 421.5 663.5 c 128,-1,6
 384 625 384 625 330 625 c 128,-1,7
 276 625 276 625 238 663.5 c 128,-1,0
 200 702 200 702 200 757 c 128,-1,1
EndSplineSet
Validated: 3073
EndChar

StartChar: perthousand
Encoding: 8240 8240 152
Width: 2334
GlyphClass: 2
Flags: W
HStem: -20 69<1082.25 1243.37 1745.25 1906.37> 582 88<1074.74 1250.77 1737.74 1913.77> 840 69<419.254 580.373> 1442 88<411.738 587.765>
VStem: 200 153<993.908 1363.48> 651 157<1005.18 1366.21> 863 153<133.908 503.48> 1314 157<145.182 506.401> 1526 153<133.908 503.48> 1977 157<145.182 506.401>
DStem2: 317 50 451 -20 0.522656 0.852544<10.3579 1736.34>
LayerCount: 2
Fore
SplineSet
1826 582 m 0,0,1
 1762 582 1762 582 1720.5 515 c 128,-1,2
 1679 448 1679 448 1679 304 c 0,3,4
 1679 195 1679 195 1715 125 c 0,5,6
 1754 49 1754 49 1825 49 c 128,-1,7
 1896 49 1896 49 1933 119 c 0,8,9
 1977 203 1977 203 1977 325 c 0,10,11
 1977 453 1977 453 1930 519 c 0,12,13
 1885 582 1885 582 1826 582 c 0,0,1
1830 -20 m 0,14,15
 1703 -20 1703 -20 1608 83 c 0,16,17
 1526 171 1526 171 1526 318 c 0,18,19
 1526 461 1526 461 1610 564 c 0,20,21
 1698 670 1698 670 1830 670 c 0,22,23
 1957 670 1957 670 2051 561 c 0,24,25
 2134 466 2134 466 2134 317 c 0,26,27
 2134 186 2134 186 2047 85 c 0,28,29
 1958 -20 1958 -20 1830 -20 c 0,14,15
1163 582 m 0,30,31
 1099 582 1099 582 1057.5 515 c 128,-1,32
 1016 448 1016 448 1016 304 c 0,33,34
 1016 195 1016 195 1052 125 c 0,35,36
 1091 49 1091 49 1162 49 c 128,-1,37
 1233 49 1233 49 1270 119 c 0,38,39
 1314 203 1314 203 1314 325 c 0,40,41
 1314 453 1314 453 1267 519 c 0,42,43
 1222 582 1222 582 1163 582 c 0,30,31
1167 -20 m 0,44,45
 1040 -20 1040 -20 945 83 c 0,46,47
 863 171 863 171 863 318 c 0,48,49
 863 461 863 461 947 564 c 0,50,51
 1035 670 1035 670 1167 670 c 0,52,53
 1294 670 1294 670 1388 561 c 0,54,55
 1471 466 1471 466 1471 317 c 0,56,57
 1471 186 1471 186 1384 85 c 0,58,59
 1295 -20 1295 -20 1167 -20 c 0,44,45
1225 1530 m 1,60,-1
 1362 1466 l 1,61,-1
 451 -20 l 1,62,-1
 317 50 l 1,63,-1
 1225 1530 l 1,60,-1
499 909 m 128,-1,65
 570 909 570 909 607 979 c 0,66,67
 651 1063 651 1063 651 1185 c 0,68,69
 651 1313 651 1313 604 1379 c 0,70,71
 559 1442 559 1442 500 1442 c 0,72,73
 436 1442 436 1442 394.5 1375 c 128,-1,74
 353 1308 353 1308 353 1164 c 0,75,76
 353 1055 353 1055 389 985 c 0,77,64
 428 909 428 909 499 909 c 128,-1,65
504 1530 m 0,78,79
 631 1530 631 1530 725 1421 c 0,80,81
 808 1325 808 1325 808 1177 c 0,82,83
 808 1046 808 1046 721 945 c 0,84,85
 632 840 632 840 504 840 c 0,86,87
 377 840 377 840 282 943 c 0,88,89
 200 1031 200 1031 200 1178 c 0,90,91
 200 1321 200 1321 284 1424 c 0,92,93
 372 1530 372 1530 504 1530 c 0,78,79
EndSplineSet
Validated: 3073
EndChar

StartChar: minute
Encoding: 8242 8242 153
Width: 697
GlyphClass: 2
Flags: W
HStem: 1079 471
VStem: 200 297
LayerCount: 2
Fore
SplineSet
334 1550 m 1,0,-1
 497 1491 l 1,1,-1
 315 1079 l 1,2,-1
 200 1121 l 1,3,-1
 334 1550 l 1,0,-1
EndSplineSet
Validated: 3073
EndChar

StartChar: second
Encoding: 8243 8243 154
Width: 947
GlyphClass: 2
Flags: W
HStem: 1079 471
VStem: 200 547
LayerCount: 2
Fore
SplineSet
584 1550 m 1,0,-1
 747 1491 l 1,1,-1
 565 1079 l 1,2,-1
 450 1121 l 1,3,-1
 584 1550 l 1,0,-1
334 1550 m 1,4,-1
 497 1491 l 1,5,-1
 315 1079 l 1,6,-1
 200 1121 l 1,7,-1
 334 1550 l 1,4,-1
EndSplineSet
Validated: 3073
EndChar

StartChar: uni2034
Encoding: 8244 8244 155
Width: 1197
GlyphClass: 2
Flags: W
HStem: 1079 471
LayerCount: 2
Fore
SplineSet
834 1550 m 1,0,-1
 997 1491 l 1,1,-1
 815 1079 l 1,2,-1
 700 1121 l 1,3,-1
 834 1550 l 1,0,-1
584 1550 m 1,4,-1
 747 1491 l 1,5,-1
 565 1079 l 1,6,-1
 450 1121 l 1,7,-1
 584 1550 l 1,4,-1
334 1550 m 1,8,-1
 497 1491 l 1,9,-1
 315 1079 l 1,10,-1
 200 1121 l 1,11,-1
 334 1550 l 1,8,-1
EndSplineSet
Validated: 3073
EndChar

StartChar: uni2035
Encoding: 8245 8245 156
Width: 697
GlyphClass: 2
Flags: W
HStem: 1079 471
VStem: 200 297
LayerCount: 2
Fore
SplineSet
363 1550 m 1,0,-1
 497 1121 l 1,1,-1
 382 1079 l 1,2,-1
 200 1491 l 1,3,-1
 363 1550 l 1,0,-1
EndSplineSet
Validated: 3073
EndChar

StartChar: uni2036
Encoding: 8246 8246 157
Width: 947
GlyphClass: 2
Flags: W
HStem: 1079 471
VStem: 200 547
LayerCount: 2
Fore
SplineSet
363 1550 m 1,0,-1
 497 1121 l 1,1,-1
 382 1079 l 1,2,-1
 200 1491 l 1,3,-1
 363 1550 l 1,0,-1
613 1550 m 1,4,-1
 747 1121 l 1,5,-1
 632 1079 l 1,6,-1
 450 1491 l 1,7,-1
 613 1550 l 1,4,-1
EndSplineSet
Validated: 3073
EndChar

StartChar: uni2037
Encoding: 8247 8247 158
Width: 1197
GlyphClass: 2
Flags: W
HStem: 1079 471
LayerCount: 2
Fore
SplineSet
363 1550 m 1,0,-1
 497 1121 l 1,1,-1
 382 1079 l 1,2,-1
 200 1491 l 1,3,-1
 363 1550 l 1,0,-1
613 1550 m 1,4,-1
 747 1121 l 1,5,-1
 632 1079 l 1,6,-1
 450 1491 l 1,7,-1
 613 1550 l 1,4,-1
863 1550 m 1,8,-1
 997 1121 l 1,9,-1
 882 1079 l 1,10,-1
 700 1491 l 1,11,-1
 863 1550 l 1,8,-1
EndSplineSet
Validated: 3073
EndChar

StartChar: guilsinglleft
Encoding: 8249 8249 159
Width: 826
GlyphClass: 2
Flags: W
VStem: 150 476
DStem2: 326 801 150 751 0.577331 -0.81651<0 511.235> 150 751 326 801 0.5547 0.83205<139.23 606.565>
LayerCount: 2
Fore
SplineSet
500 1276 m 5,0,-1
 588 1188 l 5,1,-1
 326 801 l 5,2,-1
 626 387 l 5,3,-1
 500 256 l 5,4,-1
 150 751 l 5,5,-1
 500 1276 l 5,0,-1
EndSplineSet
Validated: 3073
EndChar

StartChar: guilsinglright
Encoding: 8250 8250 160
Width: 826
GlyphClass: 2
Flags: W
VStem: 200 476
DStem2: 326 1276 200 1145 0.577331 -0.81651<34.2192 545.454> 238 344 326 256 0.5547 0.83205<0 467.335>
LayerCount: 2
Fore
SplineSet
326 1276 m 5,0,-1
 676 781 l 5,1,-1
 326 256 l 5,2,-1
 238 344 l 5,3,-1
 500 731 l 5,4,-1
 200 1145 l 5,5,-1
 326 1276 l 5,0,-1
EndSplineSet
Validated: 3073
EndChar

StartChar: uni2043
Encoding: 8259 8259 161
Width: 1389
GlyphClass: 2
Flags: W
LayerCount: 2
Fore
SplineSet
685 1254 m 1,0,-1
 699 1254 l 1,1,-1
 791 935 l 1,2,-1
 939 1004 l 1,3,-1
 870 863 l 1,4,-1
 1189 769 l 1,5,-1
 1189 755 l 1,6,-1
 870 663 l 1,7,-1
 939 515 l 1,8,-1
 798 584 l 1,9,-1
 704 265 l 1,10,-1
 690 265 l 1,11,-1
 598 584 l 1,12,-1
 450 515 l 1,13,-1
 519 656 l 1,14,-1
 200 750 l 1,15,-1
 200 764 l 1,16,-1
 519 856 l 1,17,-1
 450 1004 l 1,18,-1
 591 935 l 1,19,-1
 685 1254 l 1,0,-1
EndSplineSet
Validated: 3073
EndChar

StartChar: fraction
Encoding: 8260 8260 162
Width: 1065
GlyphClass: 2
Flags: W
DStem2: 10 -80 144 -150 0.462583 0.886576<0 1962.67>
LayerCount: 2
Fore
SplineSet
918 1660 m 1,0,-1
 1055 1596 l 1,1,-1
 144 -150 l 1,2,-1
 10 -80 l 1,3,-1
 918 1660 l 1,0,-1
EndSplineSet
Validated: 3073
EndChar

StartChar: Euro
Encoding: 8364 8364 163
Width: 1599
GlyphClass: 2
Flags: W
HStem: -20 110<722.141 1054.33> 530 150<150 282 515 983> 830 150<150 282 515 983> 1424 106<715.058 1021.44>
VStem: 280 222<680 830> 1260 139<317.391 429> 1301 15<944 965.026 1504.38 1530>
LayerCount: 2
Fore
SplineSet
1399 429 m 1,0,1
 1348 257 1348 257 1226 134 c 0,2,3
 1073 -20 1073 -20 862 -20 c 0,4,5
 652 -20 652 -20 498 134 c 0,6,7
 345 287 345 287 300 530 c 1,8,-1
 150 530 l 1,9,-1
 150 680 l 1,10,-1
 282 680 l 1,11,12
 280 717 280 717 280 755 c 128,-1,13
 280 793 280 793 282 830 c 1,14,-1
 150 830 l 1,15,-1
 150 980 l 1,16,-1
 300 980 l 1,17,18
 346 1222 346 1222 498 1376 c 128,-1,19
 650 1530 650 1530 844 1530 c 0,20,21
 958 1530 958 1530 1088 1465 c 0,22,23
 1154 1432 1154 1432 1200 1432 c 0,24,25
 1279 1432 1279 1432 1301 1530 c 1,26,-1
 1316 1530 l 1,27,-1
 1316 944 l 1,28,-1
 1301 944 l 1,29,30
 1236 1171 1236 1171 1137 1282 c 0,31,32
 1010 1424 1010 1424 867 1424 c 0,33,34
 716 1424 716 1424 620 1288 c 0,35,36
 542 1177 542 1177 515 980 c 1,37,-1
 983 980 l 1,38,-1
 983 830 l 1,39,-1
 503 830 l 1,40,41
 502 795 502 795 502 757 c 0,42,43
 502 717 502 717 503 680 c 1,44,-1
 983 680 l 1,45,-1
 983 530 l 1,46,-1
 515 530 l 1,47,48
 539 330 539 330 614 230 c 0,49,50
 719 90 719 90 898 90 c 0,51,52
 1044 90 1044 90 1146 214 c 0,53,54
 1233 320 1233 320 1260 429 c 1,55,-1
 1399 429 l 1,0,1
EndSplineSet
Validated: 3073
EndChar

StartChar: afii61248
Encoding: 8453 8453 164
Width: 1776
GlyphClass: 2
Flags: W
HStem: -20 95<1173.41 1358.44> 702 92<1171.28 1357.84> 716 94<419.488 627.541> 1438 92<418.53 613.282>
VStem: 200 151<898.125 1346.64> 715 43<1198 1256.94 1491.41 1530> 954 151<162.548 610.642> 1425 151<161.597 610.642>
DStem2: 365 50 499 -20 0.522656 0.852544<10.3579 1736.34>
LayerCount: 2
Fore
SplineSet
1265 -20 m 128,-1,1
 1151 -20 1151 -20 1069 62 c 0,2,3
 954 177 954 177 954 387 c 0,4,5
 954 594 954 594 1069 712 c 0,6,7
 1149 794 1149 794 1267 794 c 0,8,9
 1381 794 1381 794 1461 712 c 0,10,11
 1576 594 1576 594 1576 387 c 0,12,13
 1576 177 1576 177 1461 62 c 0,14,0
 1379 -20 1379 -20 1265 -20 c 128,-1,1
1266 75 m 128,-1,16
 1327 75 1327 75 1373 137 c 0,17,18
 1425 207 1425 207 1425 388 c 0,19,20
 1425 557 1425 557 1370 642 c 0,21,22
 1331 702 1331 702 1267 702 c 0,23,24
 1199 702 1199 702 1160 642 c 0,25,26
 1105 557 1105 557 1105 388 c 0,27,28
 1105 204 1105 204 1157 137 c 0,29,15
 1205 75 1205 75 1266 75 c 128,-1,16
806 980 m 1,30,31
 772 861 772 861 707 798 c 0,32,33
 623 716 623 716 511 716 c 0,34,35
 397 716 397 716 315 798 c 0,36,37
 200 913 200 913 200 1123 c 0,38,39
 200 1330 200 1330 315 1448 c 0,40,41
 395 1530 395 1530 502 1530 c 0,42,43
 560 1530 560 1530 633 1496 c 0,44,45
 663 1482 663 1482 680 1484 c 0,46,47
 699 1486 699 1486 714 1530 c 1,48,-1
 758 1530 l 1,49,-1
 758 1198 l 1,50,-1
 715 1198 l 1,51,52
 673 1326 673 1326 633 1373 c 0,53,54
 578 1438 578 1438 513 1438 c 0,55,56
 445 1438 445 1438 406 1378 c 0,57,58
 351 1293 351 1293 351 1124 c 0,59,60
 351 947 351 947 403 873 c 0,61,62
 450 810 450 810 529 810 c 0,63,64
 592 810 592 810 637 865 c 0,65,66
 673 909 673 909 694 980 c 1,67,-1
 806 980 l 1,30,31
1273 1530 m 1,68,-1
 1410 1466 l 1,69,-1
 499 -20 l 1,70,-1
 365 50 l 1,71,-1
 1273 1530 l 1,68,-1
EndSplineSet
Validated: 3073
EndChar

StartChar: afii61289
Encoding: 8467 8467 165
Width: 1158
GlyphClass: 2
Flags: W
HStem: -20 136<558.002 669.961> 0 21G<150 363> 1500 20G<727 794>
VStem: 332 155<466 794.977> 755 153<1042.58 1356.69>
LayerCount: 2
Fore
SplineSet
487 466 m 1,0,1
 598 708 598 708 654 860 c 0,2,3
 755 1134 755 1134 755 1359 c 1,4,5
 687 1266 687 1266 594 1004 c 0,6,7
 487 704 487 704 487 466 c 1,0,1
150 0 m 1,8,9
 261 144 261 144 342 292 c 1,10,11
 332 362 332 362 332 443 c 0,12,13
 332 590 332 590 361 732 c 0,14,15
 469 1246 469 1246 617 1434 c 0,16,17
 685 1520 685 1520 769 1520 c 0,18,19
 819 1520 819 1520 859 1488 c 0,20,21
 908 1449 908 1449 908 1318 c 0,22,23
 908 1226 908 1226 878 1072 c 0,24,25
 808 722 808 722 522 271 c 1,26,27
 554 116 554 116 611 116 c 0,28,29
 630 116 630 116 653 140 c 0,30,31
 684 172 684 172 716 228 c 1,32,-1
 892 228 l 1,33,34
 815 100 815 100 750.5 40 c 128,-1,35
 686 -20 686 -20 602 -20 c 0,36,37
 482 -20 482 -20 405 90 c 1,38,-1
 351 0 l 1,39,-1
 150 0 l 1,8,9
EndSplineSet
Validated: 3073
EndChar

StartChar: trademark
Encoding: 8482 8482 166
Width: 1980
GlyphClass: 2
Flags: W
HStem: 735 42<369 415.63 636.023 679 794 839.463 1031.63 1079 1446 1495.92> 1439 91<284.719 453.868 594.413 760.875> 1530 20G<999.002 1048.55 1524.69 1574>
VStem: 454 140<795.771 1438>
DStem2: 902 883 996 875 0.148268 0.988947<-8.77068 331.88> 1290 965 1046 1197 0.392971 -0.919551<-309.221 0> 1290 965 1287 715 0.383606 0.923497<0 284.664> 1671 883 1488 1191 0.148268 -0.988947<-331.729 2.69169>
LayerCount: 2
Fore
SplineSet
794 735 m 1,0,-1
 794 777 l 1,1,2
 891 810 891 810 902 883 c 2,3,-1
 1002 1550 l 1,4,-1
 1040 1550 l 1,5,-1
 1290 965 l 1,6,-1
 1533 1550 l 1,7,-1
 1571 1550 l 1,8,-1
 1671 883 l 2,9,10
 1682 814 1682 814 1780 777 c 1,11,-1
 1780 735 l 1,12,-1
 1446 735 l 1,13,-1
 1446 777 l 1,14,15
 1537 802 1537 802 1537 860 c 0,16,17
 1537 866 1537 866 1536 875 c 2,18,-1
 1488 1191 l 1,19,-1
 1287 715 l 1,20,-1
 1253 715 l 1,21,-1
 1046 1197 l 1,22,-1
 996 875 l 2,23,24
 995 866 995 866 995 860 c 0,25,26
 996 800 996 800 1079 777 c 1,27,-1
 1079 735 l 1,28,-1
 794 735 l 1,0,-1
369 735 m 1,29,-1
 369 778 l 1,30,31
 454 796 454 796 454 880 c 2,32,-1
 454 1385 l 2,33,34
 454 1428 454 1428 443 1439 c 1,35,36
 307 1438 307 1438 201 1329 c 1,37,-1
 150 1329 l 1,38,-1
 266 1530 l 1,39,-1
 781 1530 l 1,40,-1
 897 1329 l 1,41,-1
 846 1329 l 17,42,43
 737 1438 737 1438 604 1439 c 1,44,45
 594 1407 594 1407 594 1385 c 2,46,-1
 594 880 l 2,47,48
 594 802 594 802 679 778 c 1,49,-1
 679 735 l 1,50,-1
 369 735 l 1,29,-1
EndSplineSet
Validated: 3073
EndChar

StartChar: uni2126
Encoding: 8486 8486 167
Width: 1424
GlyphClass: 2
Flags: W
HStem: 1425 105<565.642 856.651>
VStem: 130 218<533.45 1093.29> 510 86<118 190.75> 828 86<118 190.984> 1076 218<522.419 1092.23>
LayerCount: 2
Fore
SplineSet
288 0 m 1,0,-1
 102 342 l 1,1,-1
 117 342 l 1,2,3
 306 158 306 158 510 118 c 1,4,-1
 510 172 l 1,5,6
 423 205 423 205 348 274 c 0,7,8
 130 476 130 476 130 805 c 0,9,10
 130 1152 130 1152 348 1376 c 0,11,12
 498 1530 498 1530 712 1530 c 128,-1,13
 926 1530 926 1530 1076 1376 c 0,14,15
 1294 1152 1294 1152 1294 805 c 0,16,17
 1294 450 1294 450 1076 274 c 24,18,19
 983 199 983 199 914 172 c 1,20,-1
 914 118 l 1,21,22
 1118 148 1118 148 1307 342 c 1,23,-1
 1322 342 l 1,24,-1
 1136 0 l 1,25,-1
 828 0 l 1,26,-1
 828 262 l 1,27,28
 906 288 906 288 954 355 c 0,29,30
 1076 525 1076 525 1076 805 c 0,31,32
 1076 1131 1076 1131 948 1294 c 0,33,34
 845 1425 845 1425 712 1425 c 0,35,36
 572 1425 572 1425 476 1294 c 0,37,38
 348 1120 348 1120 348 805 c 0,39,40
 348 543 348 543 476 356 c 0,41,42
 524 286 524 286 596 262 c 1,43,-1
 596 0 l 1,44,-1
 288 0 l 1,0,-1
EndSplineSet
Validated: 3073
EndChar

StartChar: estimated
Encoding: 8494 8494 168
Width: 1358
GlyphClass: 2
Flags: W
HStem: 0 72<506.987 853.667> 565 74<381 977> 1057 73<502.165 847.93>
VStem: 150 231<322.452 565 639 808.838> 977 231<639 804.607>
LayerCount: 2
Fore
SplineSet
381 565 m 1,0,-1
 381 194 l 1,1,2
 501 74 501 74 679 72 c 0,3,4
 933 72 933 72 1074 319 c 1,5,-1
 1146 276 l 1,6,7
 1026 103 1026 103 914 51.5 c 128,-1,8
 802 0 802 0 679 0 c 0,9,10
 442 0 442 0 296 160 c 128,-1,11
 150 320 150 320 150 565 c 0,12,13
 150 812 150 812 297 971 c 128,-1,14
 444 1130 444 1130 679 1130 c 0,15,16
 893 1130 893 1130 1045 988 c 128,-1,17
 1197 846 1197 846 1208 565 c 1,18,-1
 381 565 l 1,0,-1
977 639 m 1,19,-1
 977 936 l 1,20,21
 849 1056 849 1056 677 1057 c 0,22,23
 502 1057 502 1057 381 935 c 1,24,-1
 381 639 l 1,25,-1
 977 639 l 1,19,-1
EndSplineSet
Validated: 3073
EndChar

StartChar: partialdiff
Encoding: 8706 8706 169
Width: 1335
GlyphClass: 2
Flags: W
HStem: -20 153<399.379 663.581> 870 140<547.102 824.163> 1325 152<492 830.231>
VStem: 150 188<198.966 602.91> 953 182<873.869 1171.56>
LayerCount: 2
Fore
SplineSet
420 1415 m 1,0,1
 554 1477 554 1477 703 1477 c 0,2,3
 1135 1477 1135 1477 1135 934 c 0,4,5
 1135 545 1135 545 966.5 262.5 c 128,-1,6
 798 -20 798 -20 512 -20 c 0,7,8
 150 -20 150 -20 150 375 c 0,9,10
 150 624 150 624 288 817 c 128,-1,11
 426 1010 426 1010 670 1010 c 0,12,13
 854 1010 854 1010 953 862 c 1,14,15
 953 1103 953 1103 898 1204 c 0,16,17
 832 1325 832 1325 678 1325 c 0,18,19
 547 1325 547 1325 420 1241 c 1,20,-1
 420 1415 l 1,0,1
920 680 m 1,21,22
 898 765 898 765 834.5 817.5 c 128,-1,23
 771 870 771 870 695 870 c 0,24,25
 535 870 535 870 436.5 710 c 128,-1,26
 338 550 338 550 338 369 c 0,27,28
 338 133 338 133 525 133 c 0,29,30
 663 133 663 133 772.5 286 c 128,-1,31
 882 439 882 439 920 680 c 1,21,22
EndSplineSet
Validated: 3073
EndChar

StartChar: uni2206
Encoding: 8710 8710 170
Width: 1418
GlyphClass: 2
Flags: W
HStem: 0 126<207 1140> 1530 20G<705.839 738.813>
DStem2: 5 0 207 126 0.416453 0.909157<198.677 1357.81> 730 1550 685 1182 0.403233 -0.915097<318.61 1468.42>
LayerCount: 2
Fore
SplineSet
1140 126 m 25,0,-1
 685 1182 l 1,1,-1
 207 126 l 25,2,-1
 1140 126 l 25,0,-1
5 0 m 25,3,-1
 715 1550 l 1,4,-1
 730 1550 l 1,5,-1
 1413 0 l 25,6,-1
 5 0 l 25,3,-1
EndSplineSet
Validated: 3073
EndChar

StartChar: product
Encoding: 8719 8719 171
Width: 1548
GlyphClass: 2
Flags: W
HStem: -410 15<80 100.586 599.414 620 928 948.586 1447.41 1468> 1408 102<466.365 1081.63> 1495 15<80 100.586 1447.41 1468>
VStem: 250 200<-314.5 1406.18> 1098 200<-314.5 1406.18>
LayerCount: 2
Fore
SplineSet
80 -410 m 1,0,-1
 80 -395 l 1,1,2
 250 -351 250 -351 250 -161 c 2,3,-1
 250 1260 l 2,4,5
 250 1450 250 1450 80 1495 c 1,6,-1
 80 1510 l 1,7,-1
 1468 1510 l 1,8,-1
 1468 1495 l 1,9,10
 1298 1450 1298 1450 1298 1260 c 2,11,-1
 1298 -161 l 2,12,13
 1298 -351 1298 -351 1468 -395 c 1,14,-1
 1468 -410 l 1,15,-1
 928 -410 l 1,16,-1
 928 -395 l 1,17,18
 1098 -352 1098 -352 1098 -161 c 2,19,-1
 1098 1260 l 2,20,21
 1098 1350 1098 1350 1060 1408 c 1,22,-1
 488 1408 l 17,23,24
 450 1350 450 1350 450 1260 c 2,25,-1
 450 -161 l 2,26,27
 450 -352 450 -352 620 -395 c 1,28,-1
 620 -410 l 1,29,-1
 80 -410 l 1,0,-1
EndSplineSet
Validated: 3073
EndChar

StartChar: summation
Encoding: 8721 8721 172
Width: 1362
GlyphClass: 2
Flags: W
HStem: -410 102<423.391 1051.1> 1408 102<420.03 921.098>
DStem2: 80 -395 430 -161 0.496541 0.868013<322.563 1071.41> 832 535 612 535 0.484714 -0.874673<-882.274 -106.637>
LayerCount: 2
Fore
SplineSet
80 -410 m 1,0,-1
 80 -395 l 9,1,-1
 612 535 l 1,2,-1
 80 1495 l 17,3,-1
 80 1510 l 1,4,-1
 1006 1510 l 1,5,-1
 1192 1188 l 1,6,-1
 1177 1188 l 1,7,8
 965 1408 965 1408 698 1408 c 2,9,-1
 442 1408 l 1,10,11
 409 1352 409 1352 409 1310 c 0,12,13
 409 1287 409 1287 424 1260 c 2,14,-1
 832 535 l 1,15,-1
 430 -161 l 2,16,17
 412 -192 412 -192 412 -214 c 0,18,19
 412 -256 412 -256 448 -308 c 9,20,-1
 828 -308 l 2,21,22
 1095 -308 1095 -308 1307 -88 c 1,23,-1
 1322 -88 l 1,24,-1
 1136 -410 l 1,25,-1
 80 -410 l 1,0,-1
EndSplineSet
Validated: 3073
EndChar

StartChar: minus
Encoding: 8722 8722 173
Width: 1233
GlyphClass: 2
Flags: W
HStem: 680 150<200 1033>
LayerCount: 2
Fore
SplineSet
200 830 m 1,0,-1
 1033 830 l 1,1,-1
 1033 680 l 1,2,-1
 200 680 l 1,3,-1
 200 830 l 1,0,-1
EndSplineSet
Validated: 3073
EndChar

StartChar: uni2215
Encoding: 8725 8725 174
Width: 1065
GlyphClass: 2
Flags: W
DStem2: 10 -80 144 -150 0.462583 0.886576<0 1962.67>
LayerCount: 2
Fore
SplineSet
918 1660 m 1,0,-1
 1055 1596 l 1,1,-1
 144 -150 l 1,2,-1
 10 -80 l 1,3,-1
 918 1660 l 1,0,-1
EndSplineSet
Validated: 3073
EndChar

StartChar: asteriskmath
Encoding: 8727 8727 175
Width: 1389
GlyphClass: 2
Flags: W
LayerCount: 2
Fore
SplineSet
685 1254 m 1,0,-1
 699 1254 l 1,1,-1
 791 935 l 1,2,-1
 939 1004 l 1,3,-1
 870 863 l 1,4,-1
 1189 769 l 1,5,-1
 1189 755 l 1,6,-1
 870 663 l 1,7,-1
 939 515 l 1,8,-1
 798 584 l 1,9,-1
 704 265 l 1,10,-1
 690 265 l 1,11,-1
 598 584 l 1,12,-1
 450 515 l 1,13,-1
 519 656 l 1,14,-1
 200 750 l 1,15,-1
 200 764 l 1,16,-1
 519 856 l 1,17,-1
 450 1004 l 1,18,-1
 591 935 l 1,19,-1
 685 1254 l 1,0,-1
EndSplineSet
Validated: 3073
EndChar

StartChar: uni2218
Encoding: 8728 8728 176
Width: 980
GlyphClass: 2
Flags: W
HStem: 470 130<380.686 595.684> 918 124<381.162 594.989>
VStem: 200 132<648.635 869.462> 644 136<648.62 869.447>
LayerCount: 2
Fore
SplineSet
332 758 m 0,0,1
 332 693 332 693 378 646 c 0,2,3
 423 600 423 600 488 600 c 0,4,5
 552 600 552 600 598 646 c 128,-1,6
 644 692 644 692 644 758 c 0,7,8
 644 823 644 823 598 871 c 0,9,10
 553 918 553 918 488 918 c 128,-1,11
 423 918 423 918 377.5 871 c 128,-1,12
 332 824 332 824 332 758 c 0,0,1
200 756.5 m 128,-1,14
 200 875 200 875 285 958.5 c 128,-1,15
 370 1042 370 1042 490 1042 c 128,-1,16
 610 1042 610 1042 695 958.5 c 128,-1,17
 780 875 780 875 780 756.5 c 128,-1,18
 780 638 780 638 695 554 c 128,-1,19
 610 470 610 470 490 470 c 128,-1,20
 370 470 370 470 285 554 c 128,-1,13
 200 638 200 638 200 756.5 c 128,-1,14
EndSplineSet
Validated: 3073
EndChar

StartChar: uni2219
Encoding: 8729 8729 177
Width: 659
GlyphClass: 2
Flags: W
HStem: 625 264<239.191 420.324>
VStem: 200 259<664.707 849.293>
LayerCount: 2
Fore
SplineSet
200 757 m 128,-1,1
 200 812 200 812 238 850.5 c 128,-1,2
 276 889 276 889 330 889 c 128,-1,3
 384 889 384 889 421.5 850.5 c 128,-1,4
 459 812 459 812 459 757 c 128,-1,5
 459 702 459 702 421.5 663.5 c 128,-1,6
 384 625 384 625 330 625 c 128,-1,7
 276 625 276 625 238 663.5 c 128,-1,0
 200 702 200 702 200 757 c 128,-1,1
EndSplineSet
Validated: 3073
EndChar

StartChar: radical
Encoding: 8730 8730 178
Width: 1438
GlyphClass: 2
Flags: W
HStem: -40 21G<634.039 664.554> 686 145<150 353> 1530 143<1250 1428>
DStem2: 495 831 353 686 0.369846 -0.929093<82.2004 462.375> 670 403 657 -40 0.353343 0.935494<0 1259.24>
LayerCount: 2
Fore
SplineSet
642 -40 m 9,0,-1
 353 686 l 17,1,-1
 150 686 l 1,2,-1
 150 831 l 1,3,-1
 495 831 l 1,4,-1
 670 403 l 1,5,-1
 1141 1673 l 1,6,-1
 1428 1673 l 1,7,-1
 1428 1530 l 1,8,-1
 1250 1530 l 1,9,-1
 657 -40 l 1,10,-1
 642 -40 l 9,0,-1
EndSplineSet
Validated: 3073
EndChar

StartChar: uni221B
Encoding: 8731 8731 179
Width: 1438
GlyphClass: 2
Flags: W
HStem: -40 21G<634.039 664.554> 686 145<150 353> 898 76<461.964 619.46> 1479 71<479.578 599.002> 1530 143<1250 1428>
VStem: 356 35<1104.94 1164> 404 35<1342 1399.99> 615 108<1323.55 1464.77> 652 122<1001.99 1196.98>
DStem2: 495 831 353 686 0.369846 -0.929093<82.2004 462.375> 670 403 657 -40 0.353343 0.935494<0 1259.24>
LayerCount: 2
Fore
SplineSet
356 1164 m 1,0,-1
 391 1164 l 1,1,2
 411 1075 411 1075 451 1024 c 0,3,4
 490 974 490 974 539 974 c 24,5,6
 589 974 589 974 618 1006 c 0,7,8
 652 1043 652 1043 652 1097 c 0,9,10
 652 1157 652 1157 620 1192 c 0,11,12
 581 1232 581 1232 504 1252 c 1,13,-1
 504 1281 l 1,14,15
 564 1302 564 1302 592 1332 c 0,16,17
 615 1357 615 1357 615 1399 c 0,18,19
 615 1440 615 1440 594 1458 c 0,20,21
 570 1479 570 1479 542 1479 c 0,22,23
 507 1479 507 1479 480 1445 c 0,24,25
 455 1413 455 1413 439 1342 c 1,26,-1
 404 1342 l 1,27,-1
 404 1484 l 1,28,29
 476 1550 476 1550 546 1550 c 0,30,31
 615 1550 615 1550 657 1519 c 0,32,33
 723 1470 723 1470 723 1400 c 0,34,35
 723 1335 723 1335 675 1296 c 0,36,37
 659 1283 659 1283 641 1272 c 1,38,39
 685 1260 685 1260 715 1232 c 0,40,41
 774 1177 774 1177 774 1099 c 0,42,43
 774 1006 774 1006 701 949 c 0,44,45
 636 898 636 898 544 898 c 0,46,47
 444 898 444 898 356 976 c 1,48,-1
 356 1164 l 1,0,-1
642 -40 m 9,49,-1
 353 686 l 17,50,-1
 150 686 l 1,51,-1
 150 831 l 1,52,-1
 495 831 l 1,53,-1
 670 403 l 1,54,-1
 1141 1673 l 1,55,-1
 1428 1673 l 1,56,-1
 1428 1530 l 1,57,-1
 1250 1530 l 1,58,-1
 657 -40 l 1,59,-1
 642 -40 l 9,49,-1
EndSplineSet
Validated: 3073
EndChar

StartChar: infinity
Encoding: 8734 8734 180
Width: 1472
GlyphClass: 2
Flags: W
HStem: 414 69<419.254 580.158 882.126 1044.16> 1016 88<411.738 587.848 875.706 1051.77>
VStem: 200 153<567.908 937.48> 651 166<555.634 946.887> 1115 157<579.384 940.206>
LayerCount: 2
Fore
SplineSet
200 752 m 0,0,1
 200 895 200 895 284 998 c 0,2,3
 372 1104 372 1104 504 1104 c 0,4,5
 616 1104 616 1104 725 995 c 0,6,7
 731 989 731 989 736 982 c 1,8,9
 742 990 742 990 748 998 c 0,10,11
 828 1104 828 1104 968 1104 c 0,12,13
 1095 1104 1095 1104 1189 995 c 0,14,15
 1272 899 1272 899 1272 751 c 0,16,17
 1272 621 1272 621 1185 519 c 0,18,19
 1095 414 1095 414 968 414 c 0,20,21
 836 414 836 414 746 517 c 0,22,23
 739 525 739 525 732 533 c 1,24,-1
 721 519 l 1,25,26
 631 414 631 414 504 414 c 128,-1,27
 377 414 377 414 282 517 c 0,28,29
 200 605 200 605 200 752 c 0,0,1
499 483 m 128,-1,31
 570 483 570 483 607 553 c 0,32,33
 651 637 651 637 651 759 c 0,34,35
 651 887 651 887 604 953 c 0,36,37
 559 1016 559 1016 500 1016 c 0,38,39
 436 1016 436 1016 394.5 949 c 128,-1,40
 353 882 353 882 353 738 c 0,41,42
 353 629 353 629 389 559 c 0,43,30
 428 483 428 483 499 483 c 128,-1,31
963 483 m 128,-1,45
 1034 483 1034 483 1071 553 c 0,46,47
 1115 637 1115 637 1115 759 c 0,48,49
 1115 887 1115 887 1068 953 c 0,50,51
 1023 1016 1023 1016 964 1016 c 0,52,53
 900 1016 900 1016 858.5 949 c 128,-1,54
 817 882 817 882 817 738 c 0,55,56
 817 629 817 629 853 559 c 0,57,44
 892 483 892 483 963 483 c 128,-1,45
EndSplineSet
Validated: 3073
EndChar

StartChar: approxequal
Encoding: 8776 8776 181
Width: 1430
GlyphClass: 2
Flags: W
HStem: 382 172<844.416 1065.54> 592 173<363.129 584.701> 754 172<844.416 1065.54> 964 173<363.129 584.701>
DStem2: 640 1100 790 790 0.845145 -0.534536<-74.7264 366.438> 640 728 790 418 0.845145 -0.534536<-74.7264 366.438>
LayerCount: 2
Fore
SplineSet
200 458 m 1,0,1
 290 764 290 764 508 765 c 0,2,3
 582 765 582 765 640 728 c 1,4,-1
 874 580 l 17,5,6
 918 554 918 554 965 554 c 0,7,8
 1067 554 1067 554 1230 688 c 1,9,10
 1140 382 1140 382 916 382 c 0,11,12
 843 382 843 382 790 418 c 1,13,-1
 556 566 l 17,14,15
 514 592 514 592 464 592 c 0,16,17
 363 592 363 592 200 458 c 1,0,1
200 830 m 1,18,19
 290 1136 290 1136 508 1137 c 0,20,21
 582 1137 582 1137 640 1100 c 1,22,-1
 874 952 l 17,23,24
 918 926 918 926 965 926 c 0,25,26
 1067 926 1067 926 1230 1060 c 1,27,28
 1140 754 1140 754 916 754 c 0,29,30
 843 754 843 754 790 790 c 1,31,-1
 556 938 l 17,32,33
 514 964 514 964 464 964 c 0,34,35
 363 964 363 964 200 830 c 1,18,19
EndSplineSet
Validated: 3073
EndChar

StartChar: notequal
Encoding: 8800 8800 182
Width: 1233
GlyphClass: 2
Flags: W
HStem: 530 150<200 415 663 1033> 830 150<200 570 818 1033>
DStem2: 253 217 387 147 0.459604 0.888124<0 352.439 599.639 690.114 937.315 1344.46>
LayerCount: 2
Fore
SplineSet
871 1411 m 1,0,-1
 1008 1347 l 1,1,-1
 818 980 l 1,2,-1
 1033 980 l 1,3,-1
 1033 830 l 1,4,-1
 740 830 l 1,5,-1
 663 680 l 1,6,-1
 1033 680 l 1,7,-1
 1033 530 l 1,8,-1
 585 530 l 1,9,-1
 387 147 l 1,10,-1
 253 217 l 1,11,-1
 415 530 l 1,12,-1
 200 530 l 1,13,-1
 200 680 l 1,14,-1
 493 680 l 1,15,-1
 570 830 l 1,16,-1
 200 830 l 1,17,-1
 200 980 l 1,18,-1
 648 980 l 1,19,-1
 871 1411 l 1,0,-1
EndSplineSet
Validated: 3073
EndChar

StartChar: equivalence
Encoding: 8801 8801 183
Width: 1233
GlyphClass: 2
Flags: W
HStem: 380 150<200 1033> 680 150<200 1033> 980 150<200 1033>
CounterMasks: 1 e0
LayerCount: 2
Fore
SplineSet
200 530 m 1,0,-1
 1033 530 l 1,1,-1
 1033 380 l 1,2,-1
 200 380 l 1,3,-1
 200 530 l 1,0,-1
200 1130 m 1,4,-1
 1033 1130 l 1,5,-1
 1033 980 l 1,6,-1
 200 980 l 1,7,-1
 200 1130 l 1,4,-1
200 830 m 1,8,-1
 1033 830 l 1,9,-1
 1033 680 l 1,10,-1
 200 680 l 1,11,-1
 200 830 l 1,8,-1
EndSplineSet
Validated: 3073
EndChar

StartChar: lessequal
Encoding: 8804 8804 184
Width: 1406
GlyphClass: 2
Flags: W
HStem: 120 150<200 1206>
DStem2: 200 885 496 913 0.870391 0.492361<271.422 1084.57> 496 913 200 870 0.877896 -0.478852<0 800.162>
LayerCount: 2
Fore
SplineSet
200 270 m 1,0,-1
 1206 270 l 1,1,-1
 1206 120 l 1,2,-1
 200 120 l 1,3,-1
 200 270 l 1,0,-1
200 885 m 1,4,-1
 1144 1419 l 1,5,-1
 1206 1314 l 1,6,-1
 496 913 l 1,7,-1
 1204 540 l 1,8,-1
 1124 366 l 1,9,-1
 200 870 l 1,10,-1
 200 885 l 1,4,-1
EndSplineSet
Validated: 3073
EndChar

StartChar: greaterequal
Encoding: 8805 8805 185
Width: 1406
GlyphClass: 2
Flags: W
HStem: 120 150<200 1206>
DStem2: 200 471 262 366 0.870391 0.492361<2.26634 815.414> 282 1419 202 1245 0.877896 -0.478852<13.0886 813.251>
LayerCount: 2
Fore
SplineSet
200 270 m 1,0,-1
 1206 270 l 1,1,-1
 1206 120 l 1,2,-1
 200 120 l 1,3,-1
 200 270 l 1,0,-1
1206 900 m 1,4,-1
 262 366 l 1,5,-1
 200 471 l 1,6,-1
 910 872 l 1,7,-1
 202 1245 l 1,8,-1
 282 1419 l 1,9,-1
 1206 915 l 1,10,-1
 1206 900 l 1,4,-1
EndSplineSet
Validated: 3073
EndChar

StartChar: lozenge
Encoding: 9674 9674 186
Width: 1234
GlyphClass: 2
Flags: W
HStem: 0 21G<604.344 629.605> 1490 20G<604.902 629.146>
DStem2: 324 810 150 738 0.534725 -0.845026<0 642.656> 150 738 324 810 0.517589 0.855629<151.666 637.523> 617 1510 575 1226 0.519065 -0.854735<220.944 869.392> 663 264 617 0 0.533177 0.846004<0 477.931>
LayerCount: 2
Fore
SplineSet
575 1226 m 1,0,-1
 324 810 l 1,1,-1
 663 264 l 1,2,-1
 912 672 l 1,3,-1
 575 1226 l 1,0,-1
617 0 m 1,4,-1
 150 738 l 1,5,-1
 617 1510 l 1,6,-1
 1084 741 l 1,7,-1
 617 0 l 1,4,-1
EndSplineSet
Validated: 3073
EndChar

StartChar: multiply
Encoding: 215 215 187
Width: 1096
Flags: W
HStem: 1083 20G<286 326 769.083 808.813>
DStem2: 306 1103 200 997 0.707107 -0.707107<0 342.24 492.146 833.679> 200 514 306 407 0.707107 0.707107<0 341.533 491.439 832.265>
LayerCount: 2
Fore
SplineSet
200 997 m 1,0,-1
 306 1103 l 1,1,-1
 548 861 l 1,2,-1
 789 1103 l 1,3,-1
 895 996 l 1,4,-1
 654 755 l 1,5,-1
 896 514 l 1,6,-1
 790 407 l 1,7,-1
 548 649 l 1,8,-1
 306 407 l 1,9,-1
 200 514 l 1,10,-1
 442 755 l 1,11,-1
 200 997 l 1,0,-1
EndSplineSet
Validated: 3073
EndChar

StartChar: divide
Encoding: 247 247 188
Width: 1233
Flags: W
HStem: 298 264<526.191 707.324> 680 150<200 1033> 943 264<526.191 707.324>
VStem: 487 259<337.707 522.293 982.707 1167.29>
LayerCount: 2
Fore
SplineSet
200 830 m 1,0,-1
 1033 830 l 1,1,-1
 1033 680 l 1,2,-1
 200 680 l 1,3,-1
 200 830 l 1,0,-1
487 1075 m 128,-1,5
 487 1130 487 1130 525 1168.5 c 128,-1,6
 563 1207 563 1207 617 1207 c 128,-1,7
 671 1207 671 1207 708.5 1168.5 c 128,-1,8
 746 1130 746 1130 746 1075 c 128,-1,9
 746 1020 746 1020 708.5 981.5 c 128,-1,10
 671 943 671 943 617 943 c 128,-1,11
 563 943 563 943 525 981.5 c 128,-1,4
 487 1020 487 1020 487 1075 c 128,-1,5
487 430 m 128,-1,13
 487 485 487 485 525 523.5 c 128,-1,14
 563 562 563 562 617 562 c 128,-1,15
 671 562 671 562 708.5 523.5 c 128,-1,16
 746 485 746 485 746 430 c 128,-1,17
 746 375 746 375 708.5 336.5 c 128,-1,18
 671 298 671 298 617 298 c 128,-1,19
 563 298 563 298 525 336.5 c 128,-1,12
 487 375 487 375 487 430 c 128,-1,13
EndSplineSet
Validated: 3073
EndChar

StartChar: g
Encoding: 103 103 189
Width: 1200
Flags: W
HStem: -430 108<363.483 662.104> -20 100<479.81 745.16> 1020 100<482.263 744.347>
VStem: 110 220<309.397 792.546> 188 15<6.4668 28> 780 200<-142.513 -16 113.688 927.5>
LayerCount: 2
Fore
SplineSet
188 28 m 25,0,-1
 203 28 l 25,1,2
 283 -322 283 -322 492 -322 c 0,3,4
 631 -322 631 -322 710 -238 c 0,5,6
 780 -165 780 -165 780 -16 c 1,7,8
 736 -20 736 -20 700 -20 c 0,9,10
 424 -18 424 -18 259 151 c 0,11,12
 110 305 110 305 110 550 c 0,13,14
 110 800 110 800 262 959 c 0,15,16
 418 1120 418 1120 699 1120 c 0,17,18
 902 1120 902 1120 1150 1005 c 1,19,-1
 1150 991 l 1,20,21
 980 938 980 938 980 843 c 2,22,-1
 980 100 l 2,23,24
 980 -148 980 -148 832 -302 c 0,25,26
 708 -430 708 -430 492 -430 c 0,27,28
 298 -430 298 -430 188 -316 c 25,29,-1
 188 28 l 25,0,-1
780 256 m 2,30,-1
 780 844 l 2,31,32
 780 1020 780 1020 639 1020 c 0,33,34
 465 1020 465 1020 384 866 c 0,35,36
 330 763 330 763 330 550 c 0,37,38
 330 338 330 338 384 234 c 0,39,40
 464 80 464 80 639 80 c 0,41,42
 780 80 780 80 780 256 c 2,30,-1
EndSplineSet
Validated: 3073
EndChar

StartChar: k
Encoding: 107 107 190
Width: 1273
Flags: W
HStem: 0 15<30 50.5859 549.414 570 639 657.891 1247.92 1263> 1085 15<651 670.819> 1510 20G<314.5 400>
VStem: 200 200<96 249 413 1341.5>
DStem2: 400 413 400 249 0.617648 0.786455<0 185.099 241.321 668.707> 803 540 594 496 0.539136 -0.842218<0 317.145>
LayerCount: 2
Fore
SplineSet
30 0 m 1,0,-1
 30 15 l 1,1,2
 200 60 200 60 200 249 c 2,3,-1
 200 1257 l 2,4,5
 200 1352 200 1352 30 1405 c 1,6,-1
 30 1419 l 1,7,8
 229 1513 229 1513 400 1530 c 1,9,-1
 400 413 l 1,10,-1
 738 857 l 2,11,12
 783 916 783 916 783 964 c 0,13,14
 783 1044 783 1044 651 1085 c 1,15,-1
 651 1100 l 1,16,-1
 1121 1100 l 1,17,-1
 1121 1085 l 1,18,19
 1004 1018 1004 1018 872 850 c 2,20,-1
 629 540 l 1,21,-1
 803 540 l 1,22,-1
 988 251 l 2,23,24
 1101 75 1101 75 1263 15 c 1,25,-1
 1263 0 l 1,26,-1
 639 0 l 1,27,-1
 639 15 l 1,28,29
 795 68 795 68 795 157 c 0,30,31
 795 199 795 199 762 248 c 2,32,-1
 594 496 l 1,33,-1
 400 249 l 1,34,35
 400 59 400 59 570 15 c 1,36,-1
 570 0 l 1,37,-1
 30 0 l 1,0,-1
EndSplineSet
Validated: 3073
EndChar

StartChar: v
Encoding: 118 118 191
Width: 1216
Flags: W
HStem: -20 100<497.148 743.736> 1100 20G<318.5 400 864.5 1008>
VStem: 200 200<202.148 929.25> 906 200<301.437 787.903>
LayerCount: 2
Fore
SplineSet
30 1006 m 1,0,1
 237 1103 237 1103 400 1120 c 9,2,-1
 400 450 l 2,3,4
 400 80 400 80 624 80 c 0,5,6
 748 80 748 80 832 234 c 0,7,8
 906 370 906 370 906 550 c 0,9,10
 906 702 906 702 830 862 c 0,11,12
 785 957 785 957 721 1032 c 1,13,-1
 721 1046 l 1,14,15
 819 1092 819 1092 910 1120 c 1,16,17
 1106 868 1106 868 1106 550 c 0,18,19
 1106 313 1106 313 976 156 c 0,20,21
 829 -20 829 -20 589 -20 c 0,22,23
 200 -20 200 -20 200 450 c 2,24,-1
 200 847 l 2,25,26
 200 939 200 939 30 992 c 1,27,-1
 30 1006 l 1,0,1
EndSplineSet
Validated: 3073
EndChar

StartChar: w
Encoding: 119 119 192
Width: 1902
Flags: W
HStem: -20 100<497.148 745.589 1183.02 1429.74> 1100 20G<318.5 400 1004.5 1086 1550.5 1694>
VStem: 200 200<202.148 929.25> 886 200<254.883 929.25> 1592 200<301.437 787.903>
LayerCount: 2
Fore
SplineSet
30 1006 m 1,0,1
 237 1103 237 1103 400 1120 c 1,2,-1
 400 450 l 2,3,4
 400 80 400 80 624 80 c 0,5,6
 749 80 749 80 832 234 c 0,7,8
 886 331 886 331 886 550 c 2,9,-1
 886 847 l 2,10,11
 886 939 886 939 716 992 c 1,12,-1
 716 1006 l 1,13,14
 923 1103 923 1103 1086 1120 c 1,15,-1
 1086 450 l 2,16,17
 1086 80 1086 80 1310 80 c 0,18,19
 1434 80 1434 80 1518 234 c 0,20,21
 1592 370 1592 370 1592 550 c 0,22,23
 1592 702 1592 702 1516 862 c 0,24,25
 1471 957 1471 957 1407 1032 c 1,26,-1
 1407 1046 l 1,27,28
 1505 1092 1505 1092 1596 1120 c 1,29,30
 1792 868 1792 868 1792 550 c 0,31,32
 1792 313 1792 313 1662 156 c 0,33,34
 1515 -20 1515 -20 1275 -20 c 0,35,36
 1052 -20 1052 -20 957 134 c 1,37,38
 814 -20 814 -20 589 -20 c 0,39,40
 200 -20 200 -20 200 450 c 2,41,-1
 200 847 l 2,42,43
 200 939 200 939 30 992 c 1,44,-1
 30 1006 l 1,0,1
EndSplineSet
Validated: 3073
EndChar

StartChar: y
Encoding: 121 121 193
Width: 1290
Flags: W
HStem: -430 108<454.483 753.104> -20 100<588.431 835.285> 1100 20G<318.5 400 988.5 1070>
VStem: 200 200<292.875 929.25> 279 15<6.4668 28> 870 200<-143.633 -16 113.688 929.25>
LayerCount: 2
Fore
SplineSet
279 28 m 25,0,-1
 294 28 l 25,1,2
 374 -322 374 -322 583 -322 c 0,3,4
 722 -322 722 -322 801 -238 c 0,5,6
 870 -165 870 -165 870 -16 c 1,7,8
 826 -20 826 -20 790 -20 c 0,9,10
 514 -20 514 -20 344 141 c 0,11,12
 200 278 200 278 200 550 c 2,13,-1
 200 847 l 2,14,15
 200 939 200 939 30 992 c 1,16,-1
 30 1006 l 1,17,18
 237 1100 237 1100 400 1120 c 9,19,-1
 400 548 l 18,20,21
 400 338 400 338 475 234 c 0,22,23
 586 80 586 80 730 80 c 0,24,25
 870 80 870 80 870 256 c 2,26,-1
 870 847 l 2,27,28
 870 939 870 939 700 992 c 1,29,-1
 700 1006 l 1,30,31
 907 1100 907 1100 1070 1120 c 9,32,-1
 1070 100 l 2,33,34
 1070 -149 1070 -149 923 -302 c 0,35,36
 799 -430 799 -430 583 -430 c 0,37,38
 389 -430 389 -430 279 -316 c 25,39,-1
 279 28 l 25,0,-1
EndSplineSet
Validated: 3073
EndChar

StartChar: z
Encoding: 122 122 194
Width: 1062
Flags: W
HStem: 0 102<334 741.59> 975 102<322.695 689>
DStem2: 50 0 334 102 0.551736 0.834019<241.763 1165.73>
LayerCount: 2
Fore
SplineSet
50 0 m 1,0,-1
 689 975 l 1,1,-1
 545 975 l 2,2,3
 280 975 280 975 65 755 c 1,4,-1
 51 755 l 1,5,-1
 237 1077 l 1,6,-1
 979 1077 l 1,7,-1
 334 102 l 1,8,-1
 518 102 l 2,9,10
 786 102 786 102 997 322 c 1,11,-1
 1012 322 l 1,12,-1
 826 0 l 1,13,-1
 50 0 l 1,0,-1
EndSplineSet
Validated: 3073
EndChar

StartChar: x
Encoding: 120 120 195
Width: 1236
Flags: W
HStem: 0 15<461.982 480 604 623.254 1212.89 1226> 1085 15<10 24.1863 603.473 622 750 766.469>
DStem2: 283 243 411 235 0.66616 0.745809<-30.4081 346.135 544.803 935.357> 653 643 285 849 0.594911 -0.803791<-349.616 0 132.715 454.218>
LayerCount: 2
Fore
SplineSet
10 0 m 1,0,-1
 10 15 l 1,1,2
 167 119 167 119 283 243 c 2,3,-1
 534 511 l 1,4,-1
 285 849 l 2,5,6
 162 1016 162 1016 10 1085 c 1,7,-1
 10 1100 l 1,8,-1
 622 1100 l 1,9,-1
 622 1085 l 1,10,11
 469 1029 469 1029 469 943 c 0,12,13
 469 904 469 904 501 859 c 2,14,-1
 653 643 l 1,15,-1
 837 857 l 2,16,17
 886 914 886 914 886 960 c 0,18,19
 886 1037 886 1037 750 1085 c 1,20,-1
 750 1100 l 1,21,-1
 1226 1100 l 1,22,-1
 1226 1085 l 1,23,24
 1082 990 1082 990 963 853 c 2,25,-1
 710 562 l 1,26,-1
 951 251 l 2,27,28
 1086 77 1086 77 1226 15 c 1,29,-1
 1226 0 l 1,30,-1
 604 0 l 1,31,-1
 604 15 l 1,32,33
 763 71 763 71 763 158 c 0,34,35
 763 200 763 200 727 248 c 2,36,-1
 591 432 l 1,37,-1
 411 235 l 2,38,39
 360 178 360 178 360 132 c 0,40,41
 360 62 360 62 480 15 c 1,42,-1
 480 0 l 1,43,-1
 10 0 l 1,0,-1
EndSplineSet
Validated: 3073
EndChar

StartChar: O
Encoding: 79 79 196
Width: 1424
Flags: MW
LayerCount: 2
Fore
SplineSet
338 727 m 0,0,1
 338 570 338 570 370 462 c 1,2,3
 419 268 419 268 502 178 c 0,4,5
 593 80 593 80 712 80 c 0,6,7
 714 80 714 80 715 80 c 0,8,9
 717 80 717 80 718 80 c 0,10,11
 821 80 821 80 930 180 c 1,12,13
 1006 274 1006 274 1045 417 c 0,14,15
 1084 559 1084 559 1084 727 c 0,16,17
 1084 741 1084 741 1084 758 c 0,18,19
 1084 945 1084 945 1045 1069 c 1,20,21
 996 1253 996 1253 910 1346 c 0,22,23
 831 1431 831 1431 713 1431 c 0,24,-1
 711 1431 l 0,25,26
 594 1431 594 1431 520 1364 c 1,27,28
 431 1292 431 1292 382 1096 c 0,29,30
 338 918 338 918 338 727 c 0,0,1
130 744 m 128,-1,32
 130 908 130 908 174 1060 c 128,-1,33
 218 1212 218 1212 294 1314 c 0,34,35
 370 1415 370 1415 474 1475.5 c 128,-1,36
 578 1536 578 1536 712 1536 c 128,-1,37
 846 1536 846 1536 950 1475.5 c 128,-1,38
 1054 1415 1054 1415 1130 1314 c 0,39,40
 1206 1212 1206 1212 1250 1060 c 128,-1,41
 1294 908 1294 908 1294 744 c 128,-1,42
 1294 580 1294 580 1250 439.5 c 128,-1,43
 1206 299 1206 299 1130 197 c 0,44,45
 1054 96 1054 96 950 35.5 c 128,-1,46
 846 -25 846 -25 712 -25 c 128,-1,47
 578 -25 578 -25 474 35.5 c 128,-1,48
 370 96 370 96 294 197 c 0,49,50
 218 299 218 299 174 439.5 c 128,-1,31
 130 580 130 580 130 744 c 128,-1,32
695 1583 m 1,51,-1
 883 1893 l 2,52,53
 886 1898 886 1898 897 1910 c 0,54,55
 923 1939 923 1939 961 1947 c 0,56,57
 976 1950 976 1950 990 1950 c 0,58,59
 1034 1950 1034 1950 1066 1918 c 0,60,61
 1095 1889 1095 1889 1095 1845 c 0,62,63
 1095 1837 1095 1837 1094 1827 c 0,64,65
 1090 1782 1090 1782 1059 1759 c 0,66,-1
 1042 1745 l 2,67,-1
 715 1562 l 1,68,-1
 695 1583 l 1,51,-1
EndSplineSet
Validated: 1
EndChar

StartChar: O
Encoding: 79 79 197
Width: 1424
Flags: MW
LayerCount: 2
Fore
SplineSet
338 727 m 0,0,1
 338 570 338 570 370 462 c 1,2,3
 419 268 419 268 502 178 c 0,4,5
 593 80 593 80 712 80 c 0,6,7
 714 80 714 80 715 80 c 0,8,9
 717 80 717 80 718 80 c 0,10,11
 821 80 821 80 930 180 c 1,12,13
 1006 274 1006 274 1045 417 c 0,14,15
 1084 559 1084 559 1084 727 c 0,16,17
 1084 741 1084 741 1084 758 c 0,18,19
 1084 945 1084 945 1045 1069 c 1,20,21
 996 1253 996 1253 910 1346 c 0,22,23
 831 1431 831 1431 713 1431 c 0,24,-1
 711 1431 l 0,25,26
 594 1431 594 1431 520 1364 c 1,27,28
 431 1292 431 1292 382 1096 c 0,29,30
 338 918 338 918 338 727 c 0,0,1
130 744 m 128,-1,32
 130 908 130 908 174 1060 c 128,-1,33
 218 1212 218 1212 294 1314 c 0,34,35
 370 1415 370 1415 474 1475.5 c 128,-1,36
 578 1536 578 1536 712 1536 c 128,-1,37
 846 1536 846 1536 950 1475.5 c 128,-1,38
 1054 1415 1054 1415 1130 1314 c 0,39,40
 1206 1212 1206 1212 1250 1060 c 128,-1,41
 1294 908 1294 908 1294 744 c 128,-1,42
 1294 580 1294 580 1250 439.5 c 128,-1,43
 1206 299 1206 299 1130 197 c 0,44,45
 1054 96 1054 96 950 35.5 c 128,-1,46
 846 -25 846 -25 712 -25 c 128,-1,47
 578 -25 578 -25 474 35.5 c 128,-1,48
 370 96 370 96 294 197 c 0,49,50
 218 299 218 299 174 439.5 c 128,-1,31
 130 580 130 580 130 744 c 128,-1,32
732 1583 m 1,51,-1
 712 1562 l 1,52,-1
 385 1745 l 2,53,-1
 368 1759 l 0,54,55
 337 1782 337 1782 333 1827 c 0,56,57
 332 1837 332 1837 332 1845 c 0,58,59
 332 1889 332 1889 361 1918 c 0,60,61
 393 1950 393 1950 437 1950 c 0,62,63
 452 1950 452 1950 466 1947 c 0,64,65
 504 1939 504 1939 530 1910 c 0,66,67
 541 1898 541 1898 544 1893 c 2,68,-1
 732 1583 l 1,51,-1
EndSplineSet
Validated: 1
EndChar

StartChar: O
Encoding: 79 79 198
Width: 1424
Flags: MW
LayerCount: 2
Fore
SplineSet
338 727 m 0,0,1
 338 570 338 570 370 462 c 1,2,3
 419 268 419 268 502 178 c 0,4,5
 593 80 593 80 712 80 c 0,6,7
 714 80 714 80 715 80 c 0,8,9
 717 80 717 80 718 80 c 0,10,11
 821 80 821 80 930 180 c 1,12,13
 1006 274 1006 274 1045 417 c 0,14,15
 1084 559 1084 559 1084 727 c 0,16,17
 1084 741 1084 741 1084 758 c 0,18,19
 1084 945 1084 945 1045 1069 c 1,20,21
 996 1253 996 1253 910 1346 c 0,22,23
 831 1431 831 1431 713 1431 c 0,24,-1
 711 1431 l 0,25,26
 594 1431 594 1431 520 1364 c 1,27,28
 431 1292 431 1292 382 1096 c 0,29,30
 338 918 338 918 338 727 c 0,0,1
130 744 m 128,-1,32
 130 908 130 908 174 1060 c 128,-1,33
 218 1212 218 1212 294 1314 c 0,34,35
 370 1415 370 1415 474 1475.5 c 128,-1,36
 578 1536 578 1536 712 1536 c 128,-1,37
 846 1536 846 1536 950 1475.5 c 128,-1,38
 1054 1415 1054 1415 1130 1314 c 0,39,40
 1206 1212 1206 1212 1250 1060 c 128,-1,41
 1294 908 1294 908 1294 744 c 128,-1,42
 1294 580 1294 580 1250 439.5 c 128,-1,43
 1206 299 1206 299 1130 197 c 0,44,45
 1054 96 1054 96 950 35.5 c 128,-1,46
 846 -25 846 -25 712 -25 c 128,-1,47
 578 -25 578 -25 474 35.5 c 128,-1,48
 370 96 370 96 294 197 c 0,49,50
 218 299 218 299 174 439.5 c 128,-1,31
 130 580 130 580 130 744 c 128,-1,32
427 1583 m 1,51,-1
 615 1893 l 2,52,53
 617 1896 617 1896 629 1910 c 0,54,55
 647 1933 647 1933 679 1943 c 0,56,57
 701 1950 701 1950 717 1950 c 2,58,-1
 720 1950 l 1,59,-1
 722 1950 l 2,60,61
 736 1950 736 1950 760 1943 c 0,62,63
 787 1935 787 1935 810 1910 c 0,64,65
 821 1898 821 1898 824 1893 c 2,66,-1
 1012 1583 l 1,67,-1
 992 1562 l 1,68,-1
 722 1742 l 1,69,-1
 447 1562 l 1,70,-1
 427 1583 l 1,51,-1
EndSplineSet
Validated: 1
EndChar

StartChar: O
Encoding: 79 79 199
Width: 1424
Flags: MW
LayerCount: 2
Fore
SplineSet
338 727 m 0,0,1
 338 570 338 570 370 462 c 1,2,3
 419 268 419 268 502 178 c 0,4,5
 593 80 593 80 712 80 c 0,6,7
 714 80 714 80 715 80 c 0,8,9
 717 80 717 80 718 80 c 0,10,11
 821 80 821 80 930 180 c 1,12,13
 1006 274 1006 274 1045 417 c 0,14,15
 1084 559 1084 559 1084 727 c 0,16,17
 1084 741 1084 741 1084 758 c 0,18,19
 1084 945 1084 945 1045 1069 c 1,20,21
 996 1253 996 1253 910 1346 c 0,22,23
 831 1431 831 1431 713 1431 c 0,24,-1
 711 1431 l 0,25,26
 594 1431 594 1431 520 1364 c 1,27,28
 431 1292 431 1292 382 1096 c 0,29,30
 338 918 338 918 338 727 c 0,0,1
130 744 m 128,-1,32
 130 908 130 908 174 1060 c 128,-1,33
 218 1212 218 1212 294 1314 c 0,34,35
 370 1415 370 1415 474 1475.5 c 128,-1,36
 578 1536 578 1536 712 1536 c 128,-1,37
 846 1536 846 1536 950 1475.5 c 128,-1,38
 1054 1415 1054 1415 1130 1314 c 0,39,40
 1206 1212 1206 1212 1250 1060 c 128,-1,41
 1294 908 1294 908 1294 744 c 128,-1,42
 1294 580 1294 580 1250 439.5 c 128,-1,43
 1206 299 1206 299 1130 197 c 0,44,45
 1054 96 1054 96 950 35.5 c 128,-1,46
 846 -25 846 -25 712 -25 c 128,-1,47
 578 -25 578 -25 474 35.5 c 128,-1,48
 370 96 370 96 294 197 c 0,49,50
 218 299 218 299 174 439.5 c 128,-1,31
 130 580 130 580 130 744 c 128,-1,32
426 1700 m 1,51,52
 485 1950 485 1950 611 1950 c 0,53,54
 624 1950 624 1950 641 1946 c 0,55,56
 679 1937 679 1937 771 1875 c 1,57,-1
 858 1814 l 0,58,59
 884 1792 884 1792 916 1792 c 0,60,61
 918 1792 918 1792 919 1792 c 0,62,63
 980 1792 980 1792 1064 1902 c 1,64,65
 1010 1644 1010 1644 882 1633 c 0,66,67
 870 1632 870 1632 858 1635 c 0,68,69
 818 1645 818 1645 727 1709 c 1,70,-1
 641 1767 l 0,71,72
 613 1787 613 1787 579 1788 c 0,73,-1
 578 1788 l 0,74,75
 514 1788 514 1788 426 1700 c 1,51,52
EndSplineSet
Validated: 1
EndChar

StartChar: O
Encoding: 79 79 200
Width: 1424
Flags: MW
LayerCount: 2
Fore
SplineSet
338 727 m 0,0,1
 338 570 338 570 370 462 c 1,2,3
 419 268 419 268 502 178 c 0,4,5
 593 80 593 80 712 80 c 0,6,7
 714 80 714 80 715 80 c 0,8,9
 717 80 717 80 718 80 c 0,10,11
 821 80 821 80 930 180 c 1,12,13
 1006 274 1006 274 1045 417 c 0,14,15
 1084 559 1084 559 1084 727 c 0,16,17
 1084 741 1084 741 1084 758 c 0,18,19
 1084 945 1084 945 1045 1069 c 1,20,21
 996 1253 996 1253 910 1346 c 0,22,23
 831 1431 831 1431 713 1431 c 0,24,-1
 711 1431 l 0,25,26
 594 1431 594 1431 520 1364 c 1,27,28
 431 1292 431 1292 382 1096 c 0,29,30
 338 918 338 918 338 727 c 0,0,1
130 744 m 128,-1,32
 130 908 130 908 174 1060 c 128,-1,33
 218 1212 218 1212 294 1314 c 0,34,35
 370 1415 370 1415 474 1475.5 c 128,-1,36
 578 1536 578 1536 712 1536 c 128,-1,37
 846 1536 846 1536 950 1475.5 c 128,-1,38
 1054 1415 1054 1415 1130 1314 c 0,39,40
 1206 1212 1206 1212 1250 1060 c 128,-1,41
 1294 908 1294 908 1294 744 c 128,-1,42
 1294 580 1294 580 1250 439.5 c 128,-1,43
 1206 299 1206 299 1130 197 c 0,44,45
 1054 96 1054 96 950 35.5 c 128,-1,46
 846 -25 846 -25 712 -25 c 128,-1,47
 578 -25 578 -25 474 35.5 c 128,-1,48
 370 96 370 96 294 197 c 0,49,50
 218 299 218 299 174 439.5 c 128,-1,31
 130 580 130 580 130 744 c 128,-1,32
754 1804 m 128,-1,52
 754 1859 754 1859 792 1897.5 c 128,-1,53
 830 1936 830 1936 884 1936 c 128,-1,54
 938 1936 938 1936 976 1897.5 c 128,-1,55
 1014 1859 1014 1859 1014 1804 c 128,-1,56
 1014 1749 1014 1749 976 1710.5 c 128,-1,57
 938 1672 938 1672 884 1672 c 128,-1,58
 830 1672 830 1672 792 1710.5 c 128,-1,51
 754 1749 754 1749 754 1804 c 128,-1,52
417 1804 m 128,-1,60
 417 1859 417 1859 455 1897.5 c 128,-1,61
 493 1936 493 1936 547 1936 c 128,-1,62
 601 1936 601 1936 639 1897.5 c 128,-1,63
 677 1859 677 1859 677 1804 c 128,-1,64
 677 1749 677 1749 639 1710.5 c 128,-1,65
 601 1672 601 1672 547 1672 c 128,-1,66
 493 1672 493 1672 455 1710.5 c 128,-1,59
 417 1749 417 1749 417 1804 c 128,-1,60
EndSplineSet
Validated: 1
EndChar

StartChar: O
Encoding: 79 79 201
Width: 1424
Flags: MW
LayerCount: 2
Fore
SplineSet
130 744 m 128,-1,1
 130 908 130 908 174 1060 c 128,-1,2
 218 1212 218 1212 294 1314 c 0,3,4
 370 1415 370 1415 474 1475.5 c 128,-1,5
 578 1536 578 1536 712 1536 c 0,6,7
 843 1536 843 1536 945 1479 c 1,8,-1
 1014 1634 l 1,9,-1
 1148 1568 l 1,10,-1
 1067 1386 l 1,11,12
 1101 1353 1101 1353 1130 1314 c 0,13,14
 1206 1212 1206 1212 1250 1060 c 128,-1,15
 1294 908 1294 908 1294 744 c 128,-1,16
 1294 580 1294 580 1250 439.5 c 128,-1,17
 1206 299 1206 299 1130 197 c 0,18,19
 1054 96 1054 96 950 35.5 c 128,-1,20
 846 -25 846 -25 712 -25 c 128,-1,21
 578 -25 578 -25 474 36 c 2,22,-1
 466 40 l 1,23,-1
 396 -118 l 1,24,-1
 262 -48 l 1,25,-1
 345 137 l 1,26,27
 318 165 318 165 294 197 c 0,28,29
 218 298 218 298 174 440 c 0,30,0
 130 580 130 580 130 744 c 128,-1,1
338 727 m 0,31,32
 338 570 338 570 370 462 c 1,33,34
 392 374 392 374 421 308 c 1,35,-1
 893 1363 l 1,36,37
 819 1431 819 1431 713 1431 c 2,38,-1
 711 1431 l 2,39,40
 594 1431 594 1431 520 1364 c 1,41,42
 431 1292 431 1292 382 1096 c 0,43,44
 338 918 338 918 338 727 c 0,31,32
992 1219 m 1,45,-1
 520 160 l 1,46,47
 605 80 605 80 712 80 c 2,48,-1
 715 80 l 1,49,-1
 718 80 l 2,50,51
 821 80 821 80 930 180 c 1,52,53
 1006 274 1006 274 1045 417 c 0,54,55
 1084 559 1084 559 1084 727 c 2,56,-1
 1084 758 l 2,57,58
 1084 945 1084 945 1045 1069 c 1,59,60
 1023 1153 1023 1153 992 1219 c 1,45,-1
EndSplineSet
Validated: 1
EndChar

StartChar: O
Encoding: 79 79 202
Width: 1424
Flags: MW
LayerCount: 2
Fore
SplineSet
338 727 m 0,0,1
 338 570 338 570 370 462 c 1,2,3
 419 268 419 268 502 178 c 0,4,5
 593 80 593 80 712 80 c 0,6,7
 714 80 714 80 715 80 c 0,8,9
 717 80 717 80 718 80 c 0,10,11
 821 80 821 80 930 180 c 1,12,13
 1006 274 1006 274 1045 417 c 0,14,15
 1084 559 1084 559 1084 727 c 0,16,17
 1084 741 1084 741 1084 758 c 0,18,19
 1084 945 1084 945 1045 1069 c 1,20,21
 996 1253 996 1253 910 1346 c 0,22,23
 831 1431 831 1431 713 1431 c 0,24,-1
 711 1431 l 0,25,26
 594 1431 594 1431 520 1364 c 1,27,28
 431 1292 431 1292 382 1096 c 0,29,30
 338 918 338 918 338 727 c 0,0,1
130 744 m 128,-1,32
 130 908 130 908 174 1060 c 128,-1,33
 218 1212 218 1212 294 1314 c 0,34,35
 370 1415 370 1415 474 1475.5 c 128,-1,36
 578 1536 578 1536 712 1536 c 128,-1,37
 846 1536 846 1536 950 1475.5 c 128,-1,38
 1054 1415 1054 1415 1130 1314 c 0,39,40
 1206 1212 1206 1212 1250 1060 c 128,-1,41
 1294 908 1294 908 1294 744 c 128,-1,42
 1294 580 1294 580 1250 439.5 c 128,-1,43
 1206 299 1206 299 1130 197 c 0,44,45
 1054 96 1054 96 950 35.5 c 128,-1,46
 846 -25 846 -25 712 -25 c 128,-1,47
 578 -25 578 -25 474 35.5 c 128,-1,48
 370 96 370 96 294 197 c 0,49,50
 218 299 218 299 174 439.5 c 128,-1,31
 130 580 130 580 130 744 c 128,-1,32
426 1950 m 1,51,-1
 1009 1950 l 1,52,-1
 1009 1773 l 1,53,-1
 426 1773 l 1,54,-1
 426 1950 l 1,51,-1
EndSplineSet
Validated: 1
EndChar

StartChar: O
Encoding: 79 79 203
Width: 1424
Flags: MW
LayerCount: 2
Fore
SplineSet
338 727 m 0,0,1
 338 570 338 570 370 462 c 1,2,3
 419 268 419 268 502 178 c 0,4,5
 593 80 593 80 712 80 c 0,6,7
 714 80 714 80 715 80 c 0,8,9
 717 80 717 80 718 80 c 0,10,11
 821 80 821 80 930 180 c 1,12,13
 1006 274 1006 274 1045 417 c 0,14,15
 1084 559 1084 559 1084 727 c 0,16,17
 1084 741 1084 741 1084 758 c 0,18,19
 1084 945 1084 945 1045 1069 c 1,20,21
 996 1253 996 1253 910 1346 c 0,22,23
 831 1431 831 1431 713 1431 c 0,24,-1
 711 1431 l 0,25,26
 594 1431 594 1431 520 1364 c 1,27,28
 431 1292 431 1292 382 1096 c 0,29,30
 338 918 338 918 338 727 c 0,0,1
130 744 m 128,-1,32
 130 908 130 908 174 1060 c 128,-1,33
 218 1212 218 1212 294 1314 c 0,34,35
 370 1415 370 1415 474 1475.5 c 128,-1,36
 578 1536 578 1536 712 1536 c 128,-1,37
 846 1536 846 1536 950 1475.5 c 128,-1,38
 1054 1415 1054 1415 1130 1314 c 0,39,40
 1206 1212 1206 1212 1250 1060 c 128,-1,41
 1294 908 1294 908 1294 744 c 128,-1,42
 1294 580 1294 580 1250 439.5 c 128,-1,43
 1206 299 1206 299 1130 197 c 0,44,45
 1054 96 1054 96 950 35.5 c 128,-1,46
 846 -25 846 -25 712 -25 c 128,-1,47
 578 -25 578 -25 474 35.5 c 128,-1,48
 370 96 370 96 294 197 c 0,49,50
 218 299 218 299 174 439.5 c 128,-1,31
 130 580 130 580 130 744 c 128,-1,32
384 1833 m 1,51,-1
 498 1950 l 1,52,53
 532 1921 532 1921 538 1915 c 0,54,55
 617 1854 617 1854 729 1854 c 0,56,57
 821 1854 821 1854 888 1914 c 1,58,-1
 921 1947 l 1,59,-1
 1054 1845 l 1,60,61
 997 1785 997 1785 927 1743 c 0,62,63
 827 1683 827 1683 714 1683 c 128,-1,64
 601 1683 601 1683 497 1746 c 0,65,66
 429 1787 429 1787 384 1833 c 1,51,-1
EndSplineSet
Validated: 1
EndChar

StartChar: O
Encoding: 79 79 204
Width: 1424
Flags: W
HStem: -20 105<566.807 866.165> 1425 105<566.13 856.651>
VStem: 130 218<428.568 1075.76> 1076 218<430.198 1078.51>
LayerCount: 2
Fore
SplineSet
1076 755 m 0,0,1
 1076 1131 1076 1131 948 1294 c 0,2,3
 845 1425 845 1425 712 1425 c 0,4,5
 574 1425 574 1425 476 1294 c 0,6,7
 348 1120 348 1120 348 755 c 0,8,9
 348 389 348 389 476 216 c 0,10,11
 573 85 573 85 712 85 c 0,12,13
 865 85 865 85 954 215 c 0,14,15
 1076 394 1076 394 1076 755 c 0,0,1
1294 755 m 0,16,17
 1294 353 1294 353 1077 139 c 0,18,19
 916 -20 916 -20 712 -20 c 0,20,21
 502 -20 502 -20 348 134 c 0,22,23
 130 353 130 353 130 755 c 0,24,25
 130 1152 130 1152 348 1376 c 0,26,27
 498 1530 498 1530 712 1530 c 128,-1,28
 926 1530 926 1530 1076 1376 c 0,29,30
 1294 1152 1294 1152 1294 755 c 0,16,17
EndSplineSet
Validated: 3073
EndChar

StartChar: Agrave
Encoding: 192 192 205
Width: 1495
Flags: W
HStem: 0 15<5 24.1758 458.406 475 938 954.832 1470.95 1490> 541 101<501 906> 1530 20G<732.215 762.8>
DStem2: 234 250 352 248 0.362723 0.931897<-31.5392 354.246 462.151 1030.83> 755 1550 702 1174 0.363345 -0.931655<331.045 900.807 1009.44 1397.92>
LayerCount: 2
Fore
SplineSet
734 1612 m 1,0,-1
 714 1590 l 1,1,-1
 428 1756 l 18,2,3
 376 1786 376 1786 376 1848 c 0,4,5
 376 1887 376 1887 402 1917 c 0,6,7
 434 1950 434 1950 480 1950 c 0,8,9
 538 1950 538 1950 570 1895 c 10,10,-1
 734 1612 l 1,0,-1
5 0 m 1,11,-1
 5 15 l 1,12,13
 161 62 161 62 234 250 c 2,14,-1
 740 1550 l 1,15,-1
 755 1550 l 1,16,-1
 1262 250 l 2,17,18
 1335 62 1335 62 1490 15 c 1,19,-1
 1490 0 l 1,20,-1
 938 0 l 1,21,-1
 938 15 l 1,22,23
 1077 71 1077 71 1077 174 c 0,24,25
 1076 209 1076 209 1061 248 c 2,26,-1
 946 541 l 1,27,-1
 463 541 l 1,28,-1
 352 248 l 2,29,30
 337 209 337 209 337 175 c 0,31,32
 338 71 338 71 475 15 c 1,33,-1
 475 0 l 1,34,-1
 5 0 l 1,11,-1
501 642 m 1,35,-1
 906 642 l 1,36,-1
 702 1174 l 1,37,-1
 501 642 l 1,35,-1
EndSplineSet
Validated: 3073
EndChar

StartChar: Aacute
Encoding: 193 193 206
Width: 1495
Flags: W
HStem: 0 15<5 24.1758 458.406 475 938 954.832 1470.95 1490> 541 101<501 906> 1530 20G<732.215 762.8>
DStem2: 234 250 352 248 0.362723 0.931897<-31.5392 354.246 462.151 1030.83> 755 1550 702 1174 0.363345 -0.931655<331.045 900.807 1009.44 1397.92>
LayerCount: 2
Fore
SplineSet
746 1590 m 1,0,-1
 726 1612 l 1,1,-1
 890 1895 l 18,2,3
 922 1950 922 1950 980 1950 c 0,4,5
 1026 1950 1026 1950 1058 1917 c 0,6,7
 1084 1887 1084 1887 1084 1848 c 0,8,9
 1084 1786 1084 1786 1032 1756 c 10,10,-1
 746 1590 l 1,0,-1
5 0 m 1,11,-1
 5 15 l 1,12,13
 161 62 161 62 234 250 c 2,14,-1
 740 1550 l 1,15,-1
 755 1550 l 1,16,-1
 1262 250 l 2,17,18
 1335 62 1335 62 1490 15 c 1,19,-1
 1490 0 l 1,20,-1
 938 0 l 1,21,-1
 938 15 l 1,22,23
 1077 71 1077 71 1077 174 c 0,24,25
 1076 209 1076 209 1061 248 c 2,26,-1
 946 541 l 1,27,-1
 463 541 l 1,28,-1
 352 248 l 2,29,30
 337 209 337 209 337 175 c 0,31,32
 338 71 338 71 475 15 c 1,33,-1
 475 0 l 1,34,-1
 5 0 l 1,11,-1
501 642 m 1,35,-1
 906 642 l 1,36,-1
 702 1174 l 1,37,-1
 501 642 l 1,35,-1
EndSplineSet
Validated: 3073
EndChar

StartChar: Acircumflex
Encoding: 194 194 207
Width: 1495
Flags: W
HStem: 0 15<5 24.1758 458.406 475 938 954.832 1470.95 1490> 541 101<501 906> 1530 20G<732.215 762.8>
DStem2: 234 250 352 248 0.362723 0.931897<-31.5392 354.246 462.151 1030.83> 682 1950 742 1806 0.578499 0.815683<-268.204 -82.7485> 755 1550 702 1174 0.363345 -0.931655<331.045 900.807 1009.44 1397.92> 802 1950 742 1806 0.578499 -0.815683<82.7485 268.204>
LayerCount: 2
Fore
SplineSet
682 1950 m 1,0,1
 802 1950 l 1,2,3
 1002 1668 l 1,4,-1
 868 1668 l 1,5,6
 797 1716 797 1716 742 1806 c 1,7,8
 690 1721 690 1721 616 1668 c 1,9,-1
 482 1668 l 1,10,11
 682 1950 l 1,0,1
5 0 m 1,12,-1
 5 15 l 1,13,14
 161 62 161 62 234 250 c 2,15,-1
 740 1550 l 1,16,-1
 755 1550 l 1,17,-1
 1262 250 l 2,18,19
 1335 62 1335 62 1490 15 c 1,20,-1
 1490 0 l 1,21,-1
 938 0 l 1,22,-1
 938 15 l 1,23,24
 1077 71 1077 71 1077 174 c 0,25,26
 1076 209 1076 209 1061 248 c 2,27,-1
 946 541 l 1,28,-1
 463 541 l 1,29,-1
 352 248 l 2,30,31
 337 209 337 209 337 175 c 0,32,33
 338 71 338 71 475 15 c 1,34,-1
 475 0 l 1,35,-1
 5 0 l 1,12,-1
501 642 m 1,36,-1
 906 642 l 1,37,-1
 702 1174 l 1,38,-1
 501 642 l 1,36,-1
EndSplineSet
Validated: 3073
EndChar

StartChar: Atilde
Encoding: 195 195 208
Width: 1495
Flags: W
HStem: 0 15<5 24.1758 458.406 475 938 954.832 1470.95 1490> 541 101<501 906> 1530 20G<732.215 762.8> 1669 131<785.992 966.195> 1779 131<534.805 715.008>
DStem2: 234 250 352 248 0.362723 0.931897<-31.5392 354.246 462.151 1030.83> 741 1874 682 1756 0.83697 -0.547249<-48.5737 156.961> 755 1550 702 1174 0.363345 -0.931655<331.045 900.807 1009.44 1397.92>
LayerCount: 2
Fore
SplineSet
476 1669 m 1,0,1
 491 1910 491 1910 629 1910 c 0,2,3
 686 1910 686 1910 741 1874 c 2,4,-1
 819 1823 l 2,5,6
 854 1800 854 1800 881 1800 c 24,7,8
 942 1800 942 1800 1025 1910 c 1,9,10
 1010 1669 1010 1669 872 1669 c 0,11,12
 815 1669 815 1669 760 1705 c 2,13,-1
 682 1756 l 2,14,15
 647 1779 647 1779 620 1779 c 24,16,17
 559 1779 559 1779 476 1669 c 1,0,1
5 0 m 1,18,-1
 5 15 l 1,19,20
 161 62 161 62 234 250 c 2,21,-1
 740 1550 l 1,22,-1
 755 1550 l 1,23,-1
 1262 250 l 2,24,25
 1335 62 1335 62 1490 15 c 1,26,-1
 1490 0 l 1,27,-1
 938 0 l 1,28,-1
 938 15 l 1,29,30
 1077 71 1077 71 1077 174 c 0,31,32
 1076 209 1076 209 1061 248 c 2,33,-1
 946 541 l 1,34,-1
 463 541 l 1,35,-1
 352 248 l 2,36,37
 337 209 337 209 337 175 c 0,38,39
 338 71 338 71 475 15 c 1,40,-1
 475 0 l 1,41,-1
 5 0 l 1,18,-1
501 642 m 1,42,-1
 906 642 l 1,43,-1
 702 1174 l 1,44,-1
 501 642 l 1,42,-1
EndSplineSet
Validated: 3073
EndChar

StartChar: Adieresis
Encoding: 196 196 209
Width: 1495
Flags: W
HStem: 0 15<5 24.1758 458.406 475 938 954.832 1470.95 1490> 541 101<501 906> 1530 20G<732.215 762.8> 1638 264<491.191 672.324 828.191 1009.81>
VStem: 452 259<1677.71 1862.81> 789 260<1677.71 1862.81>
DStem2: 234 250 352 248 0.362723 0.931897<-31.5392 354.246 462.151 1030.83> 755 1550 702 1174 0.363345 -0.931655<331.045 900.807 1009.44 1397.92>
LayerCount: 2
Fore
SplineSet
789 1770.5 m 128,-1,1
 789 1826 789 1826 827 1864 c 128,-1,2
 865 1902 865 1902 919 1902 c 128,-1,3
 973 1902 973 1902 1011 1864 c 128,-1,4
 1049 1826 1049 1826 1049 1770.5 c 128,-1,5
 1049 1715 1049 1715 1011 1676.5 c 128,-1,6
 973 1638 973 1638 919 1638 c 128,-1,7
 865 1638 865 1638 827 1676.5 c 128,-1,0
 789 1715 789 1715 789 1770.5 c 128,-1,1
452 1770.5 m 128,-1,9
 452 1826 452 1826 490 1864 c 128,-1,10
 528 1902 528 1902 582 1902 c 128,-1,11
 636 1902 636 1902 673.5 1864 c 128,-1,12
 711 1826 711 1826 711 1770.5 c 128,-1,13
 711 1715 711 1715 673.5 1676.5 c 128,-1,14
 636 1638 636 1638 582 1638 c 128,-1,15
 528 1638 528 1638 490 1676.5 c 128,-1,8
 452 1715 452 1715 452 1770.5 c 128,-1,9
5 0 m 1,16,-1
 5 15 l 1,17,18
 161 62 161 62 234 250 c 2,19,-1
 740 1550 l 1,20,-1
 755 1550 l 1,21,-1
 1262 250 l 2,22,23
 1335 62 1335 62 1490 15 c 1,24,-1
 1490 0 l 1,25,-1
 938 0 l 1,26,-1
 938 15 l 1,27,28
 1077 71 1077 71 1077 174 c 0,29,30
 1076 209 1076 209 1061 248 c 2,31,-1
 946 541 l 1,32,-1
 463 541 l 1,33,-1
 352 248 l 2,34,35
 337 209 337 209 337 175 c 0,36,37
 338 71 338 71 475 15 c 1,38,-1
 475 0 l 1,39,-1
 5 0 l 1,16,-1
501 642 m 1,40,-1
 906 642 l 1,41,-1
 702 1174 l 1,42,-1
 501 642 l 1,40,-1
EndSplineSet
Validated: 3073
EndChar

StartChar: Aring
Encoding: 197 197 210
Width: 1495
Flags: W
HStem: 0 15<5 24.1758 458.406 475 938 954.832 1470.95 1490> 541 101<501 906> 1530 20G<732.215 762.8> 1593 91<683.7 816.19> 1864 86<684.418 815.488>
VStem: 573 92<1702.87 1845.6> 835 88<1702.86 1845.07>
DStem2: 234 250 352 248 0.362723 0.931897<-31.5392 354.246 462.151 1030.83> 755 1550 702 1174 0.363345 -0.931655<331.045 900.807 1009.44 1397.92>
LayerCount: 2
Fore
SplineSet
665 1774 m 0,0,1
 665 1737 665 1737 690 1710 c 0,2,3
 714 1684 714 1684 749 1684 c 0,4,5
 785 1684 785 1684 810 1710 c 128,-1,6
 835 1736 835 1736 835 1774 c 128,-1,7
 835 1812 835 1812 810 1838 c 128,-1,8
 785 1864 785 1864 750 1864 c 0,9,10
 714 1864 714 1864 689.5 1838 c 128,-1,11
 665 1812 665 1812 665 1774 c 0,0,1
573 1772 m 0,12,13
 573 1846 573 1846 624 1898 c 128,-1,14
 675 1950 675 1950 748 1950 c 0,15,16
 822 1950 822 1950 872 1899 c 0,17,18
 923 1847 923 1847 923 1772 c 128,-1,19
 923 1697 923 1697 872 1645 c 128,-1,20
 821 1593 821 1593 748 1593 c 128,-1,21
 675 1593 675 1593 624 1645 c 128,-1,22
 573 1697 573 1697 573 1772 c 0,12,13
5 0 m 1,23,-1
 5 15 l 1,24,25
 161 62 161 62 234 250 c 2,26,-1
 740 1550 l 1,27,-1
 755 1550 l 1,28,-1
 1262 250 l 2,29,30
 1335 62 1335 62 1490 15 c 1,31,-1
 1490 0 l 1,32,-1
 938 0 l 1,33,-1
 938 15 l 1,34,35
 1077 71 1077 71 1077 174 c 0,36,37
 1076 209 1076 209 1061 248 c 2,38,-1
 946 541 l 1,39,-1
 463 541 l 1,40,-1
 352 248 l 2,41,42
 337 209 337 209 337 175 c 0,43,44
 338 71 338 71 475 15 c 1,45,-1
 475 0 l 1,46,-1
 5 0 l 1,23,-1
501 642 m 1,47,-1
 906 642 l 1,48,-1
 702 1174 l 1,49,-1
 501 642 l 1,47,-1
EndSplineSet
Validated: 3073
EndChar

StartChar: AE
Encoding: 198 198 211
Width: 2147
Flags: W
HStem: 0 102<1251.37 1836.1> 0 15<5 25.105 458.406 475 865 885.586> 541 101<567 1035 1235 1493.48> 1408 102<1251.37 1706.1>
VStem: 1035 200<103.789 541 642 1406.18>
DStem2: 231 246 368 248 0.448345 0.893861<-15.5628 392.812 504.613 1400.38>
LayerCount: 2
Fore
SplineSet
865 0 m 1,0,-1
 865 15 l 1,1,2
 1035 60 1035 60 1035 249 c 2,3,-1
 1035 541 l 1,4,-1
 519 541 l 1,5,-1
 368 248 l 2,6,7
 337 188 337 188 337 175 c 0,8,9
 338 71 338 71 475 15 c 1,10,-1
 475 0 l 1,11,-1
 5 0 l 1,12,-1
 5 15 l 1,13,14
 135 54 135 54 231 246 c 2,15,-1
 865 1510 l 1,16,-1
 1791 1510 l 1,17,-1
 1977 1188 l 1,18,-1
 1962 1188 l 1,19,20
 1750 1408 1750 1408 1483 1408 c 2,21,-1
 1273 1408 l 1,22,23
 1235 1350 1235 1350 1235 1260 c 2,24,-1
 1235 642 l 1,25,-1
 1399 642 l 2,26,27
 1619 642 1619 642 1802 833 c 1,28,-1
 1817 833 l 1,29,-1
 1548 361 l 1,30,-1
 1533 361 l 1,31,32
 1533 541 1533 541 1399 541 c 2,33,-1
 1235 541 l 1,34,-1
 1235 249 l 2,35,36
 1235 159 1235 159 1273 102 c 1,37,-1
 1613 102 l 2,38,39
 1880 102 1880 102 2092 322 c 1,40,-1
 2107 322 l 1,41,-1
 1921 0 l 1,42,-1
 865 0 l 1,0,-1
964 1445 m 1,43,-1
 567 642 l 1,44,-1
 1035 642 l 1,45,-1
 1035 1260 l 2,46,47
 1035 1383 1035 1383 964 1445 c 1,43,-1
EndSplineSet
Validated: 3073
EndChar

StartChar: Amacron
Encoding: 256 256 212
Width: 1495
Flags: W
HStem: 0 15<5 24.1758 458.406 475 938 954.832 1470.95 1490> 541 101<501 906> 1530 20G<732.215 762.8> 1696 150<486 1006>
DStem2: 234 250 352 248 0.362723 0.931897<-31.5392 354.246 462.151 1030.83> 755 1550 702 1174 0.363345 -0.931655<331.045 900.807 1009.44 1397.92>
LayerCount: 2
Fore
SplineSet
486 1846 m 1,0,-1
 1006 1846 l 1,1,-1
 1006 1696 l 1,2,-1
 486 1696 l 1,3,-1
 486 1846 l 1,0,-1
5 0 m 1,4,-1
 5 15 l 1,5,6
 161 62 161 62 234 250 c 2,7,-1
 740 1550 l 1,8,-1
 755 1550 l 1,9,-1
 1262 250 l 2,10,11
 1335 62 1335 62 1490 15 c 1,12,-1
 1490 0 l 1,13,-1
 938 0 l 1,14,-1
 938 15 l 1,15,16
 1077 71 1077 71 1077 174 c 0,17,18
 1076 209 1076 209 1061 248 c 2,19,-1
 946 541 l 1,20,-1
 463 541 l 1,21,-1
 352 248 l 2,22,23
 337 209 337 209 337 175 c 0,24,25
 338 71 338 71 475 15 c 1,26,-1
 475 0 l 1,27,-1
 5 0 l 1,4,-1
501 642 m 1,28,-1
 906 642 l 1,29,-1
 702 1174 l 1,30,-1
 501 642 l 1,28,-1
EndSplineSet
Validated: 3073
EndChar

StartChar: Abreve
Encoding: 258 258 213
Width: 1495
Flags: W
HStem: 0 15<5 24.1758 458.406 475 938 954.832 1470.95 1490> 541 101<501 906> 1530 20G<732.215 762.8> 1688 150<613.969 878.031>
VStem: 486 74<1895.86 1950> 932 74<1895.86 1950>
DStem2: 234 250 352 248 0.362723 0.931897<-31.5392 354.246 462.151 1030.83> 755 1550 702 1174 0.363345 -0.931655<331.045 900.807 1009.44 1397.92>
LayerCount: 2
Fore
SplineSet
486 1950 m 1,0,1
 560 1950 l 1,2,3
 613 1838 613 1838 746 1838 c 128,-1,4
 879 1838 879 1838 932 1950 c 1,5,-1
 1006 1950 l 1,6,7
 930 1688 930 1688 746 1688 c 128,-1,8
 562 1688 562 1688 486 1950 c 1,0,1
5 0 m 1,9,-1
 5 15 l 1,10,11
 161 62 161 62 234 250 c 2,12,-1
 740 1550 l 1,13,-1
 755 1550 l 1,14,-1
 1262 250 l 2,15,16
 1335 62 1335 62 1490 15 c 1,17,-1
 1490 0 l 1,18,-1
 938 0 l 1,19,-1
 938 15 l 1,20,21
 1077 71 1077 71 1077 174 c 0,22,23
 1076 209 1076 209 1061 248 c 2,24,-1
 946 541 l 1,25,-1
 463 541 l 1,26,-1
 352 248 l 2,27,28
 337 209 337 209 337 175 c 0,29,30
 338 71 338 71 475 15 c 1,31,-1
 475 0 l 1,32,-1
 5 0 l 1,9,-1
501 642 m 1,33,-1
 906 642 l 1,34,-1
 702 1174 l 1,35,-1
 501 642 l 1,33,-1
EndSplineSet
Validated: 3073
EndChar

StartChar: Aogonek
Encoding: 260 260 214
Width: 1495
Flags: W
HStem: -430 172<1038.84 1098.83> 0 15<5 24.1758 458.406 475 1470.95 1490> 541 101<501 906> 1530 20G<732.215 762.8>
VStem: 844 151<-224.338 -33.5557>
DStem2: 234 250 352 248 0.362723 0.931897<-31.5679 354.246 462.151 1030.83> 755 1550 702 1174 0.363345 -0.931655<331.045 900.807 1009.44 1397.92>
LayerCount: 2
Fore
SplineSet
501 642 m 1,0,-1
 906 642 l 1,1,-1
 702 1174 l 1,2,-1
 501 642 l 1,0,-1
5 0 m 1,3,-1
 5 15 l 1,4,5
 161 62 161 62 234 250 c 2,6,-1
 740 1550 l 1,7,-1
 755 1550 l 1,8,-1
 1262 250 l 2,9,10
 1335 62 1335 62 1490 15 c 1,11,-1
 1490 0 l 1,12,-1
 1050 -0 l 1,13,14
 1042 -9 1042 -9 1036 -18 c 0,15,16
 995 -80 995 -80 995 -140 c 0,17,18
 995 -190 995 -190 1037.5 -224 c 128,-1,19
 1080 -258 1080 -258 1174 -258 c 1,20,-1
 1092 -430 l 1,21,22
 984 -412 984 -412 908 -337 c 0,23,24
 844 -273 844 -273 844 -166 c 0,25,26
 844 -54 844 -54 946 24 c 0,27,28
 984 53 984 53 1029 69 c 1,29,30
 1077 114 1077 114 1077 174 c 1,31,32
 1076 209 1076 209 1061 248 c 2,33,-1
 946 541 l 1,34,-1
 463 541 l 1,35,-1
 352 248 l 2,36,37
 337 208 337 208 337 175 c 0,38,39
 338 71 338 71 475 15 c 1,40,-1
 475 0 l 1,41,-1
 5 0 l 1,3,-1
EndSplineSet
Validated: 3073
EndChar

StartChar: Ccedilla
Encoding: 199 199 215
Width: 1349
Flags: W
HStem: -430 172<609.165 669.159> 1424 106<565.058 871.439>
VStem: 130 222<428.168 1080.37> 713 151<-224.338 -31.4698> 1110 139<317.391 429> 1151 15<944 965.026 1504.38 1530>
LayerCount: 2
Fore
SplineSet
1249 429 m 1,0,1
 1198 257 1198 257 1076 134 c 0,2,3
 957 14 957 14 803 -12 c 1,4,5
 864 -78 864 -78 864 -166 c 0,6,7
 864 -273 864 -273 800 -337 c 0,8,9
 724 -412 724 -412 616 -430 c 1,10,-1
 534 -258 l 1,11,12
 628 -258 628 -258 670.5 -224 c 128,-1,13
 713 -190 713 -190 713 -140 c 0,14,15
 713 -78 713 -78 672 -19 c 1,16,17
 487 -5 487 -5 348 134 c 0,18,19
 130 352 130 352 130 755 c 0,20,21
 130 1155 130 1155 348 1376 c 0,22,23
 500 1530 500 1530 694 1530 c 0,24,25
 808 1530 808 1530 938 1465 c 0,26,27
 1004 1432 1004 1432 1050 1432 c 0,28,29
 1129 1432 1129 1432 1151 1530 c 1,30,-1
 1166 1530 l 1,31,-1
 1166 944 l 1,32,-1
 1151 944 l 1,33,34
 1086 1171 1086 1171 987 1282 c 0,35,36
 860 1424 860 1424 717 1424 c 0,37,38
 566 1424 566 1424 470 1288 c 0,39,40
 352 1121 352 1121 352 757 c 0,41,42
 352 380 352 380 464 230 c 1,43,44
 570 90 570 90 748 90 c 0,45,46
 894 90 894 90 996 214 c 0,47,48
 1083 320 1083 320 1110 429 c 1,49,-1
 1249 429 l 1,0,1
EndSplineSet
Validated: 3073
EndChar

StartChar: Cacute
Encoding: 262 262 216
Width: 1349
Flags: W
HStem: -20 110<572.387 904.581> 1424 106<565.058 871.439>
VStem: 130 222<428.416 1080.37> 1110 139<317.391 429> 1151 15<944 965.026 1504.38 1530>
LayerCount: 2
Fore
SplineSet
713 1590 m 1,0,-1
 693 1612 l 1,1,-1
 857 1895 l 18,2,3
 889 1950 889 1950 947 1950 c 0,4,5
 993 1950 993 1950 1025 1917 c 0,6,7
 1051 1887 1051 1887 1051 1848 c 0,8,9
 1051 1786 1051 1786 999 1756 c 10,10,-1
 713 1590 l 1,0,-1
1249 429 m 1,11,12
 1198 256 1198 256 1076 134 c 0,13,14
 924 -20 924 -20 712 -20 c 0,15,16
 502 -20 502 -20 348 134 c 0,17,18
 130 353 130 353 130 755 c 0,19,20
 130 1155 130 1155 348 1376 c 0,21,22
 500 1530 500 1530 694 1530 c 0,23,24
 808 1530 808 1530 938 1465 c 16,25,26
 1004 1432 1004 1432 1050 1432 c 0,27,28
 1129 1432 1129 1432 1151 1530 c 1,29,-1
 1166 1530 l 1,30,-1
 1166 944 l 1,31,-1
 1151 944 l 1,32,33
 1086 1171 1086 1171 987 1282 c 0,34,35
 860 1424 860 1424 717 1424 c 0,36,37
 566 1424 566 1424 470 1288 c 0,38,39
 352 1121 352 1121 352 757 c 0,40,41
 352 380 352 380 464 230 c 0,42,43
 570 90 570 90 748 90 c 0,44,45
 894 90 894 90 996 214 c 0,46,47
 1083 320 1083 320 1110 429 c 1,48,-1
 1249 429 l 1,11,12
EndSplineSet
Validated: 3073
EndChar

StartChar: Ccircumflex
Encoding: 264 264 217
Width: 1349
Flags: W
HStem: -20 110<572.387 904.581> 1424 106<565.058 871.439>
VStem: 130 222<428.416 1080.37> 1110 139<317.391 429> 1151 15<944 965.026 1504.38 1530>
DStem2: 652 1950 712 1806 0.578499 0.815683<-268.204 -82.7485> 772 1950 712 1806 0.578499 -0.815683<82.7485 268.204>
LayerCount: 2
Fore
SplineSet
652 1950 m 1,0,1
 772 1950 l 1,2,3
 972 1668 l 1,4,-1
 838 1668 l 1,5,6
 767 1716 767 1716 712 1806 c 1,7,8
 660 1721 660 1721 586 1668 c 1,9,-1
 452 1668 l 1,10,11
 652 1950 l 1,0,1
1249 429 m 1,12,13
 1198 256 1198 256 1076 134 c 0,14,15
 924 -20 924 -20 712 -20 c 0,16,17
 502 -20 502 -20 348 134 c 0,18,19
 130 353 130 353 130 755 c 0,20,21
 130 1155 130 1155 348 1376 c 0,22,23
 500 1530 500 1530 694 1530 c 0,24,25
 808 1530 808 1530 938 1465 c 16,26,27
 1004 1432 1004 1432 1050 1432 c 0,28,29
 1129 1432 1129 1432 1151 1530 c 1,30,-1
 1166 1530 l 1,31,-1
 1166 944 l 1,32,-1
 1151 944 l 1,33,34
 1086 1171 1086 1171 987 1282 c 0,35,36
 860 1424 860 1424 717 1424 c 0,37,38
 566 1424 566 1424 470 1288 c 0,39,40
 352 1121 352 1121 352 757 c 0,41,42
 352 380 352 380 464 230 c 0,43,44
 570 90 570 90 748 90 c 0,45,46
 894 90 894 90 996 214 c 0,47,48
 1083 320 1083 320 1110 429 c 1,49,-1
 1249 429 l 1,12,13
EndSplineSet
Validated: 3073
EndChar

StartChar: Cdotaccent
Encoding: 266 266 218
Width: 1349
Flags: W
HStem: -20 110<572.387 904.581> 1424 106<565.058 871.439> 1638 264<601.191 782.809>
VStem: 130 222<428.416 1080.37> 562 260<1677.71 1862.81> 1110 139<317.391 429> 1151 15<944 965.026 1504.38 1530>
LayerCount: 2
Fore
SplineSet
562 1770.5 m 128,-1,1
 562 1826 562 1826 600 1864 c 128,-1,2
 638 1902 638 1902 692 1902 c 128,-1,3
 746 1902 746 1902 784 1864 c 128,-1,4
 822 1826 822 1826 822 1770.5 c 128,-1,5
 822 1715 822 1715 784 1676.5 c 128,-1,6
 746 1638 746 1638 692 1638 c 128,-1,7
 638 1638 638 1638 600 1676.5 c 128,-1,0
 562 1715 562 1715 562 1770.5 c 128,-1,1
1249 429 m 1,8,9
 1198 256 1198 256 1076 134 c 0,10,11
 924 -20 924 -20 712 -20 c 0,12,13
 502 -20 502 -20 348 134 c 0,14,15
 130 353 130 353 130 755 c 0,16,17
 130 1155 130 1155 348 1376 c 0,18,19
 500 1530 500 1530 694 1530 c 0,20,21
 808 1530 808 1530 938 1465 c 16,22,23
 1004 1432 1004 1432 1050 1432 c 0,24,25
 1129 1432 1129 1432 1151 1530 c 1,26,-1
 1166 1530 l 1,27,-1
 1166 944 l 1,28,-1
 1151 944 l 1,29,30
 1086 1171 1086 1171 987 1282 c 0,31,32
 860 1424 860 1424 717 1424 c 0,33,34
 566 1424 566 1424 470 1288 c 0,35,36
 352 1121 352 1121 352 757 c 0,37,38
 352 380 352 380 464 230 c 0,39,40
 570 90 570 90 748 90 c 0,41,42
 894 90 894 90 996 214 c 0,43,44
 1083 320 1083 320 1110 429 c 1,45,-1
 1249 429 l 1,8,9
EndSplineSet
Validated: 3073
EndChar

StartChar: Ccaron
Encoding: 268 268 219
Width: 1349
Flags: W
HStem: -20 110<572.387 904.581> 1424 106<565.058 871.439>
VStem: 130 222<428.416 1080.37> 1110 139<317.391 429> 1151 15<944 965.026 1504.38 1530>
DStem2: 712 1812 652 1668 0.578499 -0.815683<-185.455 0> 712 1812 772 1668 0.578499 0.815683<0 185.455>
LayerCount: 2
Fore
SplineSet
772 1668 m 1,0,1
 652 1668 l 1,2,3
 452 1950 l 1,4,-1
 586 1950 l 1,5,6
 657 1902 657 1902 712 1812 c 1,7,8
 764 1897 764 1897 838 1950 c 1,9,-1
 972 1950 l 1,10,11
 772 1668 l 1,0,1
1249 429 m 1,12,13
 1198 256 1198 256 1076 134 c 0,14,15
 924 -20 924 -20 712 -20 c 0,16,17
 502 -20 502 -20 348 134 c 0,18,19
 130 353 130 353 130 755 c 0,20,21
 130 1155 130 1155 348 1376 c 0,22,23
 500 1530 500 1530 694 1530 c 0,24,25
 808 1530 808 1530 938 1465 c 16,26,27
 1004 1432 1004 1432 1050 1432 c 0,28,29
 1129 1432 1129 1432 1151 1530 c 1,30,-1
 1166 1530 l 1,31,-1
 1166 944 l 1,32,-1
 1151 944 l 1,33,34
 1086 1171 1086 1171 987 1282 c 0,35,36
 860 1424 860 1424 717 1424 c 0,37,38
 566 1424 566 1424 470 1288 c 0,39,40
 352 1121 352 1121 352 757 c 0,41,42
 352 380 352 380 464 230 c 0,43,44
 570 90 570 90 748 90 c 0,45,46
 894 90 894 90 996 214 c 0,47,48
 1083 320 1083 320 1110 429 c 1,49,-1
 1249 429 l 1,12,13
EndSplineSet
Validated: 3073
EndChar

StartChar: Eth
Encoding: 208 208 220
Width: 1504
Flags: W
HStem: -20 100<521.573 854.536> 707 102<177.873 250 450 631.792> 1430 100<518.554 863.619>
VStem: 250 200<169 707 809 1341> 1155 219<454.488 1056.08>
LayerCount: 2
Fore
SplineSet
80 91 m 1,0,-1
 80 105 l 1,1,2
 250 159 250 159 250 253 c 2,3,-1
 250 707 l 1,4,-1
 197 707 l 2,5,6
 90 707 90 707 51 670 c 1,7,-1
 36 670 l 1,8,-1
 162 864 l 1,9,-1
 177 864 l 1,10,11
 177 810 177 810 250 809 c 1,12,-1
 250 1257 l 2,13,14
 250 1351 250 1351 80 1405 c 1,15,-1
 80 1419 l 1,16,17
 334 1530 334 1530 630 1530 c 0,18,19
 997 1530 997 1530 1212 1274 c 0,20,21
 1374 1081 1374 1081 1374 754 c 0,22,23
 1374 430 1374 430 1212 236 c 0,24,25
 997 -20 997 -20 630 -20 c 0,26,27
 334 -20 334 -20 80 91 c 1,0,-1
450 253 m 2,28,29
 450 176 450 176 521 121 c 0,30,31
 574 80 574 80 682 80 c 0,32,33
 899 80 899 80 1057 319 c 0,34,35
 1155 467 1155 467 1155 745.5 c 128,-1,36
 1155 1024 1155 1024 1057 1191 c 0,37,38
 916 1430 916 1430 682 1430 c 0,39,40
 578 1430 578 1430 521 1389 c 0,41,42
 450 1338 450 1338 450 1257 c 2,43,-1
 450 809 l 1,44,-1
 588 809 l 2,45,46
 719 809 719 809 759 846 c 1,47,-1
 774 846 l 1,48,-1
 648 652 l 1,49,-1
 633 652 l 1,50,51
 633 707 633 707 532 707 c 2,52,-1
 450 707 l 1,53,-1
 450 253 l 2,28,29
EndSplineSet
Validated: 3073
EndChar

StartChar: Dcaron
Encoding: 270 270 221
Width: 1504
Flags: W
HStem: -20 100<521.573 854.536> 1430 100<518.554 863.619>
VStem: 250 200<169 1341> 1155 219<454.488 1056.08>
DStem2: 712 1812 652 1668 0.578499 -0.815683<-185.455 0> 712 1812 772 1668 0.578499 0.815683<0 185.455>
LayerCount: 2
Fore
SplineSet
772 1668 m 1,0,1
 652 1668 l 1,2,3
 452 1950 l 1,4,-1
 586 1950 l 1,5,6
 657 1902 657 1902 712 1812 c 1,7,8
 764 1897 764 1897 838 1950 c 1,9,-1
 972 1950 l 1,10,11
 772 1668 l 1,0,1
450 253 m 10,12,13
 450 176 450 176 521 121 c 0,14,15
 574 80 574 80 682 80 c 0,16,17
 899 80 899 80 1057 319 c 24,18,19
 1155 467 1155 467 1155 745.5 c 128,-1,20
 1155 1024 1155 1024 1057 1191 c 0,21,22
 916 1430 916 1430 682 1430 c 0,23,24
 578 1430 578 1430 521 1389 c 0,25,26
 450 1338 450 1338 450 1257 c 18,27,-1
 450 253 l 10,12,13
80 91 m 1,28,29
 80 93 80 93 80 105 c 1,30,31
 250 159 250 159 250 253 c 2,32,-1
 250 1257 l 2,33,34
 250 1351 250 1351 80 1405 c 1,35,36
 80 1417 80 1417 80 1419 c 1,37,38
 334 1530 334 1530 630 1530 c 0,39,40
 997 1530 997 1530 1212 1274 c 0,41,42
 1374 1081 1374 1081 1374 754 c 0,43,44
 1374 430 1374 430 1212 236 c 0,45,46
 997 -20 997 -20 630 -20 c 0,47,48
 334 -20 334 -20 80 91 c 1,28,29
EndSplineSet
Validated: 3073
EndChar

